ply
format ascii 1.0
comment Created by Blender 2.79 (sub 0) - www.blender.org, source file: 'Pluto.blend'
element vertex 378
property float x
property float y
property float z
property float nx
property float ny
property float nz
property uchar red
property uchar green
property uchar blue
element face 128
property list uchar uint vertex_indices
end_header
0.081552 0.033780 0.017558 0.955732 0.094131 0.278776 60 56 57
0.076820 0.031820 0.034442 0.955732 0.094131 0.278776 60 56 57
0.081552 -0.016222 0.034442 0.955732 0.094131 0.278776 60 56 57
0.046195 0.069136 -0.034442 0.333969 0.677019 -0.655828 60 56 57
0.035356 0.035356 -0.074832 0.333969 0.677019 -0.655828 60 56 57
0.000000 0.063640 -0.063640 0.333969 0.677019 -0.655828 60 56 57
0.027779 0.041575 0.074832 -0.082771 0.665428 0.741858 60 56 57
0.000000 0.083149 0.034442 -0.082771 0.665428 0.741858 60 56 57
-0.045000 0.045000 0.063640 -0.082771 0.665428 0.741858 60 56 57
0.035356 0.035356 -0.074832 0.178309 0.546667 -0.818145 60 56 57
0.000000 0.034441 -0.083149 0.178309 0.546667 -0.818145 60 56 57
0.000000 0.063640 -0.063640 0.178309 0.546667 -0.818145 60 56 57
-0.028637 -0.069136 -0.050001 -0.024149 -0.894399 -0.446617 60 56 57
0.017221 -0.086575 -0.017558 -0.024149 -0.894399 -0.446617 60 56 57
-0.031820 -0.076820 -0.034442 -0.024149 -0.894399 -0.446617 60 56 57
0.069136 -0.046195 0.034442 0.719702 -0.298110 0.627024 60 56 57
0.081552 -0.016222 0.034442 0.719702 -0.298110 0.627024 60 56 57
0.041575 -0.027779 0.074832 0.719702 -0.298110 0.627024 60 56 57
-0.035356 -0.035356 0.074832 -0.430345 -0.648427 0.627970 60 56 57
-0.062221 -0.041575 0.050001 -0.430345 -0.648427 0.627970 60 56 57
-0.031820 -0.076820 0.034442 -0.430345 -0.648427 0.627970 60 56 57
0.041575 -0.062221 0.050001 0.305480 -0.556862 0.772390 60 56 57
0.041575 -0.027779 0.074832 0.305480 -0.556862 0.772390 60 56 57
0.013180 -0.031820 0.083149 0.305480 -0.556862 0.772390 60 56 57
0.000000 0.034441 -0.083149 0.225686 0.093482 -0.969705 60 56 57
0.035356 0.035356 -0.074832 0.225686 0.093482 -0.969705 60 56 57
0.050001 -0.000000 -0.074832 0.225686 0.093482 -0.969705 60 56 57
0.081552 -0.016222 0.034442 0.885519 -0.366794 0.285164 60 56 57
0.069136 -0.046195 0.034442 0.885519 -0.366794 0.285164 60 56 57
0.073394 -0.049041 0.017558 0.885519 -0.366794 0.285164 60 56 57
-0.000000 -0.050001 -0.074832 0.044801 -0.815622 -0.576848 60 56 57
0.031820 -0.076820 -0.034442 0.044801 -0.815622 -0.576848 60 56 57
-0.028637 -0.069136 -0.050001 0.044801 -0.815622 -0.576848 60 56 57
0.062417 0.062417 0.017558 0.467132 0.878872 0.096805 60 56 57
0.049041 0.073394 -0.017558 0.467132 0.878872 0.096805 60 56 57
0.031820 0.076820 0.034442 0.467132 0.878872 0.096805 60 56 57
0.050001 -0.000000 -0.074832 0.225686 -0.093482 -0.969705 60 56 57
0.035356 -0.035356 -0.074832 0.225686 -0.093482 -0.969705 60 56 57
0.000000 -0.034442 -0.083149 0.225686 -0.093482 -0.969705 60 56 57
-0.035356 -0.035356 0.074832 -0.393664 -0.055271 0.917591 60 56 57
-0.006719 -0.016222 0.088271 -0.393664 -0.055271 0.917591 60 56 57
-0.024354 0.024354 0.083149 -0.393664 -0.055271 0.917591 60 56 57
-0.069136 -0.046195 -0.034442 -0.865134 -0.462423 -0.194187 60 56 57
-0.074832 -0.050001 0.000000 -0.865134 -0.462423 -0.194187 60 56 57
-0.083149 -0.034442 0.000000 -0.865134 -0.462423 -0.194187 60 56 57
0.081552 0.033780 0.017558 0.916262 0.379528 -0.128151 60 56 57
0.081552 0.016222 -0.034442 0.916262 0.379528 -0.128151 60 56 57
0.069136 0.046195 -0.034442 0.916262 0.379528 -0.128151 60 56 57
0.049041 0.073394 -0.017558 0.770852 0.629615 -0.096805 60 56 57
0.062417 0.062417 0.017558 0.770852 0.629615 -0.096805 60 56 57
0.069136 0.046195 -0.034442 0.770852 0.629615 -0.096805 60 56 57
0.017221 -0.086575 0.017558 0.382683 -0.923880 0.000000 60 56 57
0.017221 -0.086575 -0.017558 0.382683 -0.923880 0.000000 60 56 57
0.049041 -0.073394 0.017558 0.382683 -0.923880 0.000000 60 56 57
0.049041 -0.073394 0.017558 0.677747 -0.677747 0.285164 60 56 57
0.073394 -0.049041 0.017558 0.677747 -0.677747 0.285164 60 56 57
0.069136 -0.046195 0.034442 0.677747 -0.677747 0.285164 60 56 57
-0.031820 -0.076820 -0.034442 -0.529086 -0.848568 -0.000000 60 56 57
-0.031820 -0.076820 0.034442 -0.529086 -0.848568 -0.000000 60 56 57
-0.074832 -0.050001 0.000000 -0.529086 -0.848568 -0.000000 60 56 57
0.035356 -0.035356 -0.074832 0.449665 -0.547919 -0.705398 60 56 57
0.052914 -0.052914 -0.050001 0.449665 -0.547919 -0.705398 60 56 57
0.041575 -0.062221 -0.050001 0.449665 -0.547919 -0.705398 60 56 57
-0.006719 -0.016222 0.088271 0.215975 0.047446 0.975245 60 56 57
0.019135 -0.028637 0.083149 0.215975 0.047446 0.975245 60 56 57
0.046195 0.019135 0.074832 0.215975 0.047446 0.975245 60 56 57
-0.063640 0.063640 0.000000 -0.622317 0.758296 -0.194186 60 56 57
-0.046195 0.069136 -0.034442 -0.622317 0.758296 -0.194186 60 56 57
-0.058795 0.058795 -0.034442 -0.622317 0.758296 -0.194186 60 56 57
-0.045000 0.045000 0.063640 -0.464677 0.695439 0.548124 60 56 57
-0.031820 0.076820 0.034442 -0.464677 0.695439 0.548124 60 56 57
-0.058795 0.058795 0.034442 -0.464677 0.695439 0.548124 60 56 57
0.081552 -0.016222 0.034442 0.719012 -0.070817 0.691381 60 56 57
0.046195 0.019135 0.074832 0.719012 -0.070817 0.691381 60 56 57
0.041575 -0.027779 0.074832 0.719012 -0.070817 0.691381 60 56 57
-0.031820 0.076820 0.034442 -0.195092 0.980785 -0.000001 60 56 57
0.000000 0.083149 0.034442 -0.195092 0.980785 -0.000001 60 56 57
0.017221 0.086575 -0.017558 -0.195092 0.980785 -0.000001 60 56 57
0.046195 0.019135 0.074832 0.647715 0.432789 0.627024 60 56 57
0.076820 0.031820 0.034442 0.647715 0.432789 0.627024 60 56 57
0.058795 0.058795 0.034442 0.647715 0.432789 0.627024 60 56 57
0.081552 -0.016222 0.034442 0.782674 0.077087 0.617640 60 56 57
0.076820 0.031820 0.034442 0.782674 0.077087 0.617640 60 56 57
0.046195 0.019135 0.074832 0.782674 0.077087 0.617640 60 56 57
-0.090000 -0.000000 0.000000 -0.892797 0.257209 0.369808 60 56 57
-0.063640 -0.000000 0.063640 -0.892797 0.257209 0.369808 60 56 57
-0.058795 0.058795 0.034442 -0.892797 0.257209 0.369808 60 56 57
0.031820 -0.076820 -0.034442 0.015401 -0.871475 -0.490198 60 56 57
0.017221 -0.086575 -0.017558 0.015401 -0.871475 -0.490198 60 56 57
-0.028637 -0.069136 -0.050001 0.015401 -0.871475 -0.490198 60 56 57
0.073394 -0.049041 0.017558 0.696662 -0.696662 -0.171240 60 56 57
0.049041 -0.073394 0.017558 0.696662 -0.696662 -0.171240 60 56 57
0.052914 -0.052914 -0.050001 0.696662 -0.696662 -0.171240 60 56 57
0.046195 0.069136 -0.034442 0.557252 0.557252 -0.615582 60 56 57
0.069136 0.046195 -0.034442 0.557252 0.557252 -0.615582 60 56 57
0.035356 0.035356 -0.074832 0.557252 0.557252 -0.615582 60 56 57
0.000000 -0.034442 -0.083149 -0.093357 -0.469338 -0.878070 60 56 57
-0.000000 -0.050001 -0.074832 -0.093357 -0.469338 -0.878070 60 56 57
-0.019135 -0.046195 -0.074832 -0.093357 -0.469338 -0.878070 60 56 57
-0.028637 -0.069136 -0.050001 -0.564798 -0.688208 -0.455383 60 56 57
-0.031820 -0.076820 -0.034442 -0.564798 -0.688208 -0.455383 60 56 57
-0.069136 -0.046195 -0.034442 -0.564798 -0.688208 -0.455383 60 56 57
-0.046195 0.069136 -0.034442 -0.250994 0.966401 -0.055420 60 56 57
-0.031820 0.076820 0.034442 -0.250994 0.966401 -0.055420 60 56 57
0.017221 0.086575 -0.017558 -0.250994 0.966401 -0.055420 60 56 57
0.081552 0.033780 0.017558 0.796946 0.532502 0.285164 60 56 57
0.062417 0.062417 0.017558 0.796946 0.532502 0.285164 60 56 57
0.058795 0.058795 0.034442 0.796946 0.532502 0.285164 60 56 57
0.076820 0.031820 0.034442 0.796946 0.532502 0.285164 60 56 57
0.028637 -0.069136 0.050001 0.088735 -0.640701 0.762646 60 56 57
0.013180 -0.031820 0.083149 0.088735 -0.640701 0.762646 60 56 57
-0.019135 -0.046195 0.074832 0.088735 -0.640701 0.762646 60 56 57
0.041575 -0.027779 0.074832 0.304630 -0.569924 0.763143 60 56 57
0.019135 -0.028637 0.083149 0.304630 -0.569924 0.763143 60 56 57
0.013180 -0.031820 0.083149 0.304630 -0.569924 0.763143 60 56 57
0.028637 -0.069136 0.050001 0.216998 -0.889632 0.401829 60 56 57
0.000000 -0.083149 0.034442 0.216998 -0.889632 0.401829 60 56 57
0.017221 -0.086575 0.017558 0.216998 -0.889632 0.401829 60 56 57
-0.083149 -0.000000 -0.034442 -0.919003 -0.278777 -0.278777 60 56 57
-0.069136 -0.046195 -0.034442 -0.919003 -0.278777 -0.278777 60 56 57
-0.083149 -0.034442 0.000000 -0.919003 -0.278777 -0.278777 60 56 57
-0.062417 0.012415 -0.063640 -0.353023 0.188695 -0.916389 60 56 57
-0.045000 0.045000 -0.063640 -0.353023 0.188695 -0.916389 60 56 57
0.000000 0.034441 -0.083149 -0.353023 0.188695 -0.916389 60 56 57
0.046195 0.019135 0.074832 0.160450 0.131678 0.978221 60 56 57
0.027779 0.041575 0.074832 0.160450 0.131678 0.978221 60 56 57
-0.006719 -0.016222 0.088271 0.160450 0.131678 0.978221 60 56 57
0.017221 -0.086575 -0.017558 -0.152934 -0.980632 -0.122361 60 56 57
-0.000000 -0.088271 0.017558 -0.152934 -0.980632 -0.122361 60 56 57
-0.031820 -0.076820 -0.034442 -0.152934 -0.980632 -0.122361 60 56 57
0.041575 -0.062221 0.050001 0.615756 -0.690515 0.379518 60 56 57
0.049041 -0.073394 0.017558 0.615756 -0.690515 0.379518 60 56 57
0.069136 -0.046195 0.034442 0.615756 -0.690515 0.379518 60 56 57
-0.031820 -0.076820 0.034442 -0.338608 -0.940928 0.000000 60 56 57
-0.031820 -0.076820 -0.034442 -0.338608 -0.940928 0.000000 60 56 57
-0.000000 -0.088271 0.017558 -0.338608 -0.940928 0.000000 60 56 57
-0.058795 0.058795 0.034442 -0.643690 0.528263 0.553717 60 56 57
-0.052914 0.035356 0.063640 -0.643690 0.528263 0.553717 60 56 57
-0.045000 0.045000 0.063640 -0.643690 0.528263 0.553717 60 56 57
-0.083149 -0.000000 -0.034442 -0.908663 0.376381 -0.180744 60 56 57
-0.090000 -0.000000 0.000000 -0.908663 0.376381 -0.180744 60 56 57
-0.058795 0.058795 -0.034442 -0.908663 0.376381 -0.180744 60 56 57
0.073394 -0.014599 -0.050001 0.622901 -0.258014 -0.738527 60 56 57
0.035356 -0.035356 -0.074832 0.622901 -0.258014 -0.738527 60 56 57
0.050001 -0.000000 -0.074832 0.622901 -0.258014 -0.738527 60 56 57
0.073394 -0.014599 -0.050001 0.637180 -0.340580 -0.691380 60 56 57
0.052914 -0.052914 -0.050001 0.637180 -0.340580 -0.691380 60 56 57
0.035356 -0.035356 -0.074832 0.637180 -0.340580 -0.691380 60 56 57
0.017221 -0.086575 0.017558 0.359840 -0.868730 0.340329 60 56 57
0.049041 -0.073394 0.017558 0.359840 -0.868730 0.340329 60 56 57
0.028637 -0.069136 0.050001 0.359840 -0.868730 0.340329 60 56 57
-0.031820 -0.076820 0.034442 -0.660586 -0.695061 0.283755 60 56 57
-0.062221 -0.041575 0.050001 -0.660586 -0.695061 0.283755 60 56 57
-0.074832 -0.050001 0.000000 -0.660586 -0.695061 0.283755 60 56 57
-0.090000 -0.000000 0.000000 -0.962637 -0.191480 -0.191480 60 56 57
-0.083149 -0.000000 -0.034442 -0.962637 -0.191480 -0.191480 60 56 57
-0.083149 -0.034442 0.000000 -0.962637 -0.191480 -0.191480 60 56 57
-0.028637 -0.069136 -0.050001 -0.139281 -0.700215 -0.700214 60 56 57
-0.019135 -0.046195 -0.074832 -0.139281 -0.700215 -0.700214 60 56 57
-0.000000 -0.050001 -0.074832 -0.139281 -0.700215 -0.700214 60 56 57
-0.041575 -0.027779 -0.074832 -0.196161 0.000000 -0.980572 60 56 57
0.000000 0.034441 -0.083149 -0.196161 0.000000 -0.980572 60 56 57
0.000000 -0.034442 -0.083149 -0.196161 0.000000 -0.980572 60 56 57
0.081552 0.016222 -0.034442 0.809210 0.079700 -0.582089 60 56 57
0.083149 -0.000000 -0.034442 0.809210 0.079700 -0.582089 60 56 57
0.073394 -0.014599 -0.050001 0.809210 0.079700 -0.582089 60 56 57
-0.041575 -0.027779 -0.074832 -0.458344 -0.558493 -0.691380 60 56 57
-0.019135 -0.046195 -0.074832 -0.458344 -0.558493 -0.691380 60 56 57
-0.028637 -0.069136 -0.050001 -0.458344 -0.558493 -0.691380 60 56 57
-0.000000 -0.050001 -0.074832 0.191640 -0.462660 -0.865575 60 56 57
0.000000 -0.034442 -0.083149 0.191640 -0.462660 -0.865575 60 56 57
0.035356 -0.035356 -0.074832 0.191640 -0.462660 -0.865575 60 56 57
-0.063640 0.063640 0.000000 -0.908663 0.376381 -0.180744 60 56 57
0.019135 -0.028637 0.083149 0.348477 -0.034322 0.936689 60 56 57
0.041575 -0.027779 0.074832 0.348477 -0.034322 0.936689 60 56 57
0.046195 0.019135 0.074832 0.348477 -0.034322 0.936689 60 56 57
0.013180 -0.031820 0.083149 -0.065353 -0.385567 0.920363 60 56 57
-0.006719 -0.016222 0.088271 -0.065353 -0.385567 0.920363 60 56 57
-0.019135 -0.046195 0.074832 -0.065353 -0.385567 0.920363 60 56 57
-0.062221 -0.041575 0.050001 -0.732909 -0.616043 0.288679 60 56 57
-0.081551 -0.033780 0.017558 -0.732909 -0.616043 0.288679 60 56 57
-0.074832 -0.050001 0.000000 -0.732909 -0.616043 0.288679 60 56 57
-0.074832 -0.050001 0.000000 -0.623204 -0.759376 -0.186990 60 56 57
-0.069136 -0.046195 -0.034442 -0.623204 -0.759376 -0.186990 60 56 57
-0.031820 -0.076820 -0.034442 -0.623204 -0.759376 -0.186990 60 56 57
0.000000 0.083149 0.034442 -0.139282 0.700215 0.700214 60 56 57
-0.031820 0.076820 0.034442 -0.139282 0.700215 0.700214 60 56 57
-0.045000 0.045000 0.063640 -0.139282 0.700215 0.700214 60 56 57
-0.063640 -0.000000 0.063640 -0.880457 0.267084 0.391741 60 56 57
-0.052914 0.035356 0.063640 -0.880457 0.267084 0.391741 60 56 57
-0.058795 0.058795 0.034442 -0.880457 0.267084 0.391741 60 56 57
0.000000 0.034441 -0.083149 -0.054637 0.554740 -0.830228 60 56 57
-0.012415 0.062417 -0.063640 -0.054637 0.554740 -0.830228 60 56 57
0.000000 0.063640 -0.063640 -0.054637 0.554740 -0.830228 60 56 57
0.041575 -0.062221 -0.050001 0.258014 -0.622902 -0.738527 60 56 57
-0.000000 -0.050001 -0.074832 0.258014 -0.622902 -0.738527 60 56 57
0.035356 -0.035356 -0.074832 0.258014 -0.622902 -0.738527 60 56 57
-0.081551 -0.033780 0.017558 -0.976241 -0.194186 0.096153 60 56 57
-0.090000 -0.000000 0.000000 -0.976241 -0.194186 0.096153 60 56 57
-0.083149 -0.034442 0.000000 -0.976241 -0.194186 0.096153 60 56 57
-0.035356 -0.035356 0.074832 -0.621239 -0.263317 0.738056 60 56 57
-0.063640 -0.000000 0.063640 -0.621239 -0.263317 0.738056 60 56 57
-0.062221 -0.041575 0.050001 -0.621239 -0.263317 0.738056 60 56 57
0.052914 -0.052914 -0.050001 0.677751 -0.713559 -0.177446 60 56 57
0.049041 -0.073394 0.017558 0.677751 -0.713559 -0.177446 60 56 57
0.031820 -0.076820 -0.034442 0.677751 -0.713559 -0.177446 60 56 57
0.027779 0.041575 0.074832 0.101050 0.167697 0.980646 60 56 57
-0.024354 0.024354 0.083149 0.101050 0.167697 0.980646 60 56 57
-0.006719 -0.016222 0.088271 0.101050 0.167697 0.980646 60 56 57
0.000000 0.063640 -0.063640 0.215075 0.839859 -0.498376 60 56 57
0.017221 0.086575 -0.017558 0.215075 0.839859 -0.498376 60 56 57
0.046195 0.069136 -0.034442 0.215075 0.839859 -0.498376 60 56 57
-0.062221 -0.041575 0.050001 -0.863228 -0.183707 0.470201 60 56 57
-0.063640 -0.000000 0.063640 -0.863228 -0.183707 0.470201 60 56 57
-0.081551 -0.033780 0.017558 -0.863228 -0.183707 0.470201 60 56 57
-0.090000 -0.000000 0.000000 -0.907373 0.326534 0.264669 60 56 57
-0.058795 0.058795 0.034442 -0.907373 0.326534 0.264669 60 56 57
-0.062417 0.062417 0.017558 -0.907373 0.326534 0.264669 60 56 57
-0.090000 -0.000000 0.000000 -0.920078 0.381109 0.090621 60 56 57
-0.062417 0.062417 0.017558 -0.920078 0.381109 0.090621 60 56 57
-0.063640 0.063640 0.000000 -0.920078 0.381109 0.090621 60 56 57
0.062417 0.062417 0.017558 0.829672 0.554368 -0.065731 60 56 57
0.081552 0.033780 0.017558 0.829672 0.554368 -0.065731 60 56 57
0.069136 0.046195 -0.034442 0.829672 0.554368 -0.065731 60 56 57
-0.045000 0.045000 -0.063640 -0.743017 0.397151 -0.538699 60 56 57
-0.062417 0.012415 -0.063640 -0.743017 0.397151 -0.538699 60 56 57
-0.058795 0.058795 -0.034442 -0.743017 0.397151 -0.538699 60 56 57
0.035356 0.035356 -0.074832 0.695168 0.287948 -0.658656 60 56 57
0.069136 0.046195 -0.034442 0.695168 0.287948 -0.658656 60 56 57
0.081552 0.016222 -0.034442 0.695168 0.287948 -0.658656 60 56 57
0.017221 -0.086575 -0.017558 0.098017 -0.995185 0.000000 60 56 57
0.017221 -0.086575 0.017558 0.098017 -0.995185 0.000000 60 56 57
-0.000000 -0.088271 0.017558 0.098017 -0.995185 0.000000 60 56 57
-0.045000 0.045000 -0.063640 -0.253866 0.474950 -0.842600 60 56 57
-0.012415 0.062417 -0.063640 -0.253866 0.474950 -0.842600 60 56 57
0.000000 0.034441 -0.083149 -0.253866 0.474950 -0.842600 60 56 57
0.000000 -0.034442 -0.083149 0.164079 -0.000000 -0.986447 60 56 57
0.000000 0.034441 -0.083149 0.164079 -0.000000 -0.986447 60 56 57
0.050001 -0.000000 -0.074832 0.164079 -0.000000 -0.986447 60 56 57
-0.090000 -0.000000 0.000000 -0.923402 -0.032140 0.382486 60 56 57
-0.081551 -0.033780 0.017558 -0.923402 -0.032140 0.382486 60 56 57
-0.063640 -0.000000 0.063640 -0.923402 -0.032140 0.382486 60 56 57
0.017221 0.086575 -0.017558 -0.089092 0.904569 -0.416915 60 56 57
0.000000 0.063640 -0.063640 -0.089092 0.904569 -0.416915 60 56 57
-0.012415 0.062417 -0.063640 -0.089092 0.904569 -0.416915 60 56 57
-0.006719 -0.016222 0.088271 -0.216148 -0.323488 0.921214 60 56 57
-0.035356 -0.035356 0.074832 -0.216148 -0.323488 0.921214 60 56 57
-0.019135 -0.046195 0.074832 -0.216148 -0.323488 0.921214 60 56 57
0.046195 0.069136 -0.034442 0.677747 0.677747 -0.285164 60 56 57
0.049041 0.073394 -0.017558 0.677747 0.677747 -0.285164 60 56 57
0.069136 0.046195 -0.034442 0.677747 0.677747 -0.285164 60 56 57
0.052914 -0.052914 -0.050001 0.857507 -0.458348 -0.233663 60 56 57
0.073394 -0.014599 -0.050001 0.857507 -0.458348 -0.233663 60 56 57
0.073394 -0.049041 0.017558 0.857507 -0.458348 -0.233663 60 56 57
0.050001 -0.000000 -0.074832 0.695168 0.287948 -0.658656 60 56 57
0.041575 -0.062221 0.050001 0.623734 -0.457115 0.634036 60 56 57
0.069136 -0.046195 0.034442 0.623734 -0.457115 0.634036 60 56 57
0.041575 -0.027779 0.074832 0.623734 -0.457115 0.634036 60 56 57
0.000000 -0.083149 0.034442 -0.004569 -0.738868 0.673834 60 56 57
0.028637 -0.069136 0.050001 -0.004569 -0.738868 0.673834 60 56 57
-0.019135 -0.046195 0.074832 -0.004569 -0.738868 0.673834 60 56 57
-0.019135 -0.046195 -0.074832 -0.231453 -0.282026 -0.931070 60 56 57
-0.041575 -0.027779 -0.074832 -0.231453 -0.282026 -0.931070 60 56 57
0.000000 -0.034442 -0.083149 -0.231453 -0.282026 -0.931070 60 56 57
-0.062417 0.062417 0.017558 -0.465898 0.879861 0.093725 60 56 57
-0.031820 0.076820 0.034442 -0.465898 0.879861 0.093725 60 56 57
-0.063640 0.063640 0.000000 -0.465898 0.879861 0.093725 60 56 57
0.081552 0.033780 0.017558 0.999647 0.008505 0.025189 60 56 57
0.081552 -0.016222 0.034442 0.999647 0.008505 0.025189 60 56 57
0.083149 -0.000000 -0.034442 0.999647 0.008505 0.025189 60 56 57
-0.062417 0.012415 -0.063640 -0.828556 0.343199 -0.442390 60 56 57
-0.083149 -0.000000 -0.034442 -0.828556 0.343199 -0.442390 60 56 57
-0.058795 0.058795 -0.034442 -0.828556 0.343199 -0.442390 60 56 57
0.073394 -0.014599 -0.050001 0.899423 -0.389398 -0.198513 60 56 57
0.083149 -0.000000 -0.034442 0.899423 -0.389398 -0.198513 60 56 57
0.073394 -0.049041 0.017558 0.899423 -0.389398 -0.198513 60 56 57
0.041575 -0.062221 -0.050001 0.148494 -0.765929 -0.625542 60 56 57
0.031820 -0.076820 -0.034442 0.148494 -0.765929 -0.625542 60 56 57
-0.000000 -0.050001 -0.074832 0.148494 -0.765929 -0.625542 60 56 57
-0.083149 -0.000000 -0.034442 -0.750682 -0.215328 -0.624589 60 56 57
-0.062417 0.012415 -0.063640 -0.750682 -0.215328 -0.624589 60 56 57
-0.041575 -0.027779 -0.074832 -0.750682 -0.215328 -0.624589 60 56 57
0.013180 -0.031820 0.083149 0.101881 -0.190606 0.976366 60 56 57
0.019135 -0.028637 0.083149 0.101881 -0.190606 0.976366 60 56 57
-0.006719 -0.016222 0.088271 0.101881 -0.190606 0.976366 60 56 57
-0.000000 -0.088271 0.017558 -0.186990 -0.940062 0.285164 60 56 57
0.000000 -0.083149 0.034442 -0.186990 -0.940062 0.285164 60 56 57
-0.031820 -0.076820 0.034442 -0.186990 -0.940062 0.285164 60 56 57
0.031820 -0.076820 -0.034442 0.602873 -0.734603 -0.311291 60 56 57
0.041575 -0.062221 -0.050001 0.602873 -0.734603 -0.311291 60 56 57
0.052914 -0.052914 -0.050001 0.602873 -0.734603 -0.311291 60 56 57
-0.045000 0.045000 0.063640 -0.087918 0.636302 0.766414 60 56 57
-0.024354 0.024354 0.083149 -0.087918 0.636302 0.766414 60 56 57
0.027779 0.041575 0.074832 -0.087918 0.636302 0.766414 60 56 57
0.031820 0.076820 0.034442 0.532502 0.796946 0.285164 60 56 57
0.058795 0.058795 0.034442 0.532502 0.796946 0.285164 60 56 57
0.062417 0.062417 0.017558 0.532502 0.796946 0.285164 60 56 57
0.013180 -0.031820 0.083149 0.299913 -0.561098 0.771506 60 56 57
0.028637 -0.069136 0.050001 0.299913 -0.561098 0.771506 60 56 57
0.041575 -0.062221 0.050001 0.299913 -0.561098 0.771506 60 56 57
0.031820 -0.076820 -0.034442 0.471635 -0.876279 -0.098467 60 56 57
0.049041 -0.073394 0.017558 0.471635 -0.876279 -0.098467 60 56 57
0.017221 -0.086575 -0.017558 0.471635 -0.876279 -0.098467 60 56 57
-0.031820 0.076820 0.034442 -0.532502 0.796946 0.285163 60 56 57
-0.062417 0.062417 0.017558 -0.532502 0.796946 0.285163 60 56 57
-0.058795 0.058795 0.034442 -0.532502 0.796946 0.285163 60 56 57
0.073394 -0.049041 0.017558 0.973597 -0.226200 -0.030687 60 56 57
0.083149 -0.000000 -0.034442 0.973597 -0.226200 -0.030687 60 56 57
0.081552 -0.016222 0.034442 0.973597 -0.226200 -0.030687 60 56 57
-0.031820 -0.076820 0.034442 -0.432789 -0.647715 0.627024 60 56 57
-0.019135 -0.046195 0.074832 -0.432789 -0.647715 0.627024 60 56 57
-0.035356 -0.035356 0.074832 -0.432789 -0.647715 0.627024 60 56 57
-0.012415 0.062417 -0.063640 -0.377422 0.706107 -0.599137 60 56 57
-0.045000 0.045000 -0.063640 -0.377422 0.706107 -0.599137 60 56 57
-0.046195 0.069136 -0.034442 -0.377422 0.706107 -0.599137 60 56 57
0.058795 0.058795 0.034442 0.437830 0.655259 0.615582 60 56 57
0.031820 0.076820 0.034442 0.437830 0.655259 0.615582 60 56 57
0.027779 0.041575 0.074832 0.437830 0.655259 0.615582 60 56 57
-0.041575 -0.027779 -0.074832 -0.552138 -0.549311 -0.627217 60 56 57
-0.028637 -0.069136 -0.050001 -0.552138 -0.549311 -0.627217 60 56 57
-0.069136 -0.046195 -0.034442 -0.552138 -0.549311 -0.627217 60 56 57
0.081552 0.016222 -0.034442 0.994640 0.097963 -0.033078 60 56 57
0.081552 0.033780 0.017558 0.994640 0.097963 -0.033078 60 56 57
0.083149 -0.000000 -0.034442 0.994640 0.097963 -0.033078 60 56 57
0.017221 0.086575 -0.017558 0.193482 0.972698 0.128151 60 56 57
0.000000 0.083149 0.034442 0.193482 0.972698 0.128151 60 56 57
0.031820 0.076820 0.034442 0.193482 0.972698 0.128151 60 56 57
-0.019135 -0.046195 0.074832 -0.151975 -0.764031 0.627024 60 56 57
-0.031820 -0.076820 0.034442 -0.151975 -0.764031 0.627024 60 56 57
0.000000 -0.083149 0.034442 -0.151975 -0.764031 0.627024 60 56 57
-0.081551 -0.033780 0.017558 -0.877715 -0.469148 0.097551 60 56 57
-0.083149 -0.034442 0.000000 -0.877715 -0.469148 0.097551 60 56 57
-0.074832 -0.050001 0.000000 -0.877715 -0.469148 0.097551 60 56 57
0.017221 0.086575 -0.017558 0.366794 0.885519 -0.285164 60 56 57
0.049041 0.073394 -0.017558 0.366794 0.885519 -0.285164 60 56 57
0.046195 0.069136 -0.034442 0.366794 0.885519 -0.285164 60 56 57
0.073394 -0.014599 -0.050001 0.757457 0.123215 -0.641152 60 56 57
0.050001 -0.000000 -0.074832 0.757457 0.123215 -0.641152 60 56 57
0.081552 0.016222 -0.034442 0.757457 0.123215 -0.641152 60 56 57
0.000000 0.034441 -0.083149 -0.326658 0.092538 -0.940601 60 56 57
-0.041575 -0.027779 -0.074832 -0.326658 0.092538 -0.940601 60 56 57
-0.062417 0.012415 -0.063640 -0.326658 0.092538 -0.940601 60 56 57
0.049041 0.073394 -0.017558 0.381856 0.921881 0.065732 60 56 57
0.017221 0.086575 -0.017558 0.381856 0.921881 0.065732 60 56 57
0.031820 0.076820 0.034442 0.381856 0.921881 0.065732 60 56 57
-0.046195 0.069136 -0.034442 -0.149010 0.911963 -0.382257 60 56 57
0.017221 0.086575 -0.017558 -0.149010 0.911963 -0.382257 60 56 57
-0.012415 0.062417 -0.063640 -0.149010 0.911963 -0.382257 60 56 57
0.049041 -0.073394 0.017558 0.435820 -0.815363 0.381109 60 56 57
0.041575 -0.062221 0.050001 0.435820 -0.815363 0.381109 60 56 57
0.028637 -0.069136 0.050001 0.435820 -0.815363 0.381109 60 56 57
-0.045000 0.045000 -0.063640 -0.528262 0.643690 -0.553716 60 56 57
-0.058795 0.058795 -0.034442 -0.528262 0.643690 -0.553716 60 56 57
-0.046195 0.069136 -0.034442 -0.528262 0.643690 -0.553716 60 56 57
-0.024354 0.024354 0.083149 -0.430895 0.353626 0.830228 60 56 57
-0.045000 0.045000 0.063640 -0.430895 0.353626 0.830228 60 56 57
-0.052914 0.035356 0.063640 -0.430895 0.353626 0.830228 60 56 57
0.027779 0.041575 0.074832 0.584906 0.480020 0.653808 60 56 57
0.046195 0.019135 0.074832 0.584906 0.480020 0.653808 60 56 57
0.058795 0.058795 0.034442 0.584906 0.480020 0.653808 60 56 57
0.000000 -0.083149 0.034442 0.093834 -0.952718 0.289003 60 56 57
-0.000000 -0.088271 0.017558 0.093834 -0.952718 0.289003 60 56 57
0.017221 -0.086575 0.017558 0.093834 -0.952718 0.289003 60 56 57
-0.046195 0.069136 -0.034442 -0.354328 0.934630 -0.030311 60 56 57
-0.063640 0.063640 0.000000 -0.354328 0.934630 -0.030311 60 56 57
-0.031820 0.076820 0.034442 -0.354328 0.934630 -0.030311 60 56 57
-0.063640 -0.000000 0.063640 -0.419773 -0.048889 0.906312 60 56 57
-0.035356 -0.035356 0.074832 -0.419773 -0.048889 0.906312 60 56 57
-0.024354 0.024354 0.083149 -0.419773 -0.048889 0.906312 60 56 57
0.027779 0.041575 0.074832 0.146795 0.737986 0.658656 60 56 57
0.031820 0.076820 0.034442 0.146795 0.737986 0.658656 60 56 57
0.000000 0.083149 0.034442 0.146795 0.737986 0.658656 60 56 57
-0.052914 0.035356 0.063640 -0.515351 0.156330 0.842600 60 56 57
-0.063640 -0.000000 0.063640 -0.515351 0.156330 0.842600 60 56 57
-0.024354 0.024354 0.083149 -0.515351 0.156330 0.842600 60 56 57
-0.069136 -0.046195 -0.034442 -0.752596 -0.228298 -0.617640 60 56 57
-0.083149 -0.000000 -0.034442 -0.752596 -0.228298 -0.617640 60 56 57
-0.041575 -0.027779 -0.074832 -0.752596 -0.228298 -0.617640 60 56 57
3 0 1 2
3 3 4 5
3 6 7 8
3 9 10 11
3 12 13 14
3 15 16 17
3 18 19 20
3 21 22 23
3 24 25 26
3 27 28 29
3 30 31 32
3 33 34 35
3 36 37 38
3 39 40 41
3 42 43 44
3 45 46 47
3 48 49 50
3 51 52 53
3 54 55 56
3 57 58 59
3 60 61 62
3 63 64 65
3 66 67 68
3 69 70 71
3 72 73 74
3 75 76 77
3 78 79 80
3 81 82 83
3 84 85 86
3 87 88 89
3 90 91 92
3 93 94 95
3 96 97 98
3 99 100 101
3 102 103 104
3 105 106 107
3 108 105 107
3 109 110 111
3 112 113 114
3 115 116 117
3 118 119 120
3 121 122 123
3 124 125 126
3 127 128 129
3 130 131 132
3 133 134 135
3 136 137 138
3 139 140 141
3 142 143 144
3 145 146 147
3 148 149 150
3 151 152 153
3 154 155 156
3 157 158 159
3 160 161 162
3 163 164 165
3 166 167 168
3 169 170 171
3 172 141 140
3 173 174 175
3 176 177 178
3 179 180 181
3 182 183 184
3 185 186 187
3 188 189 190
3 191 192 193
3 194 195 196
3 197 198 199
3 200 201 202
3 203 204 205
3 206 207 208
3 209 210 211
3 212 213 214
3 215 216 217
3 218 219 220
3 221 222 223
3 224 225 226
3 227 228 229
3 230 231 232
3 233 234 235
3 236 237 238
3 239 240 241
3 242 243 244
3 245 246 247
3 248 249 250
3 251 252 253
3 254 227 229
3 255 256 257
3 258 259 260
3 261 262 263
3 264 265 266
3 267 268 269
3 270 271 272
3 273 274 275
3 276 277 278
3 279 280 281
3 282 283 284
3 285 286 287
3 288 289 290
3 291 292 293
3 294 295 296
3 297 298 299
3 300 301 302
3 303 304 305
3 306 307 308
3 309 310 311
3 312 313 314
3 315 316 317
3 318 319 320
3 321 322 323
3 324 325 326
3 327 328 329
3 330 331 332
3 333 334 335
3 336 337 338
3 339 340 341
3 342 343 344
3 345 346 347
3 348 349 350
3 351 352 353
3 354 355 356
3 357 358 359
3 360 361 362
3 363 364 365
3 366 367 368
3 369 370 371
3 372 373 374
3 375 376 377
