ply
format ascii 1.0
comment Created by Blender 2.79 (sub 0) - www.blender.org, source file: 'Mars.blend'
element vertex 434
property float x
property float y
property float z
property float nx
property float ny
property float nz
property uchar red
property uchar green
property uchar blue
element face 148
property list uchar uint vertex_indices
end_header
0.163320 0.163320 0.095671 0.528263 0.643690 0.553716 255 0 0
0.128320 0.192044 0.095671 0.528263 0.643690 0.553716 255 0 0
0.098212 0.146984 0.176777 0.528263 0.643690 0.553716 255 0 0
-0.093833 -0.226532 -0.048773 -0.286697 -0.953118 0.096805 255 0 0
-0.045060 -0.226532 0.095671 -0.286697 -0.953118 0.096805 255 0 0
-0.136224 -0.203873 0.048773 -0.286697 -0.953118 0.096805 255 0 0
-0.245196 -0.000000 0.048773 -0.976241 0.194187 0.096153 255 0 0
-0.230970 0.095671 0.000000 -0.976241 0.194187 0.096153 255 0 0
-0.250000 -0.000000 0.000000 -0.976241 0.194187 0.096153 255 0 0
-0.125000 0.125000 0.176777 -0.473758 0.196237 0.858513 255 0 0
-0.176777 -0.000000 0.176777 -0.473758 0.196237 0.858513 255 0 0
-0.045060 0.018664 0.245196 -0.473758 0.196237 0.858513 255 0 0
0.163320 0.067649 -0.176777 0.503226 0.412987 -0.759082 255 0 0
0.128320 0.053152 -0.207867 0.503226 0.412987 -0.759082 255 0 0
0.098212 0.146984 -0.176777 0.503226 0.412987 -0.759082 255 0 0
-0.173380 -0.034487 -0.176777 -0.524687 -0.217332 -0.823086 255 0 0
-0.138893 -0.000000 -0.207867 -0.524687 -0.217332 -0.823086 255 0 0
-0.146984 -0.098212 -0.176777 -0.524687 -0.217332 -0.823086 255 0 0
0.040553 -0.203873 0.138893 0.093147 -0.945738 0.311292 255 0 0
-0.000000 -0.207867 0.138893 0.093147 -0.945738 0.311292 255 0 0
-0.045060 -0.226532 0.095671 0.093147 -0.945738 0.311292 255 0 0
0.173380 -0.034488 -0.176777 0.633159 -0.062361 -0.771506 255 0 0
0.138893 -0.000000 -0.207867 0.633159 -0.062361 -0.771506 255 0 0
0.176777 -0.000000 -0.176777 0.633159 -0.062361 -0.771506 255 0 0
-0.245196 -0.000000 0.048773 -0.929753 -0.316146 0.188709 255 0 0
-0.207867 -0.138893 0.000000 -0.929753 -0.316146 0.188709 255 0 0
-0.192044 -0.128320 0.095671 -0.929753 -0.316146 0.188709 255 0 0
-0.192044 -0.128320 0.095671 -0.919004 -0.278777 0.278775 255 0 0
-0.230970 -0.000000 0.095671 -0.919004 -0.278777 0.278775 255 0 0
-0.245196 -0.000000 0.048773 -0.919004 -0.278777 0.278775 255 0 0
0.192044 -0.079548 -0.138893 0.892311 -0.042757 -0.449391 255 0 0
0.176777 -0.000000 -0.176777 0.892311 -0.042757 -0.449391 255 0 0
0.213388 -0.088388 -0.095671 0.892311 -0.042757 -0.449391 255 0 0
0.173380 -0.034488 0.176777 0.616414 0.186987 0.764898 255 0 0
0.125000 0.125000 0.176777 0.616414 0.186987 0.764898 255 0 0
0.079547 0.053152 0.230970 0.616414 0.186987 0.764898 255 0 0
0.093833 0.226532 0.048773 0.451281 0.844288 0.289004 255 0 0
0.088388 0.213388 0.095671 0.451281 0.844288 0.289004 255 0 0
0.128320 0.192044 0.095671 0.451281 0.844288 0.289004 255 0 0
0.128320 0.053152 -0.207867 0.194944 0.038777 -0.980048 255 0 0
0.138893 -0.000000 -0.207867 0.194944 0.038777 -0.980048 255 0 0
-0.048773 -0.000000 -0.245196 0.194944 0.038777 -0.980048 255 0 0
0.093833 0.226532 -0.048773 0.195090 0.980785 0.000000 255 0 0
0.000000 0.245196 0.048773 0.195090 0.980785 0.000000 255 0 0
0.093833 0.226532 0.048773 0.195090 0.980785 0.000000 255 0 0
0.136224 -0.203873 0.048773 0.770242 -0.630123 0.098348 255 0 0
0.230970 -0.095671 0.000000 0.770242 -0.630123 0.098348 255 0 0
0.192044 -0.128320 0.095671 0.770242 -0.630123 0.098348 255 0 0
-0.230970 -0.000000 0.095671 -0.862856 0.357407 0.357406 255 0 0
-0.163320 0.163320 0.095671 -0.862856 0.357407 0.357406 255 0 0
-0.230970 0.095671 0.000000 -0.862856 0.357407 0.357406 255 0 0
-0.226532 -0.045060 -0.095671 -0.893583 0.088010 -0.440185 255 0 0
-0.245196 -0.000000 -0.048773 -0.893583 0.088010 -0.440185 255 0 0
-0.213388 0.088388 -0.095671 -0.893583 0.088010 -0.440185 255 0 0
-0.045060 0.226532 -0.095671 0.168922 0.849229 -0.500275 255 0 0
0.093833 0.226532 -0.048773 0.168922 0.849229 -0.500275 255 0 0
0.128320 0.192044 -0.095671 0.168922 0.849229 -0.500275 255 0 0
-0.000000 -0.207867 0.138893 -0.151975 -0.764032 0.627024 255 0 0
-0.000000 -0.176777 0.176777 -0.151975 -0.764032 0.627024 255 0 0
-0.067650 -0.163320 0.176777 -0.151975 -0.764032 0.627024 255 0 0
-0.045060 0.226532 -0.095671 -0.463082 0.866366 -0.186990 255 0 0
-0.163320 0.163320 -0.095671 -0.463082 0.866366 -0.186990 255 0 0
-0.176777 0.176777 0.000000 -0.463082 0.866366 -0.186990 255 0 0
0.067650 -0.163320 -0.176777 0.416947 -0.342180 -0.842062 255 0 0
0.138893 -0.000000 -0.207867 0.416947 -0.342180 -0.842062 255 0 0
0.173380 -0.034488 -0.176777 0.416947 -0.342180 -0.842062 255 0 0
-0.067650 -0.163320 0.176777 -0.534475 -0.651260 0.538699 255 0 0
-0.146984 -0.098212 0.176777 -0.534475 -0.651260 0.538699 255 0 0
-0.192044 -0.128320 0.095671 -0.534475 -0.651260 0.538699 255 0 0
-0.146984 -0.098212 0.176777 -0.806220 -0.244564 0.538699 255 0 0
-0.176777 -0.000000 0.176777 -0.806220 -0.244564 0.538699 255 0 0
-0.230970 -0.000000 0.095671 -0.806220 -0.244564 0.538699 255 0 0
0.000000 -0.095671 0.230970 0.297719 -0.362772 0.883040 255 0 0
0.098212 -0.146985 0.176777 0.297719 -0.362772 0.883040 255 0 0
0.093833 -0.018665 0.230970 0.297719 -0.362772 0.883040 255 0 0
-0.226532 -0.045060 -0.095671 -0.772730 -0.320075 -0.548124 255 0 0
-0.146984 -0.098212 -0.176777 -0.772730 -0.320075 -0.548124 255 0 0
-0.192044 -0.128320 -0.095671 -0.772730 -0.320075 -0.548124 255 0 0
0.128320 0.192044 0.095671 0.631123 0.769026 0.101408 255 0 0
0.163320 0.163320 0.095671 0.631123 0.769026 0.101408 255 0 0
0.203873 0.136224 0.048773 0.631123 0.769026 0.101408 255 0 0
0.079547 0.053152 0.230970 0.143597 0.473375 0.869078 255 0 0
0.098212 0.146984 0.176777 0.143597 0.473375 0.869078 255 0 0
0.000000 0.176777 0.176777 0.143597 0.473375 0.869078 255 0 0
-0.173380 -0.034487 -0.176777 -0.838441 0.082579 -0.538699 255 0 0
-0.226532 -0.045060 -0.095671 -0.838441 0.082579 -0.538699 255 0 0
-0.213388 0.088388 -0.095671 -0.838441 0.082579 -0.538699 255 0 0
-0.036612 0.088388 -0.230970 0.122178 0.294963 -0.947665 255 0 0
0.027097 0.136224 -0.207867 0.122178 0.294963 -0.947665 255 0 0
0.077165 0.115485 -0.207867 0.122178 0.294963 -0.947665 255 0 0
-0.067650 -0.163320 -0.176777 -0.416180 -0.778617 -0.469628 255 0 0
-0.093833 -0.226532 -0.048773 -0.416180 -0.778617 -0.469628 255 0 0
-0.136224 -0.203873 -0.048773 -0.416180 -0.778617 -0.469628 255 0 0
-0.213388 0.088388 -0.095671 -0.625634 0.418036 -0.658656 255 0 0
-0.163320 0.163320 -0.095671 -0.625634 0.418036 -0.658656 255 0 0
-0.136224 0.027097 -0.207867 -0.625634 0.418036 -0.658656 255 0 0
0.176777 -0.000000 -0.176777 0.879591 0.174961 -0.442390 255 0 0
0.163320 0.067649 -0.176777 0.879591 0.174961 -0.442390 255 0 0
0.192044 0.128320 -0.095671 0.879591 0.174961 -0.442390 255 0 0
0.079547 0.053152 0.230970 0.574768 0.114328 0.810291 255 0 0
0.093833 -0.018665 0.230970 0.574768 0.114328 0.810291 255 0 0
0.173380 -0.034488 0.176777 0.574768 0.114328 0.810291 255 0 0
-0.093833 -0.226532 -0.048773 -0.097585 -0.990794 -0.093836 255 0 0
0.047835 -0.240485 -0.048773 -0.097585 -0.990794 -0.093836 255 0 0
0.048773 -0.245196 0.000000 -0.097585 -0.990794 -0.093836 255 0 0
-0.250000 -0.000000 0.000000 -0.952718 -0.289004 -0.093836 255 0 0
-0.245196 -0.000000 -0.048773 -0.952718 -0.289004 -0.093836 255 0 0
-0.207867 -0.138893 0.000000 -0.952718 -0.289004 -0.093836 255 0 0
0.093833 0.226532 0.048773 0.631123 0.769025 0.101409 255 0 0
0.128320 0.192044 0.095671 0.631123 0.769025 0.101409 255 0 0
0.203873 0.136224 0.048773 0.631123 0.769025 0.101409 255 0 0
-0.034487 0.173380 -0.176777 0.153404 0.771217 -0.617811 255 0 0
0.098212 0.146984 -0.176777 0.153404 0.771217 -0.617811 255 0 0
0.027097 0.136224 -0.207867 0.153404 0.771217 -0.617811 255 0 0
0.192044 0.128320 -0.095671 0.618908 0.507924 -0.599138 255 0 0
0.163320 0.067649 -0.176777 0.618908 0.507924 -0.599138 255 0 0
0.098212 0.146984 -0.176777 0.618908 0.507924 -0.599138 255 0 0
-0.173380 -0.034487 -0.176777 -0.772730 -0.320075 -0.548124 255 0 0
0.173380 -0.034488 0.176777 0.772730 -0.320075 0.548124 255 0 0
0.146984 -0.098212 0.176777 0.772730 -0.320075 0.548124 255 0 0
0.192044 -0.128320 0.095671 0.772730 -0.320075 0.548124 255 0 0
-0.045060 -0.226532 0.095671 -0.210107 -0.798651 0.563926 255 0 0
-0.000000 -0.207867 0.138893 -0.210107 -0.798651 0.563926 255 0 0
-0.067650 -0.163320 0.176777 -0.210107 -0.798651 0.563926 255 0 0
0.176777 -0.000000 -0.176777 0.629402 0.125196 -0.766928 255 0 0
0.138893 -0.000000 -0.207867 0.629402 0.125196 -0.766928 255 0 0
0.163320 0.067649 -0.176777 0.629402 0.125196 -0.766928 255 0 0
0.192044 -0.128320 0.095671 0.591422 -0.591422 0.548124 255 0 0
0.146984 -0.098212 0.176777 0.591422 -0.591422 0.548124 255 0 0
0.098212 -0.146985 0.176777 0.591422 -0.591422 0.548124 255 0 0
-0.207867 -0.138893 0.000000 -0.728049 -0.657766 -0.193101 255 0 0
-0.192044 -0.128320 -0.095671 -0.728049 -0.657766 -0.193101 255 0 0
-0.136224 -0.203873 -0.048773 -0.728049 -0.657766 -0.193101 255 0 0
0.000000 0.176777 0.176777 -0.179491 0.433330 0.883181 255 0 0
-0.125000 0.125000 0.176777 -0.179491 0.433330 0.883181 255 0 0
-0.045060 0.018664 0.245196 -0.179491 0.433330 0.883181 255 0 0
0.136224 -0.203873 0.048773 0.272379 -0.917714 0.289156 255 0 0
0.040553 -0.203873 0.138893 0.272379 -0.917714 0.289156 255 0 0
0.048773 -0.245196 0.000000 0.272379 -0.917714 0.289156 255 0 0
0.146984 -0.098212 0.176777 0.520169 -0.215461 0.826438 255 0 0
0.173380 -0.034488 0.176777 0.520169 -0.215461 0.826438 255 0 0
0.093833 -0.018665 0.230970 0.520169 -0.215461 0.826438 255 0 0
0.163320 0.163320 0.095671 0.528263 0.643690 0.553717 255 0 0
0.098212 0.146984 0.176777 0.528263 0.643690 0.553717 255 0 0
0.125000 0.125000 0.176777 0.528263 0.643690 0.553717 255 0 0
0.093833 0.226532 -0.048773 0.609362 0.792892 0.000000 255 0 0
0.093833 0.226532 0.048773 0.609362 0.792892 0.000000 255 0 0
0.207867 0.138893 0.000000 0.609362 0.792892 0.000000 255 0 0
-0.163320 0.163320 -0.095671 -0.816085 0.545290 -0.191480 255 0 0
-0.213388 0.088388 -0.095671 -0.816085 0.545290 -0.191480 255 0 0
-0.230970 0.095671 0.000000 -0.816085 0.545290 -0.191480 255 0 0
0.192044 -0.079548 -0.138893 0.634014 -0.634014 -0.442778 255 0 0
0.213388 -0.088388 -0.095671 0.634014 -0.634014 -0.442778 255 0 0
0.088388 -0.213388 -0.095671 0.634014 -0.634014 -0.442778 255 0 0
-0.163320 0.163320 0.095671 -0.816084 0.545291 0.191480 255 0 0
-0.176777 0.176777 0.000000 -0.816084 0.545291 0.191480 255 0 0
-0.230970 0.095671 0.000000 -0.816084 0.545291 0.191480 255 0 0
0.098212 -0.146985 0.176777 0.166187 -0.547845 0.819907 255 0 0
0.000000 -0.095671 0.230970 0.166187 -0.547845 0.819907 255 0 0
-0.000000 -0.176777 0.176777 0.166187 -0.547845 0.819907 255 0 0
-0.176777 0.176777 0.000000 -0.398266 0.898941 0.182455 255 0 0
-0.163320 0.163320 0.095671 -0.398266 0.898941 0.182455 255 0 0
0.000000 0.245196 0.048773 -0.398266 0.898941 0.182455 255 0 0
-0.250000 -0.000000 0.000000 -0.976241 0.194187 -0.096153 255 0 0
-0.230970 0.095671 0.000000 -0.976241 0.194187 -0.096153 255 0 0
-0.245196 -0.000000 -0.048773 -0.976241 0.194187 -0.096153 255 0 0
0.138893 -0.207868 0.000000 0.670993 -0.670993 -0.315493 255 0 0
0.088388 -0.213388 -0.095671 0.670993 -0.670993 -0.315493 255 0 0
0.213388 -0.088388 -0.095671 0.670993 -0.670993 -0.315493 255 0 0
0.136224 -0.203873 0.048773 0.769600 -0.631594 0.093836 255 0 0
0.138893 -0.207868 0.000000 0.769600 -0.631594 0.093836 255 0 0
0.230970 -0.095671 0.000000 0.769600 -0.631594 0.093836 255 0 0
-0.192044 -0.128320 0.095671 -0.806220 -0.244564 0.538699 255 0 0
0.136224 -0.203873 0.048773 0.544658 -0.694358 0.470334 255 0 0
0.192044 -0.128320 0.095671 0.544658 -0.694358 0.470334 255 0 0
0.098212 -0.146985 0.176777 0.544658 -0.694358 0.470334 255 0 0
-0.048773 -0.000000 -0.245196 -0.382412 0.037664 -0.923224 255 0 0
-0.138893 -0.000000 -0.207867 -0.382412 0.037664 -0.923224 255 0 0
-0.136224 0.027097 -0.207867 -0.382412 0.037664 -0.923224 255 0 0
0.093833 0.226532 -0.048773 0.048211 0.988579 -0.142781 255 0 0
-0.045060 0.226532 -0.095671 0.048211 0.988579 -0.142781 255 0 0
0.000000 0.245196 0.048773 0.048211 0.988579 -0.142781 255 0 0
0.088388 0.213388 0.095671 0.243925 0.764650 0.596499 255 0 0
0.000000 0.207867 0.138893 0.243925 0.764650 0.596499 255 0 0
0.098212 0.146984 0.176777 0.243925 0.764650 0.596499 255 0 0
0.048773 -0.245196 0.000000 0.105737 -0.951378 0.289310 255 0 0
0.040553 -0.203873 0.138893 0.105737 -0.951378 0.289310 255 0 0
-0.045060 -0.226532 0.095671 0.105737 -0.951378 0.289310 255 0 0
0.088388 -0.213388 -0.095671 0.578719 -0.619485 -0.530398 255 0 0
0.067650 -0.163320 -0.176777 0.578719 -0.619485 -0.530398 255 0 0
0.192044 -0.079548 -0.138893 0.578719 -0.619485 -0.530398 255 0 0
-0.048773 -0.000000 -0.245196 -0.281429 -0.342922 -0.896215 255 0 0
-0.067650 -0.163320 -0.176777 -0.281429 -0.342922 -0.896215 255 0 0
-0.146984 -0.098212 -0.176777 -0.281429 -0.342922 -0.896215 255 0 0
-0.226532 -0.045060 -0.095671 -0.906784 -0.375602 -0.191481 255 0 0
-0.192044 -0.128320 -0.095671 -0.906784 -0.375602 -0.191481 255 0 0
-0.207867 -0.138893 0.000000 -0.906784 -0.375602 -0.191481 255 0 0
0.088388 0.213388 0.095671 0.186990 0.940062 0.285165 255 0 0
0.093833 0.226532 0.048773 0.186990 0.940062 0.285165 255 0 0
0.000000 0.245196 0.048773 0.186990 0.940062 0.285165 255 0 0
0.067650 -0.163320 -0.176777 0.510917 -0.419299 -0.750435 255 0 0
0.173380 -0.034488 -0.176777 0.510917 -0.419299 -0.750435 255 0 0
0.192044 -0.079548 -0.138893 0.510917 -0.419299 -0.750435 255 0 0
-0.048773 -0.000000 -0.245196 -0.333541 0.194367 -0.922481 255 0 0
-0.136224 0.027097 -0.207867 -0.333541 0.194367 -0.922481 255 0 0
-0.036612 0.088388 -0.230970 -0.333541 0.194367 -0.922481 255 0 0
-0.045060 0.018664 0.245196 -0.331751 -0.244126 0.911232 255 0 0
-0.146984 -0.098212 0.176777 -0.331751 -0.244126 0.911232 255 0 0
0.000000 -0.095671 0.230970 -0.331751 -0.244126 0.911232 255 0 0
-0.067650 -0.163320 0.176777 -0.241721 -0.796849 0.553717 255 0 0
-0.088388 -0.213388 0.095671 -0.241721 -0.796849 0.553717 255 0 0
-0.045060 -0.226532 0.095671 -0.241721 -0.796849 0.553717 255 0 0
0.067650 -0.163320 -0.176777 0.188260 -0.262294 -0.946446 255 0 0
-0.048773 -0.000000 -0.245196 0.188260 -0.262294 -0.946446 255 0 0
0.138893 -0.000000 -0.207867 0.188260 -0.262294 -0.946446 255 0 0
0.048773 -0.245196 0.000000 0.380910 -0.919599 -0.096153 255 0 0
0.047835 -0.240485 -0.048773 0.380910 -0.919599 -0.096153 255 0 0
0.138893 -0.207868 0.000000 0.380910 -0.919599 -0.096153 255 0 0
-0.230970 0.095671 0.000000 -0.919004 0.278776 0.278775 255 0 0
-0.245196 -0.000000 0.048773 -0.919004 0.278776 0.278775 255 0 0
-0.230970 -0.000000 0.095671 -0.919004 0.278776 0.278775 255 0 0
-0.136224 0.027097 -0.207867 -0.705398 0.069476 -0.705398 255 0 0
-0.138893 -0.000000 -0.207867 -0.705398 0.069476 -0.705398 255 0 0
-0.173380 -0.034487 -0.176777 -0.705398 0.069476 -0.705398 255 0 0
0.128320 0.192044 -0.095671 0.166007 0.834574 -0.525289 255 0 0
0.098212 0.146984 -0.176777 0.166007 0.834574 -0.525289 255 0 0
-0.045060 0.226532 -0.095671 0.166007 0.834574 -0.525289 255 0 0
0.093833 -0.018665 0.230970 0.076595 -0.093331 0.992685 255 0 0
-0.045060 0.018664 0.245196 0.076595 -0.093331 0.992685 255 0 0
0.000000 -0.095671 0.230970 0.076595 -0.093331 0.992685 255 0 0
-0.000000 -0.176777 0.176777 0.075915 -0.770780 0.632562 255 0 0
-0.000000 -0.207867 0.138893 0.075915 -0.770780 0.632562 255 0 0
0.040553 -0.203873 0.138893 0.075915 -0.770780 0.632562 255 0 0
0.098212 0.146984 0.176777 0.392535 0.734380 0.553717 255 0 0
0.128320 0.192044 0.095671 0.392535 0.734380 0.553717 255 0 0
0.088388 0.213388 0.095671 0.392535 0.734380 0.553717 255 0 0
0.125000 0.125000 0.176777 0.342841 0.417753 0.841393 255 0 0
0.098212 0.146984 0.176777 0.342841 0.417753 0.841393 255 0 0
0.079547 0.053152 0.230970 0.342841 0.417753 0.841393 255 0 0
-0.176777 -0.000000 0.176777 -0.786151 0.325635 0.525289 255 0 0
-0.125000 0.125000 0.176777 -0.786151 0.325635 0.525289 255 0 0
-0.163320 0.163320 0.095671 -0.786151 0.325635 0.525289 255 0 0
0.067650 -0.163320 -0.176777 0.241721 -0.796849 -0.553716 255 0 0
0.088388 -0.213388 -0.095671 0.241721 -0.796849 -0.553716 255 0 0
0.045060 -0.226532 -0.095671 0.241721 -0.796849 -0.553716 255 0 0
-0.136224 -0.203873 0.048773 -0.569626 -0.694091 0.440185 255 0 0
-0.088388 -0.213388 0.095671 -0.569626 -0.694091 0.440185 255 0 0
-0.192044 -0.128320 0.095671 -0.569626 -0.694091 0.440185 255 0 0
0.136224 -0.203873 0.048773 0.380910 -0.919599 0.096153 255 0 0
0.048773 -0.245196 0.000000 0.380910 -0.919599 0.096153 255 0 0
0.138893 -0.207868 0.000000 0.380910 -0.919599 0.096153 255 0 0
0.207867 0.138893 0.000000 0.694023 0.694023 -0.191480 255 0 0
0.192044 0.128320 -0.095671 0.694023 0.694023 -0.191480 255 0 0
0.128320 0.192044 -0.095671 0.694023 0.694023 -0.191480 255 0 0
0.000000 -0.095671 0.230970 -0.109841 -0.552209 0.826438 255 0 0
-0.067650 -0.163320 0.176777 -0.109841 -0.552209 0.826438 255 0 0
-0.000000 -0.176777 0.176777 -0.109841 -0.552209 0.826438 255 0 0
-0.036612 0.088388 -0.230970 0.165578 0.134468 -0.976986 255 0 0
0.128320 0.053152 -0.207867 0.165578 0.134468 -0.976986 255 0 0
-0.048773 -0.000000 -0.245196 0.165578 0.134468 -0.976986 255 0 0
0.098212 -0.146985 0.176777 0.443370 -0.762813 0.470679 255 0 0
0.040553 -0.203873 0.138893 0.443370 -0.762813 0.470679 255 0 0
0.136224 -0.203873 0.048773 0.443370 -0.762813 0.470679 255 0 0
0.176777 -0.000000 -0.176777 0.936886 0.100240 -0.334956 255 0 0
0.192044 0.128320 -0.095671 0.936886 0.100240 -0.334956 255 0 0
0.245196 -0.048773 0.000000 0.936886 0.100240 -0.334956 255 0 0
0.192044 0.128320 -0.095671 0.964632 0.191877 -0.180744 255 0 0
0.207867 0.138893 0.000000 0.964632 0.191877 -0.180744 255 0 0
0.245196 -0.048773 0.000000 0.964632 0.191877 -0.180744 255 0 0
-0.163320 0.163320 -0.095671 -0.816084 0.545291 -0.191480 255 0 0
-0.230970 0.095671 0.000000 -0.816084 0.545291 -0.191480 255 0 0
-0.176777 0.176777 0.000000 -0.816084 0.545291 -0.191480 255 0 0
-0.245196 -0.000000 -0.048773 -0.951638 -0.290681 -0.099441 255 0 0
-0.226532 -0.045060 -0.095671 -0.951638 -0.290681 -0.099441 255 0 0
-0.207867 -0.138893 0.000000 -0.951638 -0.290681 -0.099441 255 0 0
0.000000 0.245196 0.048773 0.128353 0.916238 0.379518 255 0 0
0.000000 0.207867 0.138893 0.128353 0.916238 0.379518 255 0 0
0.088388 0.213388 0.095671 0.128353 0.916238 0.379518 255 0 0
0.245196 -0.048773 0.000000 0.911825 -0.149242 0.382493 255 0 0
0.173380 -0.034488 0.176777 0.911825 -0.149242 0.382493 255 0 0
0.192044 -0.128320 0.095671 0.911825 -0.149242 0.382493 255 0 0
0.045060 -0.226532 -0.095671 -0.094132 -0.955732 -0.278776 255 0 0
0.047835 -0.240485 -0.048773 -0.094132 -0.955732 -0.278776 255 0 0
-0.093833 -0.226532 -0.048773 -0.094132 -0.955732 -0.278776 255 0 0
0.027097 0.136224 -0.207867 -0.099172 0.536746 -0.837895 255 0 0
-0.036612 0.088388 -0.230970 -0.099172 0.536746 -0.837895 255 0 0
-0.034487 0.173380 -0.176777 -0.099172 0.536746 -0.837895 255 0 0
0.098212 0.146984 -0.176777 0.591422 0.591422 -0.548124 255 0 0
0.128320 0.192044 -0.095671 0.591422 0.591422 -0.548124 255 0 0
0.192044 0.128320 -0.095671 0.591422 0.591422 -0.548124 255 0 0
0.098212 -0.146985 0.176777 0.353646 -0.353646 0.865950 255 0 0
0.146984 -0.098212 0.176777 0.353646 -0.353646 0.865950 255 0 0
0.093833 -0.018665 0.230970 0.353646 -0.353646 0.865950 255 0 0
-0.045060 -0.226532 0.095671 -0.288788 -0.952007 0.101407 255 0 0
-0.088388 -0.213388 0.095671 -0.288788 -0.952007 0.101407 255 0 0
-0.136224 -0.203873 0.048773 -0.288788 -0.952007 0.101407 255 0 0
0.088388 -0.213388 -0.095671 0.409499 -0.897378 -0.164387 255 0 0
0.138893 -0.207868 0.000000 0.409499 -0.897378 -0.164387 255 0 0
0.047835 -0.240485 -0.048773 0.409499 -0.897378 -0.164387 255 0 0
-0.213388 0.088388 -0.095671 -0.772390 0.155063 -0.615930 255 0 0
-0.136224 0.027097 -0.207867 -0.772390 0.155063 -0.615930 255 0 0
-0.173380 -0.034487 -0.176777 -0.772390 0.155063 -0.615930 255 0 0
-0.045060 0.226532 -0.095671 -0.241721 0.796849 -0.553716 255 0 0
-0.034487 0.173380 -0.176777 -0.241721 0.796849 -0.553716 255 0 0
-0.067649 0.163320 -0.176777 -0.241721 0.796849 -0.553716 255 0 0
0.093833 -0.018665 0.230970 0.107560 0.021395 0.993968 255 0 0
0.079547 0.053152 0.230970 0.107560 0.021395 0.993968 255 0 0
-0.045060 0.018664 0.245196 0.107560 0.021395 0.993968 255 0 0
-0.136224 -0.203873 -0.048773 -0.520104 -0.693624 -0.498376 255 0 0
-0.192044 -0.128320 -0.095671 -0.520104 -0.693624 -0.498376 255 0 0
-0.067650 -0.163320 -0.176777 -0.520104 -0.693624 -0.498376 255 0 0
-0.045060 0.018664 0.245196 -0.005572 0.398470 0.917164 255 0 0
0.079547 0.053152 0.230970 -0.005572 0.398470 0.917164 255 0 0
0.000000 0.176777 0.176777 -0.005572 0.398470 0.917164 255 0 0
-0.088388 -0.213388 0.095671 -0.534475 -0.651260 0.538699 255 0 0
-0.230970 -0.000000 0.095671 -0.786151 0.325634 0.525289 255 0 0
-0.176777 -0.000000 0.176777 -0.786151 0.325634 0.525289 255 0 0
-0.163320 0.163320 0.095671 -0.786151 0.325634 0.525289 255 0 0
0.230970 -0.095671 0.000000 0.759376 -0.623204 -0.186990 255 0 0
0.138893 -0.207868 0.000000 0.759376 -0.623204 -0.186990 255 0 0
0.213388 -0.088388 -0.095671 0.759376 -0.623204 -0.186990 255 0 0
-0.192044 -0.128320 0.095671 -0.728050 -0.657766 0.193101 255 0 0
-0.207867 -0.138893 0.000000 -0.728050 -0.657766 0.193101 255 0 0
-0.136224 -0.203873 0.048773 -0.728050 -0.657766 0.193101 255 0 0
0.192044 -0.128320 0.095671 0.919003 -0.278777 0.278777 255 0 0
0.230970 -0.095671 0.000000 0.919003 -0.278777 0.278777 255 0 0
0.245196 -0.048773 0.000000 0.919003 -0.278777 0.278777 255 0 0
0.173380 -0.034488 0.176777 0.815090 0.247255 0.523920 255 0 0
0.203873 0.136224 0.048773 0.815090 0.247255 0.523920 255 0 0
0.125000 0.125000 0.176777 0.815090 0.247255 0.523920 255 0 0
0.098212 0.146984 -0.176777 0.245581 0.592884 -0.766928 255 0 0
0.077165 0.115485 -0.207867 0.245581 0.592884 -0.766928 255 0 0
0.027097 0.136224 -0.207867 0.245581 0.592884 -0.766928 255 0 0
0.047835 -0.240485 -0.048773 0.277898 -0.916106 -0.289003 255 0 0
0.045060 -0.226532 -0.095671 0.277898 -0.916106 -0.289003 255 0 0
0.088388 -0.213388 -0.095671 0.277898 -0.916106 -0.289003 255 0 0
0.000000 0.245196 0.048773 -0.358857 0.933353 -0.008658 255 0 0
-0.045060 0.226532 -0.095671 -0.358857 0.933353 -0.008658 255 0 0
-0.176777 0.176777 0.000000 -0.358857 0.933353 -0.008658 255 0 0
-0.163320 0.163320 -0.095671 -0.578476 0.446938 -0.682358 255 0 0
-0.067649 0.163320 -0.176777 -0.578476 0.446938 -0.682358 255 0 0
-0.136224 0.027097 -0.207867 -0.578476 0.446938 -0.682358 255 0 0
0.128320 0.192044 -0.095671 0.632732 0.767960 -0.099442 255 0 0
0.093833 0.226532 -0.048773 0.632732 0.767960 -0.099442 255 0 0
0.207867 0.138893 0.000000 0.632732 0.767960 -0.099442 255 0 0
0.000000 0.207867 0.138893 -0.333097 0.871119 0.360829 255 0 0
0.000000 0.245196 0.048773 -0.333097 0.871119 0.360829 255 0 0
-0.163320 0.163320 0.095671 -0.333097 0.871119 0.360829 255 0 0
0.077165 0.115485 -0.207867 0.165896 0.136148 -0.976700 255 0 0
0.128320 0.053152 -0.207867 0.165896 0.136148 -0.976700 255 0 0
-0.036612 0.088388 -0.230970 0.165896 0.136148 -0.976700 255 0 0
0.048773 -0.245196 0.000000 -0.146199 -0.988023 0.049365 255 0 0
-0.045060 -0.226532 0.095671 -0.146199 -0.988023 0.049365 255 0 0
-0.093833 -0.226532 -0.048773 -0.146199 -0.988023 0.049365 255 0 0
-0.034487 0.173380 -0.176777 0.166007 0.834574 -0.525289 255 0 0
0.067650 -0.163320 -0.176777 -0.000000 -0.386393 -0.922334 255 0 0
-0.067650 -0.163320 -0.176777 -0.000000 -0.386393 -0.922334 255 0 0
-0.048773 -0.000000 -0.245196 -0.000000 -0.386393 -0.922334 255 0 0
0.128320 0.053152 -0.207867 0.503226 0.412986 -0.759082 255 0 0
0.077165 0.115485 -0.207867 0.503226 0.412986 -0.759082 255 0 0
0.098212 0.146984 -0.176777 0.503226 0.412986 -0.759082 255 0 0
0.128320 0.053152 -0.207867 0.629402 0.125196 -0.766928 255 0 0
-0.192044 -0.128320 -0.095671 -0.534475 -0.651260 -0.538699 255 0 0
-0.146984 -0.098212 -0.176777 -0.534475 -0.651260 -0.538699 255 0 0
-0.067650 -0.163320 -0.176777 -0.534475 -0.651260 -0.538699 255 0 0
-0.230970 0.095671 0.000000 -0.951395 0.239916 -0.193101 255 0 0
-0.213388 0.088388 -0.095671 -0.951395 0.239916 -0.193101 255 0 0
-0.245196 -0.000000 -0.048773 -0.951395 0.239916 -0.193101 255 0 0
0.040553 -0.203873 0.138893 0.205757 -0.678291 0.705398 255 0 0
0.098212 -0.146985 0.176777 0.205757 -0.678291 0.705398 255 0 0
-0.000000 -0.176777 0.176777 0.205757 -0.678291 0.705398 255 0 0
-0.136224 -0.203873 0.048773 -0.471397 -0.881921 0.000000 255 0 0
-0.136224 -0.203873 -0.048773 -0.471397 -0.881921 0.000000 255 0 0
-0.093833 -0.226532 -0.048773 -0.471397 -0.881921 0.000000 255 0 0
-0.245196 -0.000000 0.048773 -0.952718 -0.289003 0.093836 255 0 0
-0.250000 -0.000000 0.000000 -0.952718 -0.289003 0.093836 255 0 0
-0.207867 -0.138893 0.000000 -0.952718 -0.289003 0.093836 255 0 0
-0.093833 -0.226532 -0.048773 -0.156287 -0.872549 -0.462853 255 0 0
-0.067650 -0.163320 -0.176777 -0.156287 -0.872549 -0.462853 255 0 0
0.045060 -0.226532 -0.095671 -0.156287 -0.872549 -0.462853 255 0 0
-0.125000 0.125000 0.176777 -0.350864 0.771734 0.530398 255 0 0
0.000000 0.207867 0.138893 -0.350864 0.771734 0.530398 255 0 0
-0.163320 0.163320 0.095671 -0.350864 0.771734 0.530398 255 0 0
0.000000 0.207867 0.138893 0.228298 0.752596 0.617640 255 0 0
0.000000 0.176777 0.176777 0.228298 0.752596 0.617640 255 0 0
0.098212 0.146984 0.176777 0.228298 0.752596 0.617640 255 0 0
0.213388 -0.088388 -0.095671 0.936734 0.074081 -0.342114 255 0 0
0.176777 -0.000000 -0.176777 0.936734 0.074081 -0.342114 255 0 0
0.245196 -0.048773 0.000000 0.936734 0.074081 -0.342114 255 0 0
0.230970 -0.095671 0.000000 0.938725 -0.284759 -0.194187 255 0 0
0.213388 -0.088388 -0.095671 0.938725 -0.284759 -0.194187 255 0 0
0.245196 -0.048773 0.000000 0.938725 -0.284759 -0.194187 255 0 0
0.192044 -0.079548 -0.138893 0.850770 -0.083794 -0.518815 255 0 0
0.173380 -0.034488 -0.176777 0.850770 -0.083794 -0.518815 255 0 0
0.176777 -0.000000 -0.176777 0.850770 -0.083794 -0.518815 255 0 0
0.203873 0.136224 0.048773 0.800493 0.298952 0.519459 255 0 0
0.163320 0.163320 0.095671 0.800493 0.298952 0.519459 255 0 0
0.125000 0.125000 0.176777 0.800493 0.298952 0.519459 255 0 0
-0.067650 -0.163320 -0.176777 -0.000000 -0.788743 -0.614723 255 0 0
0.067650 -0.163320 -0.176777 -0.000000 -0.788743 -0.614723 255 0 0
0.045060 -0.226532 -0.095671 -0.000000 -0.788743 -0.614723 255 0 0
0.245196 -0.048773 0.000000 0.923929 0.109761 0.366481 255 0 0
0.203873 0.136224 0.048773 0.923929 0.109761 0.366481 255 0 0
0.173380 -0.034488 0.176777 0.923929 0.109761 0.366481 255 0 0
-0.138893 -0.000000 -0.207867 -0.370285 -0.252486 -0.893946 255 0 0
-0.048773 -0.000000 -0.245196 -0.370285 -0.252486 -0.893946 255 0 0
-0.146984 -0.098212 -0.176777 -0.370285 -0.252486 -0.893946 255 0 0
-0.045060 0.226532 -0.095671 -0.411988 0.770776 -0.485973 255 0 0
-0.067649 0.163320 -0.176777 -0.411988 0.770776 -0.485973 255 0 0
-0.163320 0.163320 -0.095671 -0.411988 0.770776 -0.485973 255 0 0
-0.036612 0.088388 -0.230970 -0.161812 0.533422 -0.830228 255 0 0
-0.067649 0.163320 -0.176777 -0.161812 0.533422 -0.830228 255 0 0
-0.034487 0.173380 -0.176777 -0.161812 0.533422 -0.830228 255 0 0
-0.125000 0.125000 0.176777 -0.304941 0.736193 0.604178 255 0 0
0.000000 0.176777 0.176777 -0.304941 0.736193 0.604178 255 0 0
0.000000 0.207867 0.138893 -0.304941 0.736193 0.604178 255 0 0
-0.146984 -0.098212 0.176777 -0.313819 -0.382389 0.869078 255 0 0
-0.067650 -0.163320 0.176777 -0.313819 -0.382389 0.869078 255 0 0
0.000000 -0.095671 0.230970 -0.313819 -0.382389 0.869078 255 0 0
-0.136224 -0.203873 0.048773 -0.671824 -0.740711 0.000000 255 0 0
-0.207867 -0.138893 0.000000 -0.671824 -0.740711 0.000000 255 0 0
-0.136224 -0.203873 -0.048773 -0.671824 -0.740711 0.000000 255 0 0
-0.176777 -0.000000 0.176777 -0.441786 -0.134014 0.887054 255 0 0
-0.146984 -0.098212 0.176777 -0.441786 -0.134014 0.887054 255 0 0
-0.045060 0.018664 0.245196 -0.441786 -0.134014 0.887054 255 0 0
0.203873 0.136224 0.048773 0.631594 0.769600 0.093835 255 0 0
0.207867 0.138893 0.000000 0.631594 0.769600 0.093835 255 0 0
0.093833 0.226532 0.048773 0.631594 0.769600 0.093835 255 0 0
0.245196 -0.048773 0.000000 0.976750 0.194288 0.090620 255 0 0
0.207867 0.138893 0.000000 0.976750 0.194288 0.090620 255 0 0
0.203873 0.136224 0.048773 0.976750 0.194288 0.090620 255 0 0
-0.067649 0.163320 -0.176777 -0.434586 0.402636 -0.805617 255 0 0
-0.036612 0.088388 -0.230970 -0.434586 0.402636 -0.805617 255 0 0
-0.136224 0.027097 -0.207867 -0.434586 0.402636 -0.805617 255 0 0
3 0 1 2
3 3 4 5
3 6 7 8
3 9 10 11
3 12 13 14
3 15 16 17
3 18 19 20
3 21 22 23
3 24 25 26
3 27 28 29
3 30 31 32
3 33 34 35
3 36 37 38
3 39 40 41
3 42 43 44
3 45 46 47
3 48 49 50
3 51 52 53
3 54 55 56
3 57 58 59
3 60 61 62
3 63 64 65
3 66 67 68
3 69 70 71
3 72 73 74
3 75 76 77
3 78 79 80
3 81 82 83
3 84 85 86
3 87 88 89
3 90 91 92
3 93 94 95
3 96 97 98
3 99 100 101
3 102 103 104
3 105 106 107
3 108 109 110
3 111 112 113
3 114 115 116
3 75 117 76
3 118 119 120
3 121 122 123
3 124 125 126
3 127 128 129
3 130 131 132
3 133 134 135
3 136 137 138
3 139 140 141
3 142 143 144
3 145 146 147
3 148 149 150
3 151 152 153
3 154 155 156
3 157 158 159
3 160 161 162
3 163 164 165
3 166 167 168
3 169 170 171
3 69 71 172
3 173 174 175
3 176 177 178
3 179 180 181
3 182 183 184
3 185 186 187
3 188 189 190
3 191 192 193
3 194 195 196
3 197 198 199
3 200 201 202
3 203 204 205
3 206 207 208
3 209 210 211
3 212 213 214
3 215 216 217
3 218 219 220
3 221 222 223
3 224 225 226
3 227 228 229
3 230 231 232
3 233 234 235
3 236 237 238
3 239 240 241
3 242 243 244
3 245 246 247
3 248 249 250
3 251 252 253
3 254 255 256
3 257 258 259
3 260 261 262
3 263 264 265
3 266 267 268
3 269 270 271
3 272 273 274
3 275 276 277
3 278 279 280
3 281 282 283
3 284 285 286
3 287 288 289
3 290 291 292
3 293 294 295
3 296 297 298
3 299 300 301
3 302 303 304
3 305 306 307
3 308 309 310
3 311 312 313
3 314 66 68
3 315 316 317
3 318 319 320
3 321 322 323
3 324 325 326
3 327 328 329
3 330 331 332
3 333 334 335
3 336 337 338
3 339 340 341
3 342 343 344
3 345 346 347
3 348 349 350
3 351 352 353
3 225 354 226
3 355 356 357
3 358 359 360
3 125 361 126
3 362 363 364
3 365 366 367
3 368 369 370
3 371 372 373
3 374 375 376
3 377 378 379
3 380 381 382
3 383 384 385
3 386 387 388
3 389 390 391
3 392 393 394
3 395 396 397
3 398 399 400
3 401 402 403
3 404 405 406
3 407 408 409
3 410 411 412
3 413 414 415
3 416 417 418
3 419 420 421
3 422 423 424
3 425 426 427
3 428 429 430
3 431 432 433
