ply
format ascii 1.0
comment Created by Blender 2.79 (sub 0) - www.blender.org, source file: 'Earth.blend'
element vertex 606
property float x
property float y
property float z
property float nx
property float ny
property float nz
property uchar red
property uchar green
property uchar blue
element face 210
property list uchar uint vertex_indices
end_header
0.097545 -0.490393 0.000000 -0.181512 -0.966492 0.181510 0 10 255
0.090120 -0.453064 0.191342 -0.181512 -0.966492 0.181510 3 24 244
-0.000000 -0.490393 -0.097545 -0.181512 -0.966492 0.181510 0 10 255
-0.054193 0.081106 0.490393 -0.469083 0.423443 0.775020 255 250 247
0.000000 0.277785 0.415735 -0.469083 0.423443 0.775020 11 218 39
-0.326641 0.326641 0.191342 -0.469083 0.423443 0.775020 49 255 50
0.256640 0.106304 0.415735 0.338889 0.181140 0.923224 0 10 255
0.230970 0.154329 0.415735 0.338889 0.181140 0.923224 0 10 255
0.081106 0.054193 0.490393 0.338889 0.181140 0.923224 255 250 247
-0.135299 -0.326641 -0.353553 -0.365102 -0.683057 -0.632562 22 100 185
-0.159095 -0.384089 -0.277785 -0.365102 -0.683057 -0.632562 4 27 241
-0.230970 -0.345671 -0.277785 -0.365102 -0.683057 -0.632562 49 210 96
0.407747 0.272447 0.097545 0.984824 0.146973 0.092309 95 214 85
0.453064 -0.090120 0.191342 0.984824 0.146973 0.092309 58 254 62
0.480970 -0.095671 -0.097545 0.984824 0.146973 0.092309 38 130 159
0.081106 -0.407747 0.277785 0.338933 -0.818256 0.464307 22 104 181
0.090120 -0.453064 0.191342 0.338933 -0.818256 0.464307 3 24 244
0.256640 -0.384089 0.191342 0.338933 -0.818256 0.464307 58 255 61
0.196424 0.293969 -0.353553 0.226537 0.488382 -0.842712 226 219 53
0.135299 0.135299 -0.461940 0.226537 0.488382 -0.842712 169 237 182
0.000000 0.277785 -0.415735 0.226537 0.488382 -0.842712 7 44 229
-0.453064 -0.090120 -0.191342 -0.838405 -0.456256 -0.298175 57 227 83
-0.345671 -0.230970 -0.277785 -0.838405 -0.456256 -0.298175 255 212 51
-0.346760 -0.346760 -0.097545 -0.838405 -0.456256 -0.298175 0 10 255
0.154329 -0.230970 0.415735 0.507095 -0.290954 0.811296 4 27 241
0.346760 -0.068975 0.353553 0.507095 -0.290954 0.811296 10 49 224
0.135299 -0.135299 0.461940 0.507095 -0.290954 0.811296 163 164 251
0.346760 -0.068975 -0.353553 0.592884 -0.245580 -0.766928 56 249 66
0.293969 -0.196424 -0.353553 0.592884 -0.245580 -0.766928 58 255 61
0.230970 -0.154329 -0.415735 0.592884 -0.245580 -0.766928 58 245 70
0.293969 -0.196424 -0.353553 0.473467 -0.473467 -0.742737 58 255 61
0.196424 -0.293969 -0.353553 0.473467 -0.473467 -0.742737 22 103 181
0.196424 -0.196424 -0.415735 0.473467 -0.473467 -0.742737 47 205 102
-0.345671 -0.230970 -0.277785 -0.642757 -0.642757 -0.416805 255 212 51
-0.230970 -0.345671 -0.277785 -0.642757 -0.642757 -0.416805 49 210 96
-0.346760 -0.346760 -0.097545 -0.642757 -0.642757 -0.416805 0 10 255
0.097545 0.490393 0.000000 0.288900 0.952376 -0.097550 248 213 52
0.191342 0.461940 0.000000 0.288900 0.952376 -0.097550 168 229 56
0.187665 0.453064 -0.097545 0.288900 0.952376 -0.097550 220 220 53
-0.068975 -0.346760 -0.353553 -0.103743 -0.372478 -0.922224 1 16 250
-0.097545 -0.000000 -0.490393 -0.103743 -0.372478 -0.922224 255 250 247
0.135299 -0.135299 -0.461940 -0.103743 -0.372478 -0.922224 180 216 213
0.346760 -0.068975 0.353553 0.472108 -0.069037 0.878833 10 49 224
0.256640 0.106304 0.415735 0.472108 -0.069037 0.878833 0 10 255
0.135299 -0.135299 0.461940 0.472108 -0.069037 0.878833 163 164 251
0.384089 0.256640 0.191342 0.734381 0.392534 0.553717 58 255 61
0.293969 0.196424 0.353553 0.734381 0.392534 0.553717 20 91 190
0.326641 0.135299 0.353553 0.734381 0.392534 0.553717 17 84 197
0.000000 0.097545 0.490393 0.172067 0.321916 0.931001 255 250 247
0.081106 0.054193 0.490393 0.172067 0.321916 0.931001 255 250 247
0.106304 0.256640 0.415735 0.172067 0.321916 0.931001 3 61 202
-0.054193 0.081106 0.490393 -0.039013 -0.128607 0.990928 255 250 247
-0.159095 -0.106304 0.461940 -0.039013 -0.128607 0.990928 178 177 250
0.073223 -0.176777 0.461940 -0.039013 -0.128607 0.990928 158 159 250
0.081106 0.407747 -0.277785 0.075913 0.770780 -0.632562 4 27 241
0.068975 0.346760 -0.353553 0.075913 0.770780 -0.632562 5 30 239
0.000000 0.353553 -0.353553 0.075913 0.770780 -0.632562 1 14 252
0.081106 0.054193 0.490393 -0.000000 0.000000 1.000000 255 250 247
0.000000 0.097545 0.490393 -0.000000 0.000000 1.000000 255 250 247
-0.054193 0.081106 0.490393 -0.000000 0.000000 1.000000 255 250 247
-0.187665 -0.453064 -0.097545 -0.435821 -0.815363 -0.381109 0 10 255
-0.272448 -0.407747 -0.097545 -0.435821 -0.815363 -0.381109 0 10 255
-0.159095 -0.384089 -0.277785 -0.435821 -0.815363 -0.381109 4 27 241
0.230970 -0.154329 -0.415735 0.365764 -0.300175 -0.880972 58 245 70
0.196424 -0.196424 -0.415735 0.365764 -0.300175 -0.880972 47 205 102
0.135299 -0.135299 -0.461940 0.365764 -0.300175 -0.880972 180 216 213
0.187665 -0.037329 -0.461940 0.305960 0.060859 -0.950097 174 232 191
0.095671 -0.019030 -0.490393 0.305960 0.060859 -0.950097 255 250 247
0.159095 0.106304 -0.461940 0.305960 0.060859 -0.950097 163 219 195
0.196424 0.293969 -0.353553 0.491344 0.598704 -0.632563 226 219 53
0.230970 0.345671 -0.277785 0.491344 0.598704 -0.632563 254 212 51
0.250000 0.250000 -0.353553 0.491344 0.598704 -0.632563 250 213 51
0.196424 -0.293969 0.353553 0.205757 -0.678290 0.705398 43 194 110
0.106304 -0.256640 0.415735 0.205757 -0.678290 0.705398 6 39 233
0.081106 -0.407747 0.277785 0.205757 -0.678290 0.705398 22 104 181
0.326641 0.326641 0.191342 0.452709 0.846958 0.278776 58 255 61
0.346760 0.346760 0.097545 0.452709 0.846958 0.278776 61 197 103
0.191342 0.461940 0.000000 0.452709 0.846958 0.278776 168 229 56
-0.415735 -0.277785 0.000000 -0.846958 -0.452709 -0.278777 0 10 255
-0.453064 -0.090120 -0.191342 -0.846958 -0.452709 -0.278777 57 227 83
-0.346760 -0.346760 -0.097545 -0.846958 -0.452709 -0.278777 0 10 255
-0.346760 0.068975 -0.353553 -0.815361 0.000000 -0.578954 25 117 171
-0.346760 -0.068975 -0.353553 -0.815361 0.000000 -0.578954 244 215 52
-0.461940 -0.000000 -0.191342 -0.815361 0.000000 -0.578954 24 113 173
0.453064 -0.090120 -0.191342 0.916106 -0.277898 -0.289003 51 229 82
0.480970 -0.095671 -0.097545 0.916106 -0.277898 -0.289003 38 130 159
0.453064 -0.187665 -0.097545 0.916106 -0.277898 -0.289003 190 226 54
0.081106 0.054193 0.490393 -0.024151 -0.121417 0.992308 255 250 247
-0.054193 0.081106 0.490393 -0.024151 -0.121417 0.992308 255 250 247
0.073223 -0.176777 0.461940 -0.024151 -0.121417 0.992308 158 159 250
-0.159095 -0.106304 0.461940 -0.424517 -0.128776 0.896215 178 177 250
-0.191342 -0.000000 0.461940 -0.424517 -0.128776 0.896215 230 226 248
-0.256640 -0.106304 0.415735 -0.424517 -0.128776 0.896215 0 10 255
0.384089 -0.256640 -0.191342 0.591422 -0.591422 -0.548124 65 253 61
0.256640 -0.384089 -0.191342 0.591422 -0.591422 -0.548124 3 23 245
0.196424 -0.293969 -0.353553 0.591422 -0.591422 -0.548124 22 103 181
-0.461940 -0.000000 0.191342 -0.940062 -0.285164 0.186990 58 255 61
-0.500000 -0.000000 0.000000 -0.940062 -0.285164 0.186990 45 203 103
-0.415735 -0.277785 0.000000 -0.940062 -0.285164 0.186990 0 10 255
-0.326641 0.326641 0.191342 -0.368486 0.889603 0.269858 49 255 50
0.000000 0.461940 0.191342 -0.368486 0.889603 0.269858 57 255 60
0.000000 0.490393 0.097545 -0.368486 0.889603 0.269858 58 255 61
0.384089 0.256640 -0.191342 0.834574 0.166007 -0.525289 255 212 51
0.453064 -0.090120 -0.191342 0.834574 0.166007 -0.525289 51 229 82
0.346760 -0.068975 -0.353553 0.834574 0.166007 -0.525289 56 249 66
0.230970 0.345671 -0.277785 0.338933 0.818257 -0.464306 254 212 51
0.081106 0.407747 -0.277785 0.338933 0.818257 -0.464306 4 27 241
0.090120 0.453064 -0.191342 0.338933 0.818257 -0.464306 209 213 60
-0.293969 -0.196424 -0.353553 -0.283531 -0.345483 -0.894568 255 212 51
-0.191342 -0.000000 -0.461940 -0.283531 -0.345483 -0.894568 200 198 249
-0.135299 -0.326641 -0.353553 -0.283531 -0.345483 -0.894568 22 100 185
-0.326641 0.326641 -0.191342 -0.267084 0.880457 -0.391741 9 50 222
0.090120 0.453064 -0.191342 -0.267084 0.880457 -0.391741 209 213 60
-0.196424 0.293969 -0.353553 -0.267084 0.880457 -0.391741 0 10 255
-0.230970 -0.345671 -0.277785 -0.550837 -0.550836 -0.627023 49 210 96
-0.345671 -0.230970 -0.277785 -0.550837 -0.550836 -0.627023 255 212 51
-0.293969 -0.196424 -0.353553 -0.550837 -0.550836 -0.627023 255 212 51
-0.097545 -0.000000 -0.490393 -0.000000 0.000000 -1.000000 255 250 247
0.019030 0.095671 -0.490393 -0.000000 0.000000 -1.000000 255 250 247
0.095671 -0.019030 -0.490393 -0.000000 0.000000 -1.000000 255 250 247
-0.230970 -0.345671 -0.277785 -0.586516 -0.714671 -0.381109 49 210 96
-0.272448 -0.407747 -0.097545 -0.586516 -0.714671 -0.381109 0 10 255
-0.346760 -0.346760 -0.097545 -0.586516 -0.714671 -0.381109 0 10 255
0.293969 0.293969 -0.277785 0.721101 0.329313 -0.609563 255 212 51
0.384089 0.256640 -0.191342 0.721101 0.329313 -0.609563 255 212 51
0.250000 0.250000 -0.353553 0.721101 0.329313 -0.609563 250 213 51
-0.426777 0.176777 0.191342 -0.831470 0.555570 0.000000 52 255 53
-0.326641 0.326641 0.191342 -0.831470 0.555570 0.000000 49 255 50
-0.326641 0.326641 -0.191342 -0.831470 0.555570 0.000000 9 50 222
-0.272447 0.054193 -0.415735 -0.574126 0.306877 -0.759083 5 32 237
-0.346760 0.068975 -0.353553 -0.574126 0.306877 -0.759083 25 117 171
-0.250000 0.250000 -0.353553 -0.574126 0.306877 -0.759083 0 10 255
0.453064 -0.187665 -0.097545 0.844288 -0.451281 -0.289003 190 226 54
0.407747 -0.272448 -0.097545 0.844288 -0.451281 -0.289003 243 215 52
0.384089 -0.256640 -0.191342 0.844288 -0.451281 -0.289003 65 253 61
0.256640 -0.384089 0.191342 0.372585 -0.745579 0.552533 58 255 61
0.196424 -0.293969 0.353553 0.372585 -0.745579 0.552533 43 194 110
0.081106 -0.407747 0.277785 0.372585 -0.745579 0.552533 22 104 181
0.346760 -0.068975 -0.353553 0.772730 -0.320075 -0.548124 56 249 66
0.453064 -0.090120 -0.191342 0.772730 -0.320075 -0.548124 51 229 82
0.384089 -0.256640 -0.191342 0.772730 -0.320075 -0.548124 65 253 61
0.277785 -0.415735 0.000000 0.657766 -0.728049 -0.193101 0 10 255
0.256640 -0.384089 -0.191342 0.657766 -0.728049 -0.193101 3 23 245
0.407747 -0.272448 -0.097545 0.657766 -0.728049 -0.193101 243 215 52
-0.326641 0.326641 -0.191342 -0.448159 0.893954 0.000000 9 50 222
-0.326641 0.326641 0.191342 -0.448159 0.893954 0.000000 49 255 50
0.000000 0.490393 0.097545 -0.448159 0.893954 0.000000 58 255 61
-0.326641 -0.135299 0.353553 -0.782675 -0.077087 0.617639 5 28 241
-0.346760 0.068975 0.353553 -0.782675 -0.077087 0.617639 17 162 109
-0.407746 0.081106 0.277785 -0.782675 -0.077087 0.617639 40 254 38
0.415735 0.277785 0.000000 0.758296 0.622317 -0.194186 254 212 51
0.384089 0.256640 -0.191342 0.758296 0.622317 -0.194186 255 212 51
0.326641 0.326641 -0.191342 0.758296 0.622317 -0.194186 255 212 51
0.000000 0.277785 -0.415735 -0.188974 0.622962 -0.759083 7 44 229
-0.154329 0.230970 -0.415735 -0.188974 0.622962 -0.759083 0 10 255
-0.196424 0.293969 -0.353553 -0.188974 0.622962 -0.759083 0 10 255
0.346760 -0.068975 0.353553 0.647860 0.063809 0.759082 10 49 224
0.326641 0.135299 0.353553 0.647860 0.063809 0.759082 17 84 197
0.256640 0.106304 0.415735 0.647860 0.063809 0.759082 0 10 255
0.090120 0.453064 -0.191342 0.277898 0.916106 -0.289004 209 213 60
0.095671 0.480970 -0.097545 0.277898 0.916106 -0.289004 255 212 51
0.187665 0.453064 -0.097545 0.277898 0.916106 -0.289004 220 220 53
0.095671 -0.019030 -0.490393 0.266496 -0.142445 -0.953252 255 250 247
0.187665 -0.037329 -0.461940 0.266496 -0.142445 -0.953252 174 232 191
0.135299 -0.135299 -0.461940 0.266496 -0.142445 -0.953252 180 216 213
-0.000000 -0.353554 0.353553 0.205757 -0.678290 0.705398 8 43 229
-0.230970 -0.154329 0.415735 -0.261343 -0.488938 0.832250 0 10 255
-0.068975 -0.346760 0.353553 -0.261343 -0.488938 0.832250 3 22 246
0.000000 -0.277785 0.415735 -0.261343 -0.488938 0.832250 5 29 239
0.326641 0.326641 -0.191342 0.682463 0.560083 -0.469628 255 212 51
0.384089 0.256640 -0.191342 0.682463 0.560083 -0.469628 255 212 51
0.293969 0.293969 -0.277785 0.682463 0.560083 -0.469628 255 212 51
-0.326641 0.326641 0.191342 -0.736411 0.492054 0.464308 49 255 50
-0.426777 0.176777 0.191342 -0.736411 0.492054 0.464308 52 255 53
-0.384089 0.159095 0.277785 -0.736411 0.492054 0.464308 16 249 11
-0.097545 -0.000000 -0.490393 -0.024170 -0.245397 -0.969121 255 250 247
0.095671 -0.019030 -0.490393 -0.024170 -0.245397 -0.969121 255 250 247
0.135299 -0.135299 -0.461940 -0.024170 -0.245397 -0.969121 180 216 213
-0.346760 0.068975 0.353553 -0.647860 -0.063809 0.759082 17 162 109
-0.326641 -0.135299 0.353553 -0.647860 -0.063809 0.759082 5 28 241
-0.256640 -0.106304 0.415735 -0.647860 -0.063809 0.759082 0 10 255
0.196424 -0.293969 0.353553 0.299913 -0.561098 0.771506 43 194 110
0.154329 -0.230970 0.415735 0.299913 -0.561098 0.771506 4 27 241
0.106304 -0.256640 0.415735 0.299913 -0.561098 0.771506 6 39 233
0.230970 0.345671 -0.277785 0.386387 0.830204 -0.401829 254 212 51
0.090120 0.453064 -0.191342 0.386387 0.830204 -0.401829 209 213 60
0.187665 0.453064 -0.097545 0.386387 0.830204 -0.401829 220 220 53
-0.097545 -0.000000 -0.490393 -0.113078 -0.372768 -0.921009 255 250 247
-0.068975 -0.346760 -0.353553 -0.113078 -0.372768 -0.921009 1 16 250
-0.135299 -0.326641 -0.353553 -0.113078 -0.372768 -0.921009 22 100 185
-0.353553 -0.353553 0.000000 -0.769324 -0.631367 -0.097551 0 10 255
-0.415735 -0.277785 0.000000 -0.769324 -0.631367 -0.097551 0 10 255
-0.346760 -0.346760 -0.097545 -0.769324 -0.631367 -0.097551 0 10 255
-0.293969 -0.196424 0.353553 -0.815363 -0.435820 0.381109 0 10 255
-0.326641 -0.135299 0.353553 -0.815363 -0.435820 0.381109 5 28 241
-0.415735 -0.277785 0.000000 -0.815363 -0.435820 0.381109 0 10 255
0.293969 0.196424 0.353553 0.643690 0.528263 0.553717 20 91 190
0.384089 0.256640 0.191342 0.643690 0.528263 0.553717 58 255 61
0.326641 0.326641 0.191342 0.643690 0.528263 0.553717 58 255 61
0.068975 0.346760 -0.353553 0.217332 0.524687 -0.823086 5 30 239
0.196424 0.293969 -0.353553 0.217332 0.524687 -0.823086 226 219 53
0.000000 0.277785 -0.415735 0.217332 0.524687 -0.823086 7 44 229
0.407747 0.272447 0.097545 0.740025 0.607322 0.289004 95 214 85
0.346760 0.346760 0.097545 0.740025 0.607322 0.289004 61 197 103
0.326641 0.326641 0.191342 0.740025 0.607322 0.289004 58 255 61
-0.293969 -0.196424 0.353553 -0.368963 -0.552193 0.747629 0 10 255
-0.068975 -0.346760 0.353553 -0.368963 -0.552193 0.747629 3 22 246
-0.230970 -0.154329 0.415735 -0.368963 -0.552193 0.747629 0 10 255
0.256640 -0.384089 0.191342 0.651260 -0.534475 0.538699 58 255 61
0.426777 -0.176777 0.191342 0.651260 -0.534475 0.538699 58 255 61
0.196424 -0.293969 0.353553 0.651260 -0.534475 0.538699 43 194 110
-0.407746 0.081106 0.277785 -0.844847 0.256282 0.469630 40 254 38
-0.384089 0.159095 0.277785 -0.844847 0.256282 0.469630 16 249 11
-0.426777 0.176777 0.191342 -0.844847 0.256282 0.469630 52 255 53
0.000000 0.277785 0.415735 -0.304942 0.736193 0.604178 11 218 39
0.000000 0.461940 0.191342 -0.304942 0.736193 0.604178 57 255 60
-0.326641 0.326641 0.191342 -0.304942 0.736193 0.604178 49 255 50
0.095671 0.480970 0.097545 0.452709 0.846958 0.278777 62 252 62
0.326641 0.326641 0.191342 0.452709 0.846958 0.278777 58 255 61
0.191342 0.461940 0.000000 0.452709 0.846958 0.278777 168 229 56
0.000000 0.461940 0.191342 0.012428 0.772951 0.634344 57 255 60
0.000000 0.277785 0.415735 0.012428 0.772951 0.634344 11 218 39
0.135299 0.326641 0.353553 0.012428 0.772951 0.634344 12 217 41
-0.326641 -0.135299 0.353553 -0.561098 -0.299913 0.771506 5 28 241
-0.293969 -0.196424 0.353553 -0.561098 -0.299913 0.771506 0 10 255
-0.230970 -0.154329 0.415735 -0.561098 -0.299913 0.771506 0 10 255
0.256640 -0.384089 0.191342 0.375602 -0.906785 0.191481 58 255 61
0.090120 -0.453064 0.191342 0.375602 -0.906785 0.191481 3 24 244
0.277785 -0.415735 0.000000 0.375602 -0.906785 0.191481 0 10 255
0.230970 0.345671 -0.277785 0.491344 0.598704 -0.632562 254 212 51
0.293969 0.293969 -0.277785 0.491344 0.598704 -0.632562 255 212 51
0.250000 0.250000 -0.353553 0.491344 0.598704 -0.632562 250 213 51
-0.191342 -0.000000 0.461940 -0.403122 0.391487 0.827182 230 226 248
-0.054193 0.081106 0.490393 -0.403122 0.391487 0.827182 255 250 247
-0.346760 0.068975 0.353553 -0.403122 0.391487 0.827182 17 162 109
0.256640 -0.384089 -0.191342 0.420914 -0.886309 -0.193102 3 23 245
0.277785 -0.415735 0.000000 0.420914 -0.886309 -0.193102 0 10 255
0.095671 -0.480970 -0.097545 0.420914 -0.886309 -0.193102 0 10 255
-0.000000 -0.353554 -0.353553 0.244564 -0.806221 -0.538699 0 10 255
0.196424 -0.293969 -0.353553 0.244564 -0.806221 -0.538699 22 103 181
0.256640 -0.384089 -0.191342 0.244564 -0.806221 -0.538699 3 23 245
0.000000 -0.277785 0.415735 0.093357 -0.469338 0.878070 5 29 239
0.106304 -0.256640 0.415735 0.093357 -0.469338 0.878070 6 39 233
0.073223 -0.176777 0.461940 0.093357 -0.469338 0.878070 158 159 250
0.095671 0.480970 0.097545 0.093835 0.952718 0.289004 62 252 62
0.000000 0.490393 0.097545 0.093835 0.952718 0.289004 58 255 61
0.000000 0.461940 0.191342 0.093835 0.952718 0.289004 57 255 60
0.135299 0.135299 -0.461940 0.225386 0.184970 -0.956550 169 237 182
0.159095 0.106304 -0.461940 0.225386 0.184970 -0.956550 163 219 195
0.081106 0.054193 -0.490393 0.225386 0.184970 -0.956550 255 250 247
0.384089 0.256640 -0.191342 0.959366 0.215238 -0.182455 255 212 51
0.415735 0.277785 0.000000 0.959366 0.215238 -0.182455 254 212 51
0.480970 -0.095671 -0.097545 0.959366 0.215238 -0.182455 38 130 159
0.081106 0.054193 -0.490393 0.000000 0.000000 -1.000000 255 250 247
-0.272447 0.054193 -0.415735 -0.470890 0.046379 -0.880972 5 32 237
-0.187665 0.037329 -0.461940 -0.470890 0.046379 -0.880972 209 207 249
-0.191342 -0.000000 -0.461940 -0.470890 0.046379 -0.880972 200 198 249
0.095671 0.480970 -0.097545 -0.299010 0.934779 -0.191782 255 212 51
-0.326641 0.326641 -0.191342 -0.299010 0.934779 -0.191782 9 50 222
0.000000 0.490393 0.097545 -0.299010 0.934779 -0.191782 58 255 61
0.095671 -0.480970 -0.097545 0.086535 -0.878613 -0.469628 0 10 255
-0.000000 -0.490393 -0.097545 0.086535 -0.878613 -0.469628 0 10 255
-0.000000 -0.353554 -0.353553 0.086535 -0.878613 -0.469628 0 10 255
0.346760 0.346760 0.097545 0.631368 0.769324 -0.097549 61 197 103
0.415735 0.277785 0.000000 0.631368 0.769324 -0.097549 254 212 51
0.191342 0.461940 0.000000 0.631368 0.769324 -0.097549 168 229 56
-0.326641 0.326641 -0.191342 -0.743017 0.397151 -0.538699 9 50 222
-0.250000 0.250000 -0.353553 -0.743017 0.397151 -0.538699 0 10 255
-0.346760 0.068975 -0.353553 -0.743017 0.397151 -0.538699 25 117 171
0.095671 -0.480970 -0.097545 0.215075 -0.839860 -0.498376 0 10 255
-0.000000 -0.353554 -0.353553 0.215075 -0.839860 -0.498376 0 10 255
0.256640 -0.384089 -0.191342 0.215075 -0.839860 -0.498376 3 23 245
0.068975 0.346760 -0.353553 0.298110 0.719702 -0.627024 5 30 239
0.081106 0.407747 -0.277785 0.298110 0.719702 -0.627024 4 27 241
0.196424 0.293969 -0.353553 0.298110 0.719702 -0.627024 226 219 53
-0.054193 0.081106 0.490393 -0.370881 0.523077 0.767358 255 250 247
-0.326641 0.326641 0.191342 -0.370881 0.523077 0.767358 49 255 50
-0.384089 0.159095 0.277785 -0.370881 0.523077 0.767358 16 249 11
-0.054193 0.081106 0.490393 -0.173006 -0.052481 0.983521 255 250 247
-0.191342 -0.000000 0.461940 -0.173006 -0.052481 0.983521 230 226 248
-0.159095 -0.106304 0.461940 -0.173006 -0.052481 0.983521 178 177 250
0.000000 0.097545 0.490393 -0.115312 0.380131 0.917717 255 250 247
0.000000 0.277785 0.415735 -0.115312 0.380131 0.917717 11 218 39
-0.054193 0.081106 0.490393 -0.115312 0.380131 0.917717 255 250 247
-0.384089 0.159095 0.277785 -0.741160 0.224829 0.632561 16 249 11
-0.407746 0.081106 0.277785 -0.741160 0.224829 0.632561 40 254 38
-0.346760 0.068975 0.353553 -0.741160 0.224829 0.632561 17 162 109
-0.461940 -0.000000 -0.191342 -0.828556 0.343199 -0.442390 24 113 173
-0.326641 0.326641 -0.191342 -0.828556 0.343199 -0.442390 9 50 222
-0.346760 0.068975 -0.353553 -0.828556 0.343199 -0.442390 25 117 171
0.196424 -0.293969 0.353553 0.552193 -0.368963 0.747629 43 194 110
0.346760 -0.068975 0.353553 0.552193 -0.368963 0.747629 10 49 224
0.154329 -0.230970 0.415735 0.552193 -0.368963 0.747629 4 27 241
-0.154329 0.230970 -0.415735 -0.472205 0.315518 -0.823086 0 10 255
-0.272447 0.054193 -0.415735 -0.472205 0.315518 -0.823086 5 32 237
-0.250000 0.250000 -0.353553 -0.472205 0.315518 -0.823086 0 10 255
0.187665 0.453064 -0.097545 0.631594 0.769600 -0.093835 220 220 53
0.191342 0.461940 0.000000 0.631594 0.769600 -0.093835 168 229 56
0.415735 0.277785 0.000000 0.631594 0.769600 -0.093835 254 212 51
0.293969 0.196424 0.353553 0.412987 0.503226 0.759082 20 91 191
0.106304 0.256640 0.415735 0.412987 0.503226 0.759082 3 61 202
0.230970 0.154329 0.415735 0.412987 0.503226 0.759082 0 10 255
0.326641 0.135299 0.353553 0.838441 0.082579 0.538699 17 84 197
0.346760 -0.068975 0.353553 0.838441 0.082579 0.538699 10 49 224
0.453064 -0.090120 0.191342 0.838441 0.082579 0.538699 58 254 62
-0.187665 -0.453064 -0.097545 -0.191746 -0.963970 0.184377 0 10 255
-0.000000 -0.490393 -0.097545 -0.191746 -0.963970 0.184377 0 10 255
0.090120 -0.453064 0.191342 -0.191746 -0.963970 0.184377 3 24 244
-0.191342 -0.000000 -0.461940 -0.272482 -0.344810 -0.898253 200 198 249
-0.097545 -0.000000 -0.490393 -0.272482 -0.344810 -0.898253 255 250 247
-0.135299 -0.326641 -0.353553 -0.272482 -0.344810 -0.898253 22 100 185
0.097545 0.490393 0.000000 0.288901 0.952376 -0.097550 248 213 52
0.187665 0.453064 -0.097545 0.288901 0.952376 -0.097550 220 220 53
0.095671 0.480970 -0.097545 0.288901 0.952376 -0.097550 255 212 51
-0.256640 -0.106304 0.415735 -0.417297 -0.223050 0.880972 0 10 255
-0.230970 -0.154329 0.415735 -0.417297 -0.223050 0.880972 0 10 255
-0.159095 -0.106304 0.461940 -0.417297 -0.223050 0.880972 178 177 250
-0.000000 -0.353554 0.353553 0.075915 -0.770780 0.632562 8 43 229
-0.000000 -0.415735 0.277785 0.075915 -0.770780 0.632562 3 22 246
0.081106 -0.407747 0.277785 0.075915 -0.770780 0.632562 22 104 181
0.293969 -0.196424 -0.353553 0.591422 -0.591422 -0.548124 58 255 61
-0.326641 -0.135299 0.353553 -0.801609 -0.093699 0.590460 5 28 241
-0.407746 0.081106 0.277785 -0.801609 -0.093699 0.590460 40 254 38
-0.461940 -0.000000 0.191342 -0.801609 -0.093699 0.590460 58 255 61
0.256640 0.106304 0.415735 0.397328 -0.024112 0.917360 0 10 255
0.081106 0.054193 0.490393 0.397328 -0.024112 0.917360 255 250 247
0.135299 -0.135299 0.461940 0.397328 -0.024112 0.917360 163 164 251
0.196424 0.293969 -0.353553 0.353626 0.430895 -0.830227 226 219 53
0.250000 0.250000 -0.353553 0.353626 0.430895 -0.830227 250 213 51
0.135299 0.135299 -0.461940 0.353626 0.430895 -0.830227 169 237 182
-0.187665 0.037329 -0.461940 -0.203385 0.260235 -0.943882 209 207 249
-0.154329 0.230970 -0.415735 -0.203385 0.260235 -0.943882 0 10 255
0.019030 0.095671 -0.490393 -0.203385 0.260235 -0.943882 255 250 247
-0.461940 -0.000000 -0.191342 -0.908663 0.376381 -0.180744 24 113 173
-0.500000 -0.000000 0.000000 -0.908663 0.376381 -0.180744 45 203 103
-0.326641 0.326641 -0.191342 -0.908663 0.376381 -0.180744 9 50 222
0.000000 0.490393 0.097545 -0.093938 0.991136 -0.093938 58 255 61
0.097545 0.490393 0.000000 -0.093938 0.991136 -0.093938 248 213 52
0.095671 0.480970 -0.097545 -0.093938 0.991136 -0.093938 255 212 51
0.326641 0.326641 -0.191342 0.483501 0.798158 -0.359402 255 212 51
0.230970 0.345671 -0.277785 0.483501 0.798158 -0.359402 254 212 51
0.187665 0.453064 -0.097545 0.483501 0.798158 -0.359402 220 220 53
-0.154329 0.230970 -0.415735 -0.111321 0.366975 -0.923546 0 10 255
0.000000 0.277785 -0.415735 -0.111321 0.366975 -0.923546 7 44 229
0.019030 0.095671 -0.490393 -0.111321 0.366975 -0.923546 255 250 247
-0.353553 -0.353553 0.000000 -0.631368 -0.769323 -0.097551 0 10 255
-0.346760 -0.346760 -0.097545 -0.631368 -0.769323 -0.097551 0 10 255
-0.272448 -0.407747 -0.097545 -0.631368 -0.769323 -0.097551 0 10 255
0.277785 -0.415735 0.000000 0.380910 -0.919599 -0.096153 0 10 255
0.097545 -0.490393 0.000000 0.380910 -0.919599 -0.096153 0 10 255
0.095671 -0.480970 -0.097545 0.380910 -0.919599 -0.096153 0 10 255
-0.293969 -0.196424 0.353553 -0.714672 -0.586515 0.381109 0 10 255
-0.415735 -0.277785 0.000000 -0.714672 -0.586515 0.381109 0 10 255
-0.353553 -0.353553 0.000000 -0.714672 -0.586515 0.381109 0 10 255
0.081106 0.054193 0.490393 0.252004 0.307067 0.917717 255 250 247
0.230970 0.154329 0.415735 0.252004 0.307067 0.917717 0 10 255
0.106304 0.256640 0.415735 0.252004 0.307067 0.917717 3 61 202
0.230970 0.154329 0.415735 0.561098 0.299913 0.771506 0 10 255
0.256640 0.106304 0.415735 0.561098 0.299913 0.771506 0 10 255
0.326641 0.135299 0.353553 0.561098 0.299913 0.771506 17 84 197
-0.461940 -0.000000 0.191342 -0.840238 -0.395357 0.371070 58 255 61
-0.415735 -0.277785 0.000000 -0.840238 -0.395357 0.371070 0 10 255
-0.326641 -0.135299 0.353553 -0.840238 -0.395357 0.371070 5 28 241
0.135299 -0.135299 -0.461940 0.136233 -0.507093 -0.851057 180 216 213
0.196424 -0.196424 -0.415735 0.136233 -0.507093 -0.851057 47 205 102
-0.000000 -0.353554 -0.353553 0.136233 -0.507093 -0.851057 0 10 255
0.407747 0.272447 0.097545 0.944398 0.187852 0.269858 95 214 85
0.384089 0.256640 0.191342 0.944398 0.187852 0.269858 58 255 61
0.453064 -0.090120 0.191342 0.944398 0.187852 0.269858 58 254 62
-0.293969 -0.196424 -0.353553 -0.496710 -0.205744 -0.843178 255 212 51
-0.346760 -0.068975 -0.353553 -0.496710 -0.205744 -0.843178 244 215 52
-0.191342 -0.000000 -0.461940 -0.496710 -0.205744 -0.843178 200 198 249
0.095671 0.480970 0.097545 0.285838 0.839612 0.461897 62 252 62
0.000000 0.461940 0.191342 0.285838 0.839612 0.461897 57 255 60
0.135299 0.326641 0.353553 0.285838 0.839612 0.461897 12 217 41
0.230970 -0.154329 -0.415735 0.391237 -0.209121 -0.896215 58 245 70
0.135299 -0.135299 -0.461940 0.391237 -0.209121 -0.896215 180 216 213
0.187665 -0.037329 -0.461940 0.391237 -0.209121 -0.896215 174 232 191
0.384089 0.256640 -0.191342 0.746182 0.226352 -0.626081 255 212 51
0.346760 -0.068975 -0.353553 0.746182 0.226352 -0.626081 56 249 66
0.250000 0.250000 -0.353553 0.746182 0.226352 -0.626081 250 213 51
0.106304 0.256640 0.415735 0.075901 0.381579 0.921215 3 61 202
0.000000 0.277785 0.415735 0.075901 0.381579 0.921215 11 218 39
0.000000 0.097545 0.490393 0.075901 0.381579 0.921215 255 250 247
0.453064 -0.090120 0.191342 0.952376 -0.288900 0.097549 58 254 62
0.426777 -0.176777 0.191342 0.952376 -0.288900 0.097549 58 255 61
0.480970 -0.095671 -0.097545 0.952376 -0.288900 0.097549 38 130 159
-0.000000 -0.490393 -0.097545 0.097549 -0.990438 -0.097551 0 10 255
0.095671 -0.480970 -0.097545 0.097549 -0.990438 -0.097551 0 10 255
0.097545 -0.490393 0.000000 0.097549 -0.990438 -0.097551 0 10 255
0.196424 -0.293969 -0.353553 0.160934 -0.530528 -0.832250 22 103 181
-0.000000 -0.353554 -0.353553 0.160934 -0.530528 -0.832250 0 10 255
0.196424 -0.196424 -0.415735 0.160934 -0.530528 -0.832250 47 205 102
0.415735 0.277785 0.000000 0.984866 0.148842 0.088798 254 212 51
0.407747 0.272447 0.097545 0.984866 0.148842 0.088798 95 214 85
0.480970 -0.095671 -0.097545 0.984866 0.148842 0.088798 38 130 159
-0.191342 -0.000000 -0.461940 -0.540366 -0.095997 -0.835936 200 198 249
-0.346760 -0.068975 -0.353553 -0.540366 -0.095997 -0.835936 244 215 52
-0.272447 0.054193 -0.415735 -0.540366 -0.095997 -0.835936 5 32 237
-0.187665 -0.453064 -0.097545 -0.206448 -0.958108 0.198514 0 10 255
0.090120 -0.453064 0.191342 -0.206448 -0.958108 0.198514 3 24 244
-0.000000 -0.415735 0.277785 -0.206448 -0.958108 0.198514 3 22 246
-0.000000 -0.415735 0.277785 -0.075915 -0.770780 0.632562 3 22 246
-0.000000 -0.353554 0.353553 -0.075915 -0.770780 0.632562 8 43 229
-0.068975 -0.346760 0.353553 -0.075915 -0.770780 0.632562 3 22 246
-0.500000 -0.000000 0.000000 -0.976241 -0.096151 -0.194186 45 203 103
-0.461940 -0.000000 -0.191342 -0.976241 -0.096151 -0.194186 24 113 173
-0.453064 -0.090120 -0.191342 -0.976241 -0.096151 -0.194186 57 227 83
-0.250000 0.250000 -0.353553 -0.403615 0.491806 -0.771506 0 10 255
-0.196424 0.293969 -0.353553 -0.403615 0.491806 -0.771506 0 10 255
-0.154329 0.230970 -0.415735 -0.403615 0.491806 -0.771506 0 10 255
-0.346760 0.068975 0.353553 -0.573223 -0.004039 0.819390 17 162 109
-0.256640 -0.106304 0.415735 -0.573223 -0.004039 0.819390 0 10 255
-0.191342 -0.000000 0.461940 -0.573223 -0.004039 0.819390 230 226 248
0.081106 0.054193 -0.490393 0.155571 0.232828 -0.959994 255 250 247
0.019030 0.095671 -0.490393 0.155571 0.232828 -0.959994 255 250 247
0.135299 0.135299 -0.461940 0.155571 0.232828 -0.959994 169 237 182
0.293969 0.196424 0.353553 0.561098 0.299913 0.771506 20 91 191
0.000000 -0.277785 0.415735 -0.105908 -0.349131 0.931070 5 29 239
0.073223 -0.176777 0.461940 -0.105908 -0.349131 0.931070 158 159 250
-0.159095 -0.106304 0.461940 -0.105908 -0.349131 0.931070 178 177 250
0.090120 0.453064 -0.191342 -0.173882 0.879523 -0.442949 209 213 60
0.081106 0.407747 -0.277785 -0.173882 0.879523 -0.442949 4 27 241
0.000000 0.353553 -0.353553 -0.173882 0.879523 -0.442949 1 14 252
-0.196424 0.293969 -0.353553 -0.267083 0.880457 -0.391742 0 10 255
0.090120 0.453064 -0.191342 -0.267083 0.880457 -0.391742 209 213 60
0.000000 0.353553 -0.353553 -0.267083 0.880457 -0.391742 1 14 252
-0.346760 -0.068975 -0.353553 -0.828696 -0.081619 -0.553716 244 215 52
-0.453064 -0.090120 -0.191342 -0.828696 -0.081619 -0.553716 57 227 82
-0.461940 -0.000000 -0.191342 -0.828696 -0.081619 -0.553716 24 113 173
0.135299 0.326641 0.353553 0.370343 0.819761 0.436849 12 217 41
0.326641 0.326641 0.191342 0.370343 0.819761 0.436849 58 255 61
0.095671 0.480970 0.097545 0.370343 0.819761 0.436849 62 252 62
0.407747 0.272447 0.097545 0.740025 0.607323 0.289003 95 214 85
0.326641 0.326641 0.191342 0.740025 0.607323 0.289003 58 255 61
0.384089 0.256640 0.191342 0.740025 0.607323 0.289003 58 255 61
-0.346760 -0.068975 -0.353553 -0.641733 0.000000 -0.766928 244 215 52
-0.346760 0.068975 -0.353553 -0.641733 0.000000 -0.766928 25 117 171
-0.272447 0.054193 -0.415735 -0.641733 0.000000 -0.766928 5 32 237
-0.346760 0.068975 0.353553 -0.384799 0.495385 0.778796 17 162 109
-0.054193 0.081106 0.490393 -0.384799 0.495385 0.778796 255 250 247
-0.384089 0.159095 0.277785 -0.384799 0.495385 0.778796 16 249 11
0.135299 0.326641 0.353553 0.507924 0.618908 0.599138 12 217 41
0.293969 0.196424 0.353553 0.507924 0.618908 0.599138 20 91 190
0.326641 0.326641 0.191342 0.507924 0.618908 0.599138 58 255 61
-0.000000 -0.490393 -0.097545 -0.180745 -0.908663 -0.376381 0 10 255
-0.187665 -0.453064 -0.097545 -0.180745 -0.908663 -0.376381 0 10 255
-0.159095 -0.384089 -0.277785 -0.180745 -0.908663 -0.376381 4 27 241
0.230970 -0.154329 -0.415735 0.491806 -0.403615 -0.771506 58 245 70
0.293969 -0.196424 -0.353553 0.491806 -0.403615 -0.771506 58 255 61
0.196424 -0.196424 -0.415735 0.491806 -0.403615 -0.771506 47 205 102
0.346760 -0.068975 -0.353553 0.540858 -0.128107 -0.831301 56 249 66
0.230970 -0.154329 -0.415735 0.540858 -0.128107 -0.831301 58 245 70
0.187665 -0.037329 -0.461940 0.540858 -0.128107 -0.831301 174 232 191
0.230970 0.345671 -0.277785 0.298110 0.719702 -0.627024 254 212 51
-0.272447 0.054193 -0.415735 -0.416383 0.278218 -0.865575 5 32 237
-0.154329 0.230970 -0.415735 -0.416383 0.278218 -0.865575 0 10 255
-0.187665 0.037329 -0.461940 -0.416383 0.278218 -0.865575 209 207 249
0.000000 0.353553 -0.353553 -0.188974 0.622964 -0.759081 1 14 252
0.000000 0.277785 -0.415735 -0.188974 0.622964 -0.759081 7 44 229
-0.196424 0.293969 -0.353553 -0.188974 0.622964 -0.759081 0 10 255
0.000000 0.490393 0.097545 0.097550 0.990438 0.097550 58 255 61
0.095671 0.480970 0.097545 0.097550 0.990438 0.097550 62 252 62
0.097545 0.490393 0.000000 0.097550 0.990438 0.097550 248 213 52
0.326641 0.326641 -0.191342 0.560083 0.682463 -0.469628 255 212 51
0.293969 0.293969 -0.277785 0.560083 0.682463 -0.469628 255 212 51
0.230970 0.345671 -0.277785 0.560083 0.682463 -0.469628 254 212 51
0.159095 0.106304 -0.461940 0.616414 0.186987 -0.764898 163 219 195
0.250000 0.250000 -0.353553 0.616414 0.186987 -0.764898 250 213 51
0.346760 -0.068975 -0.353553 0.616414 0.186987 -0.764898 56 249 66
0.426777 -0.176777 0.191342 0.759376 -0.623204 0.186990 58 255 61
0.256640 -0.384089 0.191342 0.759376 -0.623204 0.186990 58 255 61
0.277785 -0.415735 0.000000 0.759376 -0.623204 0.186990 0 10 255
0.256640 -0.384089 -0.191342 0.677747 -0.677747 -0.285164 3 23 245
0.384089 -0.256640 -0.191342 0.677747 -0.677747 -0.285164 65 253 61
0.407747 -0.272448 -0.097545 0.677747 -0.677747 -0.285164 243 215 52
-0.500000 -0.000000 0.000000 -0.962637 0.191481 0.191480 45 203 103
-0.461940 -0.000000 0.191342 -0.962637 0.191481 0.191480 58 255 61
-0.426777 0.176777 0.191342 -0.962637 0.191481 0.191480 52 255 53
0.453064 -0.090120 0.191342 0.879591 0.174961 0.442390 58 254 62
0.384089 0.256640 0.191342 0.879591 0.174961 0.442390 58 255 61
0.326641 0.135299 0.353553 0.879591 0.174961 0.442390 17 84 197
-0.068975 -0.346760 0.353553 -0.472564 -0.821914 0.318026 3 22 246
-0.187665 -0.453064 -0.097545 -0.472564 -0.821914 0.318026 0 10 255
-0.000000 -0.415735 0.277785 -0.472564 -0.821914 0.318026 3 22 246
0.159095 0.106304 -0.461940 0.430895 0.353626 -0.830228 163 219 195
0.135299 0.135299 -0.461940 0.430895 0.353626 -0.830228 169 237 182
0.250000 0.250000 -0.353553 0.430895 0.353626 -0.830228 250 213 51
-0.187665 -0.453064 -0.097545 -0.353693 -0.885368 0.301703 0 10 255
-0.068975 -0.346760 0.353553 -0.353693 -0.885368 0.301703 3 22 246
-0.353553 -0.353553 0.000000 -0.353693 -0.885368 0.301703 0 10 255
0.196424 -0.293969 0.353553 0.655816 -0.438202 0.614723 43 194 110
0.426777 -0.176777 0.191342 0.655816 -0.438202 0.614723 58 255 61
0.346760 -0.068975 0.353553 0.655816 -0.438202 0.614723 10 49 224
-0.196424 0.293969 -0.353553 -0.528262 0.643690 -0.553716 0 10 255
-0.250000 0.250000 -0.353553 -0.528262 0.643690 -0.553716 0 10 255
-0.326641 0.326641 -0.191342 -0.528262 0.643690 -0.553716 9 50 222
0.135299 0.326641 0.353553 0.412987 0.503226 0.759082 12 217 41
0.293969 -0.196424 -0.353553 0.772730 -0.320075 -0.548124 58 255 61
-0.159095 -0.384089 -0.277785 -0.224828 -0.741160 -0.632562 4 27 241
-0.135299 -0.326641 -0.353553 -0.224828 -0.741160 -0.632562 22 100 185
-0.068975 -0.346760 -0.353553 -0.224828 -0.741160 -0.632562 1 16 250
-0.407746 0.081106 0.277785 -0.900417 0.179104 0.396447 40 254 38
-0.426777 0.176777 0.191342 -0.900417 0.179104 0.396447 52 255 53
-0.461940 -0.000000 0.191342 -0.900417 0.179104 0.396447 58 255 61
-0.097545 -0.000000 -0.490393 -0.290166 0.028579 -0.956550 255 250 247
-0.191342 -0.000000 -0.461940 -0.290166 0.028579 -0.956550 200 198 249
-0.187665 0.037329 -0.461940 -0.290166 0.028579 -0.956550 209 207 249
0.426777 -0.176777 0.191342 0.796849 -0.241721 0.553717 58 255 61
0.453064 -0.090120 0.191342 0.796849 -0.241721 0.553717 58 254 62
0.346760 -0.068975 0.353553 0.796849 -0.241721 0.553717 10 49 224
0.081106 0.054193 -0.490393 0.305960 0.060859 -0.950097 255 250 247
0.106304 -0.256640 0.415735 0.125196 -0.629402 0.766928 6 39 233
0.000000 -0.277785 0.415735 0.125196 -0.629402 0.766928 5 29 239
-0.000000 -0.353554 0.353553 0.125196 -0.629402 0.766928 8 43 229
-0.000000 -0.353554 -0.353553 -0.055148 -0.880579 -0.470679 0 10 255
-0.000000 -0.490393 -0.097545 -0.055148 -0.880579 -0.470679 0 10 255
-0.159095 -0.384089 -0.277785 -0.055148 -0.880579 -0.470679 4 27 241
0.090120 -0.453064 0.191342 0.086535 -0.878613 0.469629 3 24 244
0.081106 -0.407747 0.277785 0.086535 -0.878613 0.469629 22 104 181
-0.000000 -0.415735 0.277785 0.086535 -0.878613 0.469629 3 22 246
0.453064 -0.187665 -0.097545 0.952376 -0.288900 0.097549 190 226 54
0.090120 0.453064 -0.191342 -0.280423 0.924431 -0.258439 209 213 60
-0.326641 0.326641 -0.191342 -0.280423 0.924431 -0.258439 9 50 222
0.095671 0.480970 -0.097545 -0.280423 0.924431 -0.258439 255 212 51
0.000000 0.277785 -0.415735 0.062359 0.633160 -0.771505 7 44 229
0.000000 0.353553 -0.353553 0.062359 0.633160 -0.771505 1 14 252
0.068975 0.346760 -0.353553 0.062359 0.633160 -0.771505 5 30 239
-0.159095 -0.106304 0.461940 -0.244330 -0.457109 0.855192 178 177 250
-0.230970 -0.154329 0.415735 -0.244330 -0.457109 0.855192 0 10 255
0.000000 -0.277785 0.415735 -0.244330 -0.457109 0.855192 5 29 239
0.453064 -0.187665 -0.097545 0.858398 -0.355560 -0.369769 190 226 54
0.384089 -0.256640 -0.191342 0.858398 -0.355560 -0.369769 65 253 61
0.453064 -0.090120 -0.191342 0.858398 -0.355560 -0.369769 51 229 82
-0.000000 -0.353554 -0.353553 -0.041714 -0.423530 -0.904921 0 10 255
-0.068975 -0.346760 -0.353553 -0.041714 -0.423530 -0.904921 1 16 250
0.135299 -0.135299 -0.461940 -0.041714 -0.423530 -0.904921 180 216 213
0.407747 -0.272448 -0.097545 0.877715 -0.469149 0.097549 243 215 52
0.453064 -0.187665 -0.097545 0.877715 -0.469149 0.097549 190 226 54
0.426777 -0.176777 0.191342 0.877715 -0.469149 0.097549 58 255 61
-0.068975 -0.346760 0.353553 -0.504124 -0.754474 0.420271 3 22 246
-0.293969 -0.196424 0.353553 -0.504124 -0.754474 0.420271 0 10 255
-0.353553 -0.353553 0.000000 -0.504124 -0.754474 0.420271 0 10 255
0.407747 -0.272448 -0.097545 0.780886 -0.606538 0.149427 243 215 52
0.426777 -0.176777 0.191342 0.780886 -0.606538 0.149427 58 255 61
0.277785 -0.415735 0.000000 0.780886 -0.606538 0.149427 0 10 255
-0.426777 0.176777 0.191342 -0.896293 0.439020 -0.062605 52 255 53
-0.326641 0.326641 -0.191342 -0.896293 0.439020 -0.062605 9 50 222
-0.500000 -0.000000 0.000000 -0.896293 0.439020 -0.062605 45 203 103
0.346760 0.346760 0.097545 0.769324 0.631367 0.097550 61 197 103
0.407747 0.272447 0.097545 0.769324 0.631367 0.097550 95 214 85
0.415735 0.277785 0.000000 0.769324 0.631367 0.097550 254 212 51
0.187665 0.453064 -0.097545 0.632512 0.768282 -0.098348 220 220 53
0.415735 0.277785 0.000000 0.632512 0.768282 -0.098348 254 212 51
0.326641 0.326641 -0.191342 0.632512 0.768282 -0.098348 255 212 51
0.019030 0.095671 -0.490393 0.093048 0.385977 -0.917804 255 250 247
0.000000 0.277785 -0.415735 0.093048 0.385977 -0.917804 7 44 229
0.135299 0.135299 -0.461940 0.093048 0.385977 -0.917804 169 237 182
-0.272448 -0.407747 -0.097545 -0.469149 -0.877715 0.097549 0 10 255
-0.187665 -0.453064 -0.097545 -0.469149 -0.877715 0.097549 0 10 255
-0.353553 -0.353553 0.000000 -0.469149 -0.877715 0.097549 0 10 255
-0.415735 -0.277785 0.000000 -0.952377 -0.288900 -0.097549 0 10 255
-0.500000 -0.000000 0.000000 -0.952377 -0.288900 -0.097549 45 203 103
-0.453064 -0.090120 -0.191342 -0.952377 -0.288900 -0.097549 57 227 83
-0.346760 -0.068975 -0.353553 -0.719702 -0.298110 -0.627024 244 215 52
-0.293969 -0.196424 -0.353553 -0.719702 -0.298110 -0.627024 255 212 51
-0.345671 -0.230970 -0.277785 -0.719702 -0.298110 -0.627024 255 212 51
0.073223 -0.176777 0.461940 0.223050 -0.417297 0.880972 158 159 250
0.106304 -0.256640 0.415735 0.223050 -0.417297 0.880972 6 39 233
0.154329 -0.230970 0.415735 0.223050 -0.417297 0.880972 4 27 241
0.019030 0.095671 -0.490393 -0.199208 0.242735 -0.949419 255 250 247
-0.097545 -0.000000 -0.490393 -0.199208 0.242735 -0.949419 255 250 247
-0.187665 0.037329 -0.461940 -0.199208 0.242735 -0.949419 209 207 249
0.346760 -0.068975 -0.353553 0.574768 0.114328 -0.810291 56 249 66
0.187665 -0.037329 -0.461940 0.574768 0.114328 -0.810291 174 232 191
0.159095 0.106304 -0.461940 0.574768 0.114328 -0.810291 163 219 195
0.000000 0.277785 0.415735 0.125196 0.629402 0.766928 11 218 39
0.106304 0.256640 0.415735 0.125196 0.629402 0.766928 3 61 202
0.135299 0.326641 0.353553 0.125196 0.629402 0.766928 12 217 41
0.135299 -0.135299 0.461940 0.253471 -0.379346 0.889859 163 164 251
0.073223 -0.176777 0.461940 0.253471 -0.379346 0.889859 158 159 250
0.154329 -0.230970 0.415735 0.253471 -0.379346 0.889859 4 27 241
-0.453064 -0.090120 -0.191342 -0.790661 -0.263747 -0.552532 57 227 83
-0.346760 -0.068975 -0.353553 -0.790661 -0.263747 -0.552532 244 215 52
-0.345671 -0.230970 -0.277785 -0.790661 -0.263747 -0.552532 255 212 51
-0.256640 -0.106304 0.415735 -0.561098 -0.299913 0.771506 0 10 255
0.191342 0.461940 0.000000 0.288900 0.952376 0.097550 168 229 56
0.097545 0.490393 0.000000 0.288900 0.952376 0.097550 248 213 52
0.095671 0.480970 0.097545 0.288900 0.952376 0.097550 62 252 62
-0.159095 -0.384089 -0.277785 -0.083794 -0.850770 -0.518815 4 27 241
-0.068975 -0.346760 -0.353553 -0.083794 -0.850770 -0.518815 1 16 250
-0.000000 -0.353554 -0.353553 -0.083794 -0.850770 -0.518815 0 10 255
0.073223 -0.176777 0.461940 0.083281 -0.124639 0.988701 158 159 250
0.135299 -0.135299 0.461940 0.083281 -0.124639 0.988701 163 164 251
0.081106 0.054193 0.490393 0.083281 -0.124639 0.988701 255 250 247
0.097545 -0.490393 0.000000 0.375602 -0.906785 0.191481 0 10 255
0.453064 -0.090120 -0.191342 0.944398 0.187852 -0.269857 51 229 82
0.384089 0.256640 -0.191342 0.944398 0.187852 -0.269857 255 212 51
0.480970 -0.095671 -0.097545 0.944398 0.187852 -0.269857 38 130 159
-0.230970 -0.345671 -0.277785 -0.435821 -0.815363 -0.381109 49 210 96
-0.230970 -0.345671 -0.277785 -0.449666 -0.547919 -0.705398 49 210 96
-0.293969 -0.196424 -0.353553 -0.449666 -0.547919 -0.705398 255 212 51
-0.135299 -0.326641 -0.353553 -0.449666 -0.547919 -0.705398 22 100 185
-0.068975 -0.346760 0.353553 -0.062361 -0.633159 0.771506 3 22 246
-0.000000 -0.353554 0.353553 -0.062361 -0.633159 0.771506 8 43 229
0.000000 -0.277785 0.415735 -0.062361 -0.633159 0.771506 5 29 239
3 0 1 2
3 3 4 5
3 6 7 8
3 9 10 11
3 12 13 14
3 15 16 17
3 18 19 20
3 21 22 23
3 24 25 26
3 27 28 29
3 30 31 32
3 33 34 35
3 36 37 38
3 39 40 41
3 42 43 44
3 45 46 47
3 48 49 50
3 51 52 53
3 54 55 56
3 57 58 59
3 60 61 62
3 63 64 65
3 66 67 68
3 69 70 71
3 72 73 74
3 75 76 77
3 78 79 80
3 81 82 83
3 84 85 86
3 87 88 89
3 90 91 92
3 93 94 95
3 96 97 98
3 99 100 101
3 102 103 104
3 105 106 107
3 108 109 110
3 111 112 113
3 114 115 116
3 117 118 119
3 120 121 122
3 123 124 125
3 126 127 128
3 129 130 131
3 132 133 134
3 135 136 137
3 138 139 140
3 141 142 143
3 144 145 146
3 147 148 149
3 150 151 152
3 153 154 155
3 156 157 158
3 159 160 161
3 162 163 164
3 74 73 165
3 166 167 168
3 169 170 171
3 172 173 174
3 175 176 177
3 178 179 180
3 181 182 183
3 184 185 186
3 187 188 189
3 190 191 192
3 193 194 195
3 196 197 198
3 199 200 201
3 202 203 204
3 205 206 207
3 208 209 210
3 211 212 213
3 214 215 216
3 217 218 219
3 220 221 222
3 223 224 225
3 226 227 228
3 229 230 231
3 232 233 234
3 235 236 237
3 238 239 240
3 241 242 243
3 244 245 246
3 247 248 249
3 250 251 252
3 118 253 119
3 254 255 256
3 257 258 259
3 260 261 262
3 263 264 265
3 266 267 268
3 269 270 271
3 272 273 274
3 275 276 277
3 278 279 280
3 281 282 283
3 284 285 286
3 287 288 289
3 290 291 292
3 293 294 295
3 296 297 298
3 299 300 301
3 302 303 304
3 305 306 307
3 308 309 310
3 311 312 313
3 314 315 316
3 317 318 319
3 93 95 320
3 321 322 323
3 324 325 326
3 327 328 329
3 330 331 332
3 333 334 335
3 336 337 338
3 339 340 341
3 342 343 344
3 345 346 347
3 348 349 350
3 351 352 353
3 354 355 356
3 357 358 359
3 360 361 362
3 363 364 365
3 366 367 368
3 369 370 371
3 372 373 374
3 375 376 377
3 378 379 380
3 381 382 383
3 384 385 386
3 387 388 389
3 390 391 392
3 393 394 395
3 396 397 398
3 399 400 401
3 402 403 404
3 405 406 407
3 408 409 410
3 411 412 413
3 414 415 416
3 359 417 357
3 418 419 420
3 421 422 423
3 424 425 426
3 427 428 429
3 430 431 432
3 433 434 435
3 436 437 438
3 439 440 441
3 442 443 444
3 445 446 447
3 448 449 450
3 451 452 453
3 273 454 274
3 455 456 457
3 458 459 460
3 461 462 463
3 464 465 466
3 467 468 469
3 470 471 472
3 473 474 475
3 476 477 478
3 479 480 481
3 482 483 484
3 485 486 487
3 488 489 490
3 491 492 493
3 494 495 496
3 299 497 300
3 138 140 498
3 499 500 501
3 502 503 504
3 505 506 507
3 508 509 510
3 67 511 68
3 512 513 514
3 515 516 517
3 518 519 520
3 385 521 386
3 522 523 524
3 525 526 527
3 528 529 530
3 531 532 533
3 534 535 536
3 537 538 539
3 540 541 542
3 543 544 545
3 546 547 548
3 549 550 551
3 552 553 554
3 555 556 557
3 558 559 560
3 561 562 563
3 564 565 566
3 567 568 569
3 570 571 572
3 573 574 575
3 576 577 578
3 579 580 581
3 582 583 584
3 225 585 223
3 586 587 588
3 589 590 591
3 592 593 594
3 227 595 228
3 596 597 598
3 61 599 62
3 600 601 602
3 603 604 605
