ply
format ascii 1.0
comment Created by Blender 2.79 (sub 0) - www.blender.org, source file: 'Mercury.blend'
element vertex 252
property float x
property float y
property float z
property float nx
property float ny
property float nz
property uchar red
property uchar green
property uchar blue
element face 90
property list uchar uint vertex_indices
end_header
0.000000 0.166671 0.249441 0.087107 0.828309 0.553458 255 0 0
0.138582 0.207403 0.166671 0.087107 0.828309 0.553458 255 0 0
0.000000 0.294236 0.058527 0.087107 0.828309 0.553458 255 0 0
-0.176381 0.176381 -0.166671 -0.819863 0.438226 -0.368486 255 0 0
-0.244648 0.048663 -0.166671 -0.819863 0.438226 -0.368486 255 0 0
-0.208056 0.208056 -0.058527 -0.819863 0.438226 -0.368486 255 0 0
-0.244648 0.048663 -0.166671 -0.976241 0.096152 -0.194186 255 0 0
-0.249441 -0.000000 -0.166671 -0.976241 0.096152 -0.194186 255 0 0
-0.294236 -0.000000 0.058527 -0.976241 0.096152 -0.194186 255 0 0
-0.208056 0.208056 -0.058527 -0.586516 0.714672 -0.381109 255 0 0
-0.163468 0.244648 -0.058527 -0.586516 0.714672 -0.381109 255 0 0
-0.138582 0.207402 -0.166671 -0.586516 0.714672 -0.381109 255 0 0
0.163469 0.244648 -0.058527 0.472591 0.646399 -0.599021 255 0 0
0.230453 0.095457 -0.166671 0.472591 0.646399 -0.599021 255 0 0
0.032516 0.163469 -0.249441 0.472591 0.646399 -0.599021 255 0 0
0.244648 -0.048664 0.166671 0.519665 -0.426478 0.740314 255 0 0
0.032516 -0.163469 0.249441 0.519665 -0.426478 0.740314 255 0 0
0.095457 -0.230453 0.166671 0.519665 -0.426478 0.740314 255 0 0
0.095457 -0.230453 0.166671 0.726080 -0.595879 0.343126 255 0 0
0.112599 -0.271838 0.058527 0.726080 -0.595879 0.343126 255 0 0
0.244648 -0.048664 0.166671 0.726080 -0.595879 0.343126 255 0 0
0.288582 -0.057403 -0.058527 0.889967 -0.087654 -0.447522 255 0 0
0.230453 -0.095457 -0.166671 0.889967 -0.087654 -0.447522 255 0 0
0.244648 0.048663 -0.166671 0.889967 -0.087654 -0.447522 255 0 0
0.288582 -0.057403 0.058527 0.759622 -0.623406 0.185307 255 0 0
0.112599 -0.271838 0.058527 0.759622 -0.623406 0.185307 255 0 0
0.271838 -0.112599 -0.058527 0.759622 -0.623406 0.185307 255 0 0
-0.163469 -0.244648 0.058527 -0.182205 -0.916003 0.357407 255 0 0
0.057402 -0.288582 0.058527 -0.182205 -0.916003 0.357407 255 0 0
0.048663 -0.244648 0.166671 -0.182205 -0.916003 0.357407 255 0 0
0.244648 -0.048664 0.166671 0.380786 -0.037504 0.923902 255 0 0
0.249441 -0.000000 0.166671 0.380786 -0.037504 0.923902 255 0 0
0.032516 -0.163469 0.249441 0.380786 -0.037504 0.923902 255 0 0
-0.153984 0.063782 0.249441 -0.820326 0.163173 0.548124 255 0 0
-0.271838 0.112599 0.058527 -0.820326 0.163173 0.548124 255 0 0
-0.294236 -0.000000 0.058527 -0.820326 0.163173 0.548124 255 0 0
-0.117854 0.117854 -0.249441 -0.449665 0.547919 -0.705398 255 0 0
-0.176381 0.176381 -0.166671 -0.449665 0.547919 -0.705398 255 0 0
-0.138582 0.207402 -0.166671 -0.449665 0.547919 -0.705398 255 0 0
0.048663 -0.244648 -0.166671 0.595879 -0.726081 -0.343126 255 0 0
0.230453 -0.095457 -0.166671 0.595879 -0.726081 -0.343126 255 0 0
0.271838 -0.112599 -0.058527 0.595879 -0.726081 -0.343126 255 0 0
0.271838 0.112599 -0.058527 0.951051 0.093670 -0.294497 255 0 0
0.288582 -0.057403 -0.058527 0.951051 0.093670 -0.294497 255 0 0
0.244648 0.048663 -0.166671 0.951051 0.093670 -0.294497 255 0 0
0.092598 0.138582 0.249441 0.209728 0.691381 0.691381 255 0 0
0.138582 0.207403 0.166671 0.209728 0.691381 0.691381 255 0 0
0.000000 0.166671 0.249441 0.209728 0.691381 0.691381 255 0 0
0.032516 -0.163469 0.249441 0.205757 -0.678291 0.705398 255 0 0
0.048663 -0.244648 0.166671 0.205757 -0.678291 0.705398 255 0 0
0.095457 -0.230453 0.166671 0.205757 -0.678291 0.705398 255 0 0
-0.163469 -0.244648 -0.058527 -0.478540 -0.716185 -0.508015 255 0 0
-0.207403 -0.138582 -0.166671 -0.478540 -0.716185 -0.508015 255 0 0
-0.048664 -0.244648 -0.166671 -0.478540 -0.716185 -0.508015 255 0 0
0.249441 -0.000000 0.166671 0.946490 0.241010 0.214639 255 0 0
0.288582 -0.057403 0.058527 0.946490 0.241010 0.214639 255 0 0
0.271838 0.112599 -0.058527 0.946490 0.241010 0.214639 255 0 0
-0.176381 -0.176381 0.166671 -0.868670 -0.434239 0.238430 255 0 0
-0.294236 -0.000000 0.058527 -0.868670 -0.434239 0.238430 255 0 0
-0.244648 -0.163469 -0.058527 -0.868670 -0.434239 0.238430 255 0 0
0.057403 0.288582 -0.058527 0.098018 0.995185 0.000000 255 0 0
0.000000 0.294236 -0.058527 0.098018 0.995185 0.000000 255 0 0
0.000000 0.294236 0.058527 0.098018 0.995185 0.000000 255 0 0
0.163469 0.244648 -0.058527 0.378828 0.914570 0.141601 255 0 0
0.057403 0.288582 -0.058527 0.378828 0.914570 0.141601 255 0 0
0.000000 0.294236 0.058527 0.378828 0.914570 0.141601 255 0 0
0.032516 0.163469 -0.249441 0.000000 0.000000 -1.000000 255 0 0
0.163469 0.032516 -0.249441 0.000000 0.000000 -1.000000 255 0 0
-0.163469 0.032516 -0.249441 0.000000 0.000000 -1.000000 255 0 0
-0.294236 -0.000000 0.058527 -0.968794 -0.155891 -0.192705 255 0 0
-0.249441 -0.000000 -0.166671 -0.968794 -0.155891 -0.192705 255 0 0
-0.244648 -0.163469 -0.058527 -0.968794 -0.155891 -0.192705 255 0 0
-0.208056 0.208056 0.058527 -0.378828 0.914570 0.141600 255 0 0
0.000000 0.294236 0.058527 -0.378828 0.914570 0.141600 255 0 0
-0.163468 0.244648 -0.058527 -0.378828 0.914570 0.141600 255 0 0
-0.271838 0.112599 0.058527 -0.831469 0.555571 0.000000 255 0 0
-0.208056 0.208056 0.058527 -0.831469 0.555571 0.000000 255 0 0
-0.208056 0.208056 -0.058527 -0.831469 0.555571 0.000000 255 0 0
-0.117854 -0.117854 0.249441 -0.754151 -0.150010 0.639338 255 0 0
-0.153984 0.063782 0.249441 -0.754151 -0.150010 0.639338 255 0 0
-0.176381 -0.176381 0.166671 -0.754151 -0.150010 0.639338 255 0 0
-0.163469 -0.244648 0.058527 -0.586516 -0.714671 0.381109 255 0 0
-0.138582 -0.207403 0.166671 -0.586516 -0.714671 0.381109 255 0 0
-0.176381 -0.176381 0.166671 -0.586516 -0.714671 0.381109 255 0 0
-0.249441 -0.000000 -0.166671 -0.889604 -0.269858 -0.368486 255 0 0
-0.207403 -0.138582 -0.166671 -0.889604 -0.269858 -0.368486 255 0 0
-0.244648 -0.163469 -0.058527 -0.889604 -0.269858 -0.368486 255 0 0
0.000000 0.166671 0.249441 0.000000 -0.000000 1.000000 255 0 0
-0.153984 0.063782 0.249441 0.000000 -0.000000 1.000000 255 0 0
0.092598 0.138582 0.249441 0.000000 -0.000000 1.000000 255 0 0
0.249441 -0.000000 0.166671 0.920078 -0.090620 0.381109 255 0 0
0.244648 -0.048664 0.166671 0.920078 -0.090620 0.381109 255 0 0
0.288582 -0.057403 0.058527 0.920078 -0.090620 0.381109 255 0 0
0.032516 -0.163469 0.249441 -0.194491 -0.641150 0.742361 255 0 0
-0.117854 -0.117854 0.249441 -0.194491 -0.641150 0.742361 255 0 0
-0.138582 -0.207403 0.166671 -0.194491 -0.641150 0.742361 255 0 0
-0.294236 -0.000000 0.058527 -0.775051 -0.140079 0.616177 255 0 0
-0.176381 -0.176381 0.166671 -0.775051 -0.140079 0.616177 255 0 0
-0.153984 0.063782 0.249441 -0.775051 -0.140079 0.616177 255 0 0
0.032516 -0.163469 0.249441 0.408131 -0.081182 0.909306 255 0 0
0.249441 -0.000000 0.166671 0.408131 -0.081182 0.909306 255 0 0
0.092598 0.138582 0.249441 0.408131 -0.081182 0.909306 255 0 0
-0.271838 0.112599 0.058527 -0.912160 0.351917 -0.210046 255 0 0
-0.208056 0.208056 -0.058527 -0.912160 0.351917 -0.210046 255 0 0
-0.244648 0.048663 -0.166671 -0.912160 0.351917 -0.210046 255 0 0
0.288582 -0.057403 -0.058527 0.884720 -0.268377 -0.381109 255 0 0
0.271838 -0.112599 -0.058527 0.884720 -0.268377 -0.381109 255 0 0
0.230453 -0.095457 -0.166671 0.884720 -0.268377 -0.381109 255 0 0
-0.117854 0.117854 -0.249441 0.000000 0.000000 -1.000000 255 0 0
0.163469 0.032516 -0.249441 0.473300 0.473300 -0.742950 255 0 0
0.032516 0.163469 -0.249441 0.473300 0.473300 -0.742950 255 0 0
0.230453 0.095457 -0.166671 0.473300 0.473300 -0.742950 255 0 0
-0.207403 -0.138582 -0.166671 -0.504827 -0.504827 -0.700214 255 0 0
-0.138582 -0.092598 -0.249441 -0.504827 -0.504827 -0.700214 255 0 0
-0.092597 -0.138582 -0.249441 -0.504827 -0.504827 -0.700214 255 0 0
-0.294236 -0.000000 0.058527 -0.966298 0.192209 -0.171240 255 0 0
-0.271838 0.112599 0.058527 -0.966298 0.192209 -0.171240 255 0 0
-0.244648 0.048663 -0.166671 -0.966298 0.192209 -0.171240 255 0 0
0.163469 0.244648 -0.058527 0.759376 0.623203 0.186990 255 0 0
0.138582 0.207403 0.166671 0.759376 0.623203 0.186990 255 0 0
0.271838 0.112599 -0.058527 0.759376 0.623203 0.186990 255 0 0
-0.032516 -0.163469 -0.249441 0.000000 -0.000000 -1.000000 255 0 0
-0.092597 -0.138582 -0.249441 0.000000 -0.000000 -1.000000 255 0 0
0.138582 0.207403 0.166671 0.839128 0.448523 0.307718 255 0 0
0.249441 -0.000000 0.166671 0.839128 0.448523 0.307718 255 0 0
0.271838 0.112599 -0.058527 0.839128 0.448523 0.307718 255 0 0
-0.117854 -0.117854 0.249441 0.000000 0.000000 1.000000 255 0 0
0.032516 -0.163469 0.249441 0.000000 0.000000 1.000000 255 0 0
0.048663 -0.244648 -0.166671 -0.000000 -0.713933 -0.700214 255 0 0
-0.048664 -0.244648 -0.166671 -0.000000 -0.713933 -0.700214 255 0 0
-0.032516 -0.163469 -0.249441 -0.000000 -0.713933 -0.700214 255 0 0
-0.138582 -0.092598 -0.249441 0.000000 0.000000 -1.000000 255 0 0
-0.244648 -0.163469 -0.058527 -0.830930 -0.509884 0.222652 255 0 0
-0.163469 -0.244648 0.058527 -0.830930 -0.509884 0.222652 255 0 0
-0.176381 -0.176381 0.166671 -0.830930 -0.509884 0.222652 255 0 0
-0.244648 -0.163469 -0.058527 -0.655110 -0.655110 -0.376380 255 0 0
-0.207403 -0.138582 -0.166671 -0.655110 -0.655110 -0.376380 255 0 0
-0.163469 -0.244648 -0.058527 -0.655110 -0.655110 -0.376380 255 0 0
0.057403 0.288582 -0.058527 0.320076 0.772730 -0.548124 255 0 0
0.163469 0.244648 -0.058527 0.320076 0.772730 -0.548124 255 0 0
0.032516 0.163469 -0.249441 0.320076 0.772730 -0.548124 255 0 0
0.230453 -0.095457 -0.166671 0.372182 -0.453506 -0.809823 255 0 0
0.048663 -0.244648 -0.166671 0.372182 -0.453506 -0.809823 255 0 0
-0.032516 -0.163469 -0.249441 0.372182 -0.453506 -0.809823 255 0 0
0.032516 0.163469 -0.249441 -0.194491 0.641149 -0.742361 255 0 0
-0.117854 0.117854 -0.249441 -0.194491 0.641149 -0.742361 255 0 0
-0.138582 0.207402 -0.166671 -0.194491 0.641149 -0.742361 255 0 0
0.163469 0.244648 -0.058527 0.718617 0.589753 -0.368485 255 0 0
0.271838 0.112599 -0.058527 0.718617 0.589753 -0.368485 255 0 0
0.230453 0.095457 -0.166671 0.718617 0.589753 -0.368485 255 0 0
0.112599 -0.271838 0.058527 0.726081 -0.595879 0.343126 255 0 0
0.288582 -0.057403 0.058527 0.726081 -0.595879 0.343126 255 0 0
0.244648 -0.048664 0.166671 0.726081 -0.595879 0.343126 255 0 0
-0.138582 -0.207403 0.166671 -0.182205 -0.916003 0.357407 255 0 0
-0.163469 0.032516 -0.249441 -0.661269 -0.131534 -0.738527 255 0 0
-0.138582 -0.092598 -0.249441 -0.661269 -0.131534 -0.738527 255 0 0
-0.249441 -0.000000 -0.166671 -0.661269 -0.131534 -0.738527 255 0 0
0.000000 0.294236 -0.058527 0.081620 0.828695 -0.553717 255 0 0
0.057403 0.288582 -0.058527 0.081620 0.828695 -0.553717 255 0 0
0.032516 0.163469 -0.249441 0.081620 0.828695 -0.553717 255 0 0
-0.048664 -0.244648 -0.166671 -0.125157 -0.983200 -0.132865 255 0 0
0.057402 -0.288582 0.058527 -0.125157 -0.983200 -0.132865 255 0 0
-0.163469 -0.244648 -0.058527 -0.125157 -0.983200 -0.132865 255 0 0
0.000000 0.294236 -0.058527 -0.066470 0.817883 -0.571533 255 0 0
0.032516 0.163469 -0.249441 -0.066470 0.817883 -0.571533 255 0 0
-0.138582 0.207402 -0.166671 -0.066470 0.817883 -0.571533 255 0 0
-0.207403 -0.138582 -0.166671 -0.440068 -0.658607 -0.610390 255 0 0
-0.092597 -0.138582 -0.249441 -0.440068 -0.658607 -0.610390 255 0 0
-0.048664 -0.244648 -0.166671 -0.440068 -0.658607 -0.610390 255 0 0
-0.092597 -0.138582 -0.249441 -0.273210 -0.659588 -0.700214 255 0 0
-0.032516 -0.163469 -0.249441 -0.273210 -0.659588 -0.700214 255 0 0
-0.048664 -0.244648 -0.166671 -0.273210 -0.659588 -0.700214 255 0 0
-0.244648 -0.163469 -0.058527 -0.707107 -0.707106 -0.000000 255 0 0
-0.163469 -0.244648 -0.058527 -0.707107 -0.707106 -0.000000 255 0 0
-0.163469 -0.244648 0.058527 -0.707107 -0.707106 -0.000000 255 0 0
0.230453 0.095457 -0.166671 0.678290 0.205757 -0.705398 255 0 0
0.244648 0.048663 -0.166671 0.678290 0.205757 -0.705398 255 0 0
0.163469 0.032516 -0.249441 0.678290 0.205757 -0.705398 255 0 0
-0.138582 -0.092598 -0.249441 -0.691381 -0.209728 -0.691380 255 0 0
-0.207403 -0.138582 -0.166671 -0.691381 -0.209728 -0.691380 255 0 0
-0.249441 -0.000000 -0.166671 -0.691381 -0.209728 -0.691380 255 0 0
-0.117854 0.117854 -0.249441 -0.637180 0.340580 -0.691380 255 0 0
-0.163469 0.032516 -0.249441 -0.637180 0.340580 -0.691380 255 0 0
-0.244648 0.048663 -0.166671 -0.637180 0.340580 -0.691380 255 0 0
0.057402 -0.288582 0.058527 0.268377 -0.884720 0.381109 255 0 0
0.112599 -0.271838 0.058527 0.268377 -0.884720 0.381109 255 0 0
0.048663 -0.244648 0.166671 0.268377 -0.884720 0.381109 255 0 0
0.271838 -0.112599 -0.058527 0.956940 -0.290285 0.000000 255 0 0
0.288582 -0.057403 -0.058527 0.956940 -0.290285 0.000000 255 0 0
0.288582 -0.057403 0.058527 0.956940 -0.290285 0.000000 255 0 0
0.112599 -0.271838 0.058527 0.581574 -0.771412 -0.258253 255 0 0
0.048663 -0.244648 -0.166671 0.581574 -0.771412 -0.258253 255 0 0
0.271838 -0.112599 -0.058527 0.581574 -0.771412 -0.258253 255 0 0
0.249441 -0.000000 0.166671 0.661440 0.353547 0.661439 255 0 0
0.138582 0.207403 0.166671 0.661440 0.353547 0.661439 255 0 0
0.092598 0.138582 0.249441 0.661440 0.353547 0.661439 255 0 0
-0.153984 0.063782 0.249441 -0.436860 0.653806 0.617812 255 0 0
0.000000 0.166671 0.249441 -0.436860 0.653806 0.617812 255 0 0
-0.208056 0.208056 0.058527 -0.436860 0.653806 0.617812 255 0 0
-0.176381 0.176381 -0.166671 -0.637180 0.340580 -0.691380 255 0 0
0.244648 0.048663 -0.166671 0.719012 -0.070817 -0.691381 255 0 0
0.230453 -0.095457 -0.166671 0.719012 -0.070817 -0.691381 255 0 0
0.163469 0.032516 -0.249441 0.719012 -0.070817 -0.691381 255 0 0
-0.208056 0.208056 0.058527 -0.695439 0.464678 0.548124 255 0 0
-0.271838 0.112599 0.058527 -0.695439 0.464678 0.548124 255 0 0
-0.153984 0.063782 0.249441 -0.695439 0.464678 0.548124 255 0 0
0.138582 0.207403 0.166671 0.408615 0.892132 0.192705 255 0 0
0.163469 0.244648 -0.058527 0.408615 0.892132 0.192705 255 0 0
0.000000 0.294236 0.058527 0.408615 0.892132 0.192705 255 0 0
-0.117854 -0.117854 0.249441 -0.449666 -0.547919 0.705398 255 0 0
-0.176381 -0.176381 0.166671 -0.449666 -0.547919 0.705398 255 0 0
-0.138582 -0.207403 0.166671 -0.449666 -0.547919 0.705398 255 0 0
0.112599 -0.271838 0.058527 0.284759 -0.938725 -0.194186 255 0 0
0.057402 -0.288582 0.058527 0.284759 -0.938725 -0.194186 255 0 0
0.048663 -0.244648 -0.166671 0.284759 -0.938725 -0.194186 255 0 0
0.000000 0.294236 0.058527 -0.290286 0.956940 0.000000 255 0 0
0.000000 0.294236 -0.058527 -0.290286 0.956940 0.000000 255 0 0
-0.163468 0.244648 -0.058527 -0.290286 0.956940 0.000000 255 0 0
0.288582 -0.057403 0.058527 0.995185 0.098017 -0.000000 255 0 0
0.288582 -0.057403 -0.058527 0.995185 0.098017 -0.000000 255 0 0
0.271838 0.112599 -0.058527 0.995185 0.098017 -0.000000 255 0 0
0.000000 0.166671 0.249441 -0.325635 0.786151 0.525289 255 0 0
0.000000 0.294236 0.058527 -0.325635 0.786151 0.525289 255 0 0
-0.208056 0.208056 0.058527 -0.325635 0.786151 0.525289 255 0 0
-0.048664 -0.244648 -0.166671 -0.000000 -0.981497 -0.191480 255 0 0
0.048663 -0.244648 -0.166671 -0.000000 -0.981497 -0.191480 255 0 0
0.057402 -0.288582 0.058527 -0.000000 -0.981497 -0.191480 255 0 0
-0.208056 0.208056 -0.058527 -0.634393 0.773011 0.000000 255 0 0
-0.208056 0.208056 0.058527 -0.634393 0.773011 0.000000 255 0 0
-0.163468 0.244648 -0.058527 -0.634393 0.773011 0.000000 255 0 0
-0.249441 -0.000000 -0.166671 -0.705398 0.069476 -0.705398 255 0 0
-0.244648 0.048663 -0.166671 -0.705398 0.069476 -0.705398 255 0 0
-0.163469 0.032516 -0.249441 -0.705398 0.069476 -0.705398 255 0 0
0.095457 -0.230453 0.166671 0.268377 -0.884720 0.381109 255 0 0
-0.208056 0.208056 -0.058527 -0.586516 0.714672 -0.381108 255 0 0
-0.138582 0.207402 -0.166671 -0.586516 0.714672 -0.381108 255 0 0
-0.176381 0.176381 -0.166671 -0.586516 0.714672 -0.381108 255 0 0
0.163469 0.032516 -0.249441 0.363985 -0.363986 -0.857338 255 0 0
0.230453 -0.095457 -0.166671 0.363985 -0.363986 -0.857338 255 0 0
-0.032516 -0.163469 -0.249441 0.363985 -0.363986 -0.857338 255 0 0
0.057402 -0.288582 0.058527 -0.195091 -0.980785 0.000000 255 0 0
-0.163469 -0.244648 0.058527 -0.195091 -0.980785 0.000000 255 0 0
-0.163469 -0.244648 -0.058527 -0.195091 -0.980785 0.000000 255 0 0
-0.163468 0.244648 -0.058527 -0.269860 0.889603 -0.368486 255 0 0
0.000000 0.294236 -0.058527 -0.269860 0.889603 -0.368486 255 0 0
-0.138582 0.207402 -0.166671 -0.269860 0.889603 -0.368486 255 0 0
0.048663 -0.244648 0.166671 -0.143296 -0.720396 0.678598 255 0 0
0.032516 -0.163469 0.249441 -0.143296 -0.720396 0.678598 255 0 0
-0.138582 -0.207403 0.166671 -0.143296 -0.720396 0.678598 255 0 0
0.230453 0.095457 -0.166671 0.884720 0.268377 -0.381108 255 0 0
0.271838 0.112599 -0.058527 0.884720 0.268377 -0.381108 255 0 0
0.244648 0.048663 -0.166671 0.884720 0.268377 -0.381108 255 0 0
3 0 1 2
3 3 4 5
3 6 7 8
3 9 10 11
3 12 13 14
3 15 16 17
3 18 19 20
3 21 22 23
3 24 25 26
3 27 28 29
3 30 31 32
3 33 34 35
3 36 37 38
3 39 40 41
3 42 43 44
3 45 46 47
3 48 49 50
3 51 52 53
3 54 55 56
3 57 58 59
3 60 61 62
3 63 64 65
3 66 67 68
3 69 70 71
3 72 73 74
3 75 76 77
3 78 79 80
3 81 82 83
3 84 85 86
3 87 88 89
3 90 91 92
3 93 94 95
3 96 97 98
3 99 100 101
3 102 103 104
3 105 106 107
3 68 108 66
3 109 110 111
3 112 113 114
3 115 116 117
3 118 119 120
3 121 122 67
3 123 124 125
3 126 127 89
3 128 129 130
3 67 131 68
3 132 133 134
3 135 136 137
3 138 139 140
3 141 142 143
3 144 145 146
3 147 148 149
3 150 151 152
3 153 27 29
3 154 155 156
3 157 158 159
3 160 161 162
3 163 164 165
3 166 167 168
3 169 170 171
3 172 173 174
3 175 176 177
3 178 179 180
3 88 126 89
3 181 182 183
3 184 185 186
3 187 188 189
3 190 191 192
3 193 194 195
3 196 197 198
3 181 183 199
3 200 201 202
3 203 204 205
3 206 207 208
3 209 210 211
3 212 213 214
3 215 216 217
3 218 219 220
3 221 222 223
3 224 225 226
3 227 228 229
3 230 231 232
3 185 233 186
3 234 235 236
3 237 238 239
3 67 122 131
3 240 241 242
3 243 244 245
3 246 247 248
3 249 250 251
