ply
format ascii 1.0
comment Created by Blender 2.79 (sub 0) - www.blender.org, source file: 'Moon.blend'
element vertex 252
property float x
property float y
property float z
property float nx
property float ny
property float nz
property uchar red
property uchar green
property uchar blue
element face 90
property list uchar uint vertex_indices
end_header
0.000000 0.055557 0.083147 0.087107 0.828309 0.553458 68 65 64
0.046194 0.069134 0.055557 0.087107 0.828309 0.553458 68 65 64
0.000000 0.098079 0.019509 0.087107 0.828309 0.553458 68 65 64
-0.058794 0.058794 -0.055557 -0.819863 0.438226 -0.368486 68 65 64
-0.081549 0.016221 -0.055557 -0.819863 0.438226 -0.368486 68 65 64
-0.069352 0.069352 -0.019509 -0.819863 0.438226 -0.368486 68 65 64
-0.081549 0.016221 -0.055557 -0.976241 0.096152 -0.194186 68 65 64
-0.083147 -0.000000 -0.055557 -0.976241 0.096152 -0.194186 68 65 64
-0.098079 -0.000000 0.019509 -0.976241 0.096152 -0.194186 68 65 64
-0.069352 0.069352 -0.019509 -0.586516 0.714672 -0.381108 68 65 64
-0.054489 0.081549 -0.019509 -0.586516 0.714672 -0.381108 68 65 64
-0.046194 0.069134 -0.055557 -0.586516 0.714672 -0.381108 68 65 64
0.054490 0.081549 -0.019509 0.472591 0.646399 -0.599021 68 65 64
0.076818 0.031819 -0.055557 0.472591 0.646399 -0.599021 68 65 64
0.010839 0.054490 -0.083147 0.472591 0.646399 -0.599021 68 65 64
0.081549 -0.016221 0.055557 0.519665 -0.426478 0.740314 68 65 64
0.010839 -0.054490 0.083147 0.519665 -0.426478 0.740314 68 65 64
0.031819 -0.076818 0.055557 0.519665 -0.426478 0.740314 68 65 64
0.031819 -0.076818 0.055557 0.726080 -0.595879 0.343126 68 65 64
0.037533 -0.090613 0.019509 0.726080 -0.595879 0.343126 68 65 64
0.081549 -0.016221 0.055557 0.726080 -0.595879 0.343126 68 65 64
0.096194 -0.019134 -0.019509 0.889967 -0.087654 -0.447522 68 65 64
0.076818 -0.031819 -0.055557 0.889967 -0.087654 -0.447522 68 65 64
0.081549 0.016221 -0.055557 0.889967 -0.087654 -0.447522 68 65 64
0.096194 -0.019134 0.019509 0.759622 -0.623406 0.185307 68 65 64
0.037533 -0.090613 0.019509 0.759622 -0.623406 0.185307 68 65 64
0.090613 -0.037533 -0.019509 0.759622 -0.623406 0.185307 68 65 64
-0.054490 -0.081549 0.019509 -0.182205 -0.916003 0.357407 68 65 64
0.019134 -0.096194 0.019509 -0.182205 -0.916003 0.357407 68 65 64
0.016221 -0.081549 0.055557 -0.182205 -0.916003 0.357407 68 65 64
0.081549 -0.016221 0.055557 0.380786 -0.037504 0.923902 68 65 64
0.083147 -0.000000 0.055557 0.380786 -0.037504 0.923902 68 65 64
0.010839 -0.054490 0.083147 0.380786 -0.037504 0.923902 68 65 64
-0.051328 0.021261 0.083147 -0.820326 0.163173 0.548124 68 65 64
-0.090613 0.037533 0.019509 -0.820326 0.163173 0.548124 68 65 64
-0.098079 -0.000000 0.019509 -0.820326 0.163173 0.548124 68 65 64
-0.039285 0.039285 -0.083147 -0.449665 0.547919 -0.705398 68 65 64
-0.058794 0.058794 -0.055557 -0.449665 0.547919 -0.705398 68 65 64
-0.046194 0.069134 -0.055557 -0.449665 0.547919 -0.705398 68 65 64
0.016221 -0.081549 -0.055557 0.595879 -0.726081 -0.343126 68 65 64
0.076818 -0.031819 -0.055557 0.595879 -0.726081 -0.343126 68 65 64
0.090613 -0.037533 -0.019509 0.595879 -0.726081 -0.343126 68 65 64
0.090613 0.037533 -0.019509 0.951051 0.093670 -0.294498 68 65 64
0.096194 -0.019134 -0.019509 0.951051 0.093670 -0.294498 68 65 64
0.081549 0.016221 -0.055557 0.951051 0.093670 -0.294498 68 65 64
0.030866 0.046194 0.083147 0.209728 0.691381 0.691381 68 65 64
0.046194 0.069134 0.055557 0.209728 0.691381 0.691381 68 65 64
0.000000 0.055557 0.083147 0.209728 0.691381 0.691381 68 65 64
0.010839 -0.054490 0.083147 0.205757 -0.678291 0.705398 68 65 64
0.016221 -0.081549 0.055557 0.205757 -0.678291 0.705398 68 65 64
0.031819 -0.076818 0.055557 0.205757 -0.678291 0.705398 68 65 64
-0.054490 -0.081549 -0.019509 -0.478540 -0.716185 -0.508015 68 65 64
-0.069134 -0.046194 -0.055557 -0.478540 -0.716185 -0.508015 68 65 64
-0.016221 -0.081549 -0.055557 -0.478540 -0.716185 -0.508015 68 65 64
0.083147 -0.000000 0.055557 0.946490 0.241010 0.214639 68 65 64
0.096194 -0.019134 0.019509 0.946490 0.241010 0.214639 68 65 64
0.090613 0.037533 -0.019509 0.946490 0.241010 0.214639 68 65 64
-0.058794 -0.058794 0.055557 -0.868670 -0.434239 0.238430 68 65 64
-0.098079 -0.000000 0.019509 -0.868670 -0.434239 0.238430 68 65 64
-0.081549 -0.054490 -0.019509 -0.868670 -0.434239 0.238430 68 65 64
0.019134 0.096194 -0.019509 0.098017 0.995185 0.000000 68 65 64
0.000000 0.098079 -0.019509 0.098017 0.995185 0.000000 68 65 64
0.000000 0.098079 0.019509 0.098017 0.995185 0.000000 68 65 64
0.054490 0.081549 -0.019509 0.378828 0.914570 0.141601 68 65 64
0.019134 0.096194 -0.019509 0.378828 0.914570 0.141601 68 65 64
0.000000 0.098079 0.019509 0.378828 0.914570 0.141601 68 65 64
0.010839 0.054490 -0.083147 0.000000 0.000000 -1.000000 68 65 64
0.054490 0.010839 -0.083147 0.000000 0.000000 -1.000000 68 65 64
-0.054490 0.010839 -0.083147 0.000000 0.000000 -1.000000 68 65 64
-0.098079 -0.000000 0.019509 -0.968795 -0.155891 -0.192705 68 65 64
-0.083147 -0.000000 -0.055557 -0.968795 -0.155891 -0.192705 68 65 64
-0.081549 -0.054490 -0.019509 -0.968795 -0.155891 -0.192705 68 65 64
-0.069352 0.069352 0.019509 -0.378828 0.914570 0.141600 68 65 64
0.000000 0.098079 0.019509 -0.378828 0.914570 0.141600 68 65 64
-0.054489 0.081549 -0.019509 -0.378828 0.914570 0.141600 68 65 64
-0.090613 0.037533 0.019509 -0.831469 0.555571 0.000000 68 65 64
-0.069352 0.069352 0.019509 -0.831469 0.555571 0.000000 68 65 64
-0.069352 0.069352 -0.019509 -0.831469 0.555571 0.000000 68 65 64
-0.039285 -0.039285 0.083147 -0.754151 -0.150010 0.639338 68 65 64
-0.051328 0.021261 0.083147 -0.754151 -0.150010 0.639338 68 65 64
-0.058794 -0.058794 0.055557 -0.754151 -0.150010 0.639338 68 65 64
-0.054490 -0.081549 0.019509 -0.586516 -0.714671 0.381109 68 65 64
-0.046194 -0.069134 0.055557 -0.586516 -0.714671 0.381109 68 65 64
-0.058794 -0.058794 0.055557 -0.586516 -0.714671 0.381109 68 65 64
-0.083147 -0.000000 -0.055557 -0.889604 -0.269858 -0.368486 68 65 64
-0.069134 -0.046194 -0.055557 -0.889604 -0.269858 -0.368486 68 65 64
-0.081549 -0.054490 -0.019509 -0.889604 -0.269858 -0.368486 68 65 64
0.000000 0.055557 0.083147 0.000000 -0.000000 1.000000 68 65 64
-0.051328 0.021261 0.083147 0.000000 -0.000000 1.000000 68 65 64
0.030866 0.046194 0.083147 0.000000 -0.000000 1.000000 68 65 64
0.083147 -0.000000 0.055557 0.920078 -0.090620 0.381109 68 65 64
0.081549 -0.016221 0.055557 0.920078 -0.090620 0.381109 68 65 64
0.096194 -0.019134 0.019509 0.920078 -0.090620 0.381109 68 65 64
0.010839 -0.054490 0.083147 -0.194491 -0.641150 0.742361 68 65 64
-0.039285 -0.039285 0.083147 -0.194491 -0.641150 0.742361 68 65 64
-0.046194 -0.069134 0.055557 -0.194491 -0.641150 0.742361 68 65 64
-0.098079 -0.000000 0.019509 -0.775051 -0.140079 0.616177 68 65 64
-0.058794 -0.058794 0.055557 -0.775051 -0.140079 0.616177 68 65 64
-0.051328 0.021261 0.083147 -0.775051 -0.140079 0.616177 68 65 64
0.010839 -0.054490 0.083147 0.408131 -0.081182 0.909306 68 65 64
0.083147 -0.000000 0.055557 0.408131 -0.081182 0.909306 68 65 64
0.030866 0.046194 0.083147 0.408131 -0.081182 0.909306 68 65 64
-0.090613 0.037533 0.019509 -0.912160 0.351917 -0.210046 68 65 64
-0.069352 0.069352 -0.019509 -0.912160 0.351917 -0.210046 68 65 64
-0.081549 0.016221 -0.055557 -0.912160 0.351917 -0.210046 68 65 64
0.096194 -0.019134 -0.019509 0.884720 -0.268377 -0.381108 68 65 64
0.090613 -0.037533 -0.019509 0.884720 -0.268377 -0.381108 68 65 64
0.076818 -0.031819 -0.055557 0.884720 -0.268377 -0.381108 68 65 64
-0.039285 0.039285 -0.083147 0.000000 0.000000 -1.000000 68 65 64
0.054490 0.010839 -0.083147 0.473300 0.473300 -0.742950 68 65 64
0.010839 0.054490 -0.083147 0.473300 0.473300 -0.742950 68 65 64
0.076818 0.031819 -0.055557 0.473300 0.473300 -0.742950 68 65 64
-0.069134 -0.046194 -0.055557 -0.504827 -0.504827 -0.700214 68 65 64
-0.046194 -0.030866 -0.083147 -0.504827 -0.504827 -0.700214 68 65 64
-0.030866 -0.046194 -0.083147 -0.504827 -0.504827 -0.700214 68 65 64
-0.098079 -0.000000 0.019509 -0.966298 0.192209 -0.171240 68 65 64
-0.090613 0.037533 0.019509 -0.966298 0.192209 -0.171240 68 65 64
-0.081549 0.016221 -0.055557 -0.966298 0.192209 -0.171240 68 65 64
0.054490 0.081549 -0.019509 0.759376 0.623204 0.186990 68 65 64
0.046194 0.069134 0.055557 0.759376 0.623204 0.186990 68 65 64
0.090613 0.037533 -0.019509 0.759376 0.623204 0.186990 68 65 64
-0.010839 -0.054490 -0.083147 0.000000 -0.000000 -1.000000 68 65 64
-0.030866 -0.046194 -0.083147 0.000000 -0.000000 -1.000000 68 65 64
0.046194 0.069134 0.055557 0.839128 0.448523 0.307718 68 65 64
0.083147 -0.000000 0.055557 0.839128 0.448523 0.307718 68 65 64
0.090613 0.037533 -0.019509 0.839128 0.448523 0.307718 68 65 64
-0.039285 -0.039285 0.083147 0.000000 0.000000 1.000000 68 65 64
0.010839 -0.054490 0.083147 0.000000 0.000000 1.000000 68 65 64
0.016221 -0.081549 -0.055557 -0.000000 -0.713933 -0.700214 68 65 64
-0.016221 -0.081549 -0.055557 -0.000000 -0.713933 -0.700214 68 65 64
-0.010839 -0.054490 -0.083147 -0.000000 -0.713933 -0.700214 68 65 64
-0.046194 -0.030866 -0.083147 0.000000 0.000000 -1.000000 68 65 64
-0.081549 -0.054490 -0.019509 -0.830930 -0.509884 0.222652 68 65 64
-0.054490 -0.081549 0.019509 -0.830930 -0.509884 0.222652 68 65 64
-0.058794 -0.058794 0.055557 -0.830930 -0.509884 0.222652 68 65 64
-0.081549 -0.054490 -0.019509 -0.655110 -0.655110 -0.376380 68 65 64
-0.069134 -0.046194 -0.055557 -0.655110 -0.655110 -0.376380 68 65 64
-0.054490 -0.081549 -0.019509 -0.655110 -0.655110 -0.376380 68 65 64
0.019134 0.096194 -0.019509 0.320076 0.772730 -0.548124 68 65 64
0.054490 0.081549 -0.019509 0.320076 0.772730 -0.548124 68 65 64
0.010839 0.054490 -0.083147 0.320076 0.772730 -0.548124 68 65 64
0.076818 -0.031819 -0.055557 0.372182 -0.453506 -0.809823 68 65 64
0.016221 -0.081549 -0.055557 0.372182 -0.453506 -0.809823 68 65 64
-0.010839 -0.054490 -0.083147 0.372182 -0.453506 -0.809823 68 65 64
0.010839 0.054490 -0.083147 -0.194491 0.641150 -0.742361 68 65 64
-0.039285 0.039285 -0.083147 -0.194491 0.641150 -0.742361 68 65 64
-0.046194 0.069134 -0.055557 -0.194491 0.641150 -0.742361 68 65 64
0.054490 0.081549 -0.019509 0.718617 0.589753 -0.368485 68 65 64
0.090613 0.037533 -0.019509 0.718617 0.589753 -0.368485 68 65 64
0.076818 0.031819 -0.055557 0.718617 0.589753 -0.368485 68 65 64
0.037533 -0.090613 0.019509 0.726081 -0.595879 0.343126 68 65 64
0.096194 -0.019134 0.019509 0.726081 -0.595879 0.343126 68 65 64
0.081549 -0.016221 0.055557 0.726081 -0.595879 0.343126 68 65 64
-0.046194 -0.069134 0.055557 -0.182205 -0.916003 0.357407 68 65 64
-0.054490 0.010839 -0.083147 -0.661269 -0.131534 -0.738527 68 65 64
-0.046194 -0.030866 -0.083147 -0.661269 -0.131534 -0.738527 68 65 64
-0.083147 -0.000000 -0.055557 -0.661269 -0.131534 -0.738527 68 65 64
0.000000 0.098079 -0.019509 0.081620 0.828695 -0.553717 68 65 64
0.019134 0.096194 -0.019509 0.081620 0.828695 -0.553717 68 65 64
0.010839 0.054490 -0.083147 0.081620 0.828695 -0.553717 68 65 64
-0.016221 -0.081549 -0.055557 -0.125157 -0.983200 -0.132865 68 65 64
0.019134 -0.096194 0.019509 -0.125157 -0.983200 -0.132865 68 65 64
-0.054490 -0.081549 -0.019509 -0.125157 -0.983200 -0.132865 68 65 64
0.000000 0.098079 -0.019509 -0.066470 0.817883 -0.571533 68 65 64
0.010839 0.054490 -0.083147 -0.066470 0.817883 -0.571533 68 65 64
-0.046194 0.069134 -0.055557 -0.066470 0.817883 -0.571533 68 65 64
-0.069134 -0.046194 -0.055557 -0.440068 -0.658607 -0.610391 68 65 64
-0.030866 -0.046194 -0.083147 -0.440068 -0.658607 -0.610391 68 65 64
-0.016221 -0.081549 -0.055557 -0.440068 -0.658607 -0.610391 68 65 64
-0.030866 -0.046194 -0.083147 -0.273210 -0.659588 -0.700214 68 65 64
-0.010839 -0.054490 -0.083147 -0.273210 -0.659588 -0.700214 68 65 64
-0.016221 -0.081549 -0.055557 -0.273210 -0.659588 -0.700214 68 65 64
-0.081549 -0.054490 -0.019509 -0.707107 -0.707106 -0.000000 68 65 64
-0.054490 -0.081549 -0.019509 -0.707107 -0.707106 -0.000000 68 65 64
-0.054490 -0.081549 0.019509 -0.707107 -0.707106 -0.000000 68 65 64
0.076818 0.031819 -0.055557 0.678290 0.205757 -0.705398 68 65 64
0.081549 0.016221 -0.055557 0.678290 0.205757 -0.705398 68 65 64
0.054490 0.010839 -0.083147 0.678290 0.205757 -0.705398 68 65 64
-0.046194 -0.030866 -0.083147 -0.691381 -0.209728 -0.691380 68 65 64
-0.069134 -0.046194 -0.055557 -0.691381 -0.209728 -0.691380 68 65 64
-0.083147 -0.000000 -0.055557 -0.691381 -0.209728 -0.691380 68 65 64
-0.039285 0.039285 -0.083147 -0.637180 0.340580 -0.691380 68 65 64
-0.054490 0.010839 -0.083147 -0.637180 0.340580 -0.691380 68 65 64
-0.081549 0.016221 -0.055557 -0.637180 0.340580 -0.691380 68 65 64
0.019134 -0.096194 0.019509 0.268377 -0.884720 0.381109 68 65 64
0.037533 -0.090613 0.019509 0.268377 -0.884720 0.381109 68 65 64
0.016221 -0.081549 0.055557 0.268377 -0.884720 0.381109 68 65 64
0.090613 -0.037533 -0.019509 0.956940 -0.290285 0.000000 68 65 64
0.096194 -0.019134 -0.019509 0.956940 -0.290285 0.000000 68 65 64
0.096194 -0.019134 0.019509 0.956940 -0.290285 0.000000 68 65 64
0.037533 -0.090613 0.019509 0.581574 -0.771412 -0.258253 68 65 64
0.016221 -0.081549 -0.055557 0.581574 -0.771412 -0.258253 68 65 64
0.090613 -0.037533 -0.019509 0.581574 -0.771412 -0.258253 68 65 64
0.083147 -0.000000 0.055557 0.661440 0.353547 0.661440 68 65 64
0.046194 0.069134 0.055557 0.661440 0.353547 0.661440 68 65 64
0.030866 0.046194 0.083147 0.661440 0.353547 0.661440 68 65 64
-0.051328 0.021261 0.083147 -0.436860 0.653806 0.617812 68 65 64
0.000000 0.055557 0.083147 -0.436860 0.653806 0.617812 68 65 64
-0.069352 0.069352 0.019509 -0.436860 0.653806 0.617812 68 65 64
-0.058794 0.058794 -0.055557 -0.637180 0.340580 -0.691380 68 65 64
0.081549 0.016221 -0.055557 0.719012 -0.070817 -0.691380 68 65 64
0.076818 -0.031819 -0.055557 0.719012 -0.070817 -0.691380 68 65 64
0.054490 0.010839 -0.083147 0.719012 -0.070817 -0.691380 68 65 64
-0.069352 0.069352 0.019509 -0.695439 0.464678 0.548124 68 65 64
-0.090613 0.037533 0.019509 -0.695439 0.464678 0.548124 68 65 64
-0.051328 0.021261 0.083147 -0.695439 0.464678 0.548124 68 65 64
0.046194 0.069134 0.055557 0.408615 0.892132 0.192705 68 65 64
0.054490 0.081549 -0.019509 0.408615 0.892132 0.192705 68 65 64
0.000000 0.098079 0.019509 0.408615 0.892132 0.192705 68 65 64
-0.039285 -0.039285 0.083147 -0.449666 -0.547919 0.705397 68 65 64
-0.058794 -0.058794 0.055557 -0.449666 -0.547919 0.705397 68 65 64
-0.046194 -0.069134 0.055557 -0.449666 -0.547919 0.705397 68 65 64
0.037533 -0.090613 0.019509 0.284759 -0.938725 -0.194186 68 65 64
0.019134 -0.096194 0.019509 0.284759 -0.938725 -0.194186 68 65 64
0.016221 -0.081549 -0.055557 0.284759 -0.938725 -0.194186 68 65 64
0.000000 0.098079 0.019509 -0.290286 0.956940 0.000000 68 65 64
0.000000 0.098079 -0.019509 -0.290286 0.956940 0.000000 68 65 64
-0.054489 0.081549 -0.019509 -0.290286 0.956940 0.000000 68 65 64
0.096194 -0.019134 0.019509 0.995185 0.098017 -0.000000 68 65 64
0.096194 -0.019134 -0.019509 0.995185 0.098017 -0.000000 68 65 64
0.090613 0.037533 -0.019509 0.995185 0.098017 -0.000000 68 65 64
0.000000 0.055557 0.083147 -0.325635 0.786151 0.525289 68 65 64
0.000000 0.098079 0.019509 -0.325635 0.786151 0.525289 68 65 64
-0.069352 0.069352 0.019509 -0.325635 0.786151 0.525289 68 65 64
-0.016221 -0.081549 -0.055557 -0.000000 -0.981496 -0.191480 68 65 64
0.016221 -0.081549 -0.055557 -0.000000 -0.981496 -0.191480 68 65 64
0.019134 -0.096194 0.019509 -0.000000 -0.981496 -0.191480 68 65 64
-0.069352 0.069352 -0.019509 -0.634393 0.773011 0.000000 68 65 64
-0.069352 0.069352 0.019509 -0.634393 0.773011 0.000000 68 65 64
-0.054489 0.081549 -0.019509 -0.634393 0.773011 0.000000 68 65 64
-0.083147 -0.000000 -0.055557 -0.705398 0.069476 -0.705398 68 65 64
-0.081549 0.016221 -0.055557 -0.705398 0.069476 -0.705398 68 65 64
-0.054490 0.010839 -0.083147 -0.705398 0.069476 -0.705398 68 65 64
0.037533 -0.090613 0.019509 0.268376 -0.884721 0.381109 68 65 64
0.031819 -0.076818 0.055557 0.268376 -0.884721 0.381109 68 65 64
0.016221 -0.081549 0.055557 0.268376 -0.884721 0.381109 68 65 64
-0.058794 0.058794 -0.055557 -0.586516 0.714672 -0.381108 68 65 64
0.054490 0.010839 -0.083147 0.363985 -0.363986 -0.857338 68 65 64
0.076818 -0.031819 -0.055557 0.363985 -0.363986 -0.857338 68 65 64
-0.010839 -0.054490 -0.083147 0.363985 -0.363986 -0.857338 68 65 64
0.019134 -0.096194 0.019509 -0.195090 -0.980785 0.000000 68 65 64
-0.054490 -0.081549 0.019509 -0.195090 -0.980785 0.000000 68 65 64
-0.054490 -0.081549 -0.019509 -0.195090 -0.980785 0.000000 68 65 64
-0.054489 0.081549 -0.019509 -0.269860 0.889603 -0.368486 68 65 64
0.000000 0.098079 -0.019509 -0.269860 0.889603 -0.368486 68 65 64
-0.046194 0.069134 -0.055557 -0.269860 0.889603 -0.368486 68 65 64
0.016221 -0.081549 0.055557 -0.143296 -0.720396 0.678598 68 65 64
0.010839 -0.054490 0.083147 -0.143296 -0.720396 0.678598 68 65 64
-0.046194 -0.069134 0.055557 -0.143296 -0.720396 0.678598 68 65 64
0.076818 0.031819 -0.055557 0.884721 0.268377 -0.381108 68 65 64
0.090613 0.037533 -0.019509 0.884721 0.268377 -0.381108 68 65 64
0.081549 0.016221 -0.055557 0.884721 0.268377 -0.381108 68 65 64
3 0 1 2
3 3 4 5
3 6 7 8
3 9 10 11
3 12 13 14
3 15 16 17
3 18 19 20
3 21 22 23
3 24 25 26
3 27 28 29
3 30 31 32
3 33 34 35
3 36 37 38
3 39 40 41
3 42 43 44
3 45 46 47
3 48 49 50
3 51 52 53
3 54 55 56
3 57 58 59
3 60 61 62
3 63 64 65
3 66 67 68
3 69 70 71
3 72 73 74
3 75 76 77
3 78 79 80
3 81 82 83
3 84 85 86
3 87 88 89
3 90 91 92
3 93 94 95
3 96 97 98
3 99 100 101
3 102 103 104
3 105 106 107
3 68 108 66
3 109 110 111
3 112 113 114
3 115 116 117
3 118 119 120
3 121 122 67
3 123 124 125
3 126 127 89
3 128 129 130
3 67 131 68
3 132 133 134
3 135 136 137
3 138 139 140
3 141 142 143
3 144 145 146
3 147 148 149
3 150 151 152
3 153 27 29
3 154 155 156
3 157 158 159
3 160 161 162
3 163 164 165
3 166 167 168
3 169 170 171
3 172 173 174
3 175 176 177
3 178 179 180
3 88 126 89
3 181 182 183
3 184 185 186
3 187 188 189
3 190 191 192
3 193 194 195
3 196 197 198
3 181 183 199
3 200 201 202
3 203 204 205
3 206 207 208
3 209 210 211
3 212 213 214
3 215 216 217
3 218 219 220
3 221 222 223
3 224 225 226
3 227 228 229
3 230 231 232
3 233 234 235
3 9 11 236
3 237 238 239
3 67 122 131
3 240 241 242
3 243 244 245
3 246 247 248
3 249 250 251
