ply
format ascii 1.0
comment Created by Blender 2.79 (sub 0) - www.blender.org, source file: 'Saturn.blend'
element vertex 677
property float x
property float y
property float z
property float nx
property float ny
property float nz
property uchar red
property uchar green
property uchar blue
element face 261
property list uchar uint vertex_indices
end_header
0.592281 2.210424 0.000000 0.000000 0.000000 -1.000000 255 116 0
1.570923 2.720918 0.000000 0.000000 0.000000 -1.000000 255 116 0
1.144199 1.981812 0.000000 0.000000 0.000000 -1.000000 255 116 0
0.081811 0.269695 -1.365383 0.197003 0.434420 -0.878902 255 228 248
-0.127515 0.641063 -1.228745 0.197003 0.434420 -0.878902 255 123 0
0.375207 0.905828 -0.985194 0.197003 0.434420 -0.878902 255 157 5
1.130748 -0.755542 0.271814 0.715169 -0.586925 0.379542 255 108 0
0.958602 -0.640518 0.774062 0.715169 -0.586925 0.379542 255 212 13
0.815224 -0.815225 0.774062 0.715169 -0.586925 0.379542 255 212 13
2.221619 -2.221622 0.000000 -0.000000 0.000000 1.000000 255 116 0
2.902687 -1.202333 0.000000 -0.000000 0.000000 1.000000 255 116 0
1.815509 -1.393089 0.000000 -0.000000 0.000000 1.000000 255 116 0
0.961622 0.961622 0.271814 0.358017 0.911249 0.203592 255 121 0
0.520426 1.256420 -0.271814 0.358017 0.911249 0.203592 255 84 0
0.000000 1.281035 0.533183 0.358017 0.911249 0.203592 255 175 8
2.210424 0.592281 0.000000 -0.000000 -0.000000 1.000000 255 116 0
2.268821 -0.298696 0.000000 -0.000000 -0.000000 1.000000 255 116 0
3.114967 0.410093 0.000000 -0.000000 -0.000000 1.000000 255 116 0
-0.815224 -0.815224 0.774062 -0.468293 -0.802217 0.370336 255 212 13
-0.961622 -0.961622 0.271814 -0.468293 -0.802217 0.370336 255 100 0
-0.249917 -1.256420 0.533183 -0.468293 -0.802217 0.370336 255 195 10
-1.256420 0.249917 -0.533183 -0.823294 0.126456 -0.553350 255 184 9
-1.065141 0.441196 -0.774062 -0.823294 0.126456 -0.553350 255 204 12
-0.961622 0.191278 -0.985194 -0.823294 0.126456 -0.553350 255 137 2
-0.191279 -0.961623 0.985194 0.000000 -0.501938 0.864904 255 145 3
0.191279 -0.961623 0.985194 0.000000 -0.501938 0.864904 255 152 4
0.294798 -0.441197 1.287218 0.000000 -0.501938 0.864904 255 142 48
-3.141846 0.000000 0.000000 -0.000000 0.000000 -1.000000 255 116 0
-3.034790 0.813169 0.000000 -0.000000 0.000000 -1.000000 255 116 0
-2.288399 0.000000 0.000000 -0.000000 0.000000 -1.000000 255 116 0
0.755542 -1.130749 -0.271814 0.278880 -0.919346 -0.277541 255 98 0
-0.000000 -1.359939 -0.271814 0.278880 -0.919346 -0.277541 255 108 0
0.000000 -1.281035 -0.533183 0.278880 -0.919346 -0.277541 255 163 7
-1.065141 0.441196 -0.774062 -0.648939 0.433607 -0.625191 255 204 12
-0.815223 0.815223 -0.774062 -0.648939 0.433607 -0.625191 255 212 13
-0.905828 0.375206 -0.985194 -0.648939 0.433607 -0.625191 255 165 6
-0.905828 0.375206 0.985194 -0.441564 0.660847 0.606880 255 180 8
0.000000 0.980461 0.985194 -0.441564 0.660847 0.606880 255 131 1
-0.755541 1.130747 0.271814 -0.441564 0.660847 0.606880 255 92 0
0.294798 -0.441197 1.287218 -0.028871 -0.293128 0.955637 255 142 48
-0.248553 -0.132855 1.365383 -0.028871 -0.293128 0.955637 255 227 247
-0.375206 -0.375207 1.287218 -0.028871 -0.293128 0.955637 255 121 2
-0.813169 3.034790 0.000000 0.058796 0.015754 0.998146 255 116 0
-1.351601 2.341042 0.042666 0.058796 0.015754 0.998146 255 116 0
-0.592281 2.210424 0.000000 0.058796 0.015754 0.998146 255 116 0
-3.141846 0.000000 0.000000 -0.020328 -0.002676 0.999790 255 116 0
-3.034790 -0.813169 0.000000 -0.020328 -0.002676 0.999790 255 116 0
-1.351601 2.341042 0.042666 -0.020328 -0.002676 0.999790 255 116 0
-1.130748 -0.755542 0.271814 -0.715169 -0.586924 0.379543 255 94 0
-0.961622 -0.961622 0.271814 -0.715169 -0.586924 0.379543 255 100 0
-0.815224 -0.815224 0.774062 -0.715169 -0.586924 0.379543 255 212 13
0.191279 -0.961623 0.985194 0.000000 -0.780472 0.625191 255 152 4
-0.191279 -0.961623 0.985194 0.000000 -0.780472 0.625191 255 145 3
-0.224920 -1.130748 0.774062 0.000000 -0.780472 0.625191 255 195 11
-3.034790 -0.813169 0.000000 0.000000 0.000000 1.000000 255 116 0
-2.720919 -1.570923 0.000000 0.000000 0.000000 1.000000 255 116 0
-1.981812 -1.144199 0.000000 0.000000 0.000000 1.000000 255 116 0
0.294798 -0.711705 -1.158466 0.310497 -0.378341 -0.872038 255 148 5
0.203060 -0.490231 -1.287218 0.310497 -0.378341 -0.872038 255 122 0
0.441196 -0.294798 -1.287218 0.310497 -0.378341 -0.872038 255 122 0
0.191279 0.961622 -0.985194 0.151159 0.498304 -0.853723 255 131 1
0.375207 0.905828 -0.985194 0.151159 0.498304 -0.853723 255 157 5
-0.127515 0.641063 -1.228745 0.151159 0.498304 -0.853723 255 123 0
-0.815224 -0.815224 -0.774062 -0.742356 -0.239257 -0.625831 255 212 13
-1.281034 -0.000000 -0.533183 -0.742356 -0.239257 -0.625831 255 185 10
-0.961622 0.191278 -0.985194 -0.742356 -0.239257 -0.625831 255 137 2
0.000000 3.141846 0.000000 -0.034329 -0.000000 0.999411 255 116 0
0.000001 2.288399 0.000000 -0.034329 -0.000000 0.999411 255 116 0
0.606321 2.262820 0.020826 -0.034329 -0.000000 0.999411 255 116 0
-1.256419 0.520426 -0.271814 -0.773010 0.634394 0.000000 255 115 0
-1.256419 0.520426 0.271814 -0.773010 0.634394 0.000000 255 97 0
-0.755541 1.130747 0.271814 -0.773010 0.634394 0.000000 255 92 0
-0.755542 -0.150287 1.158466 -0.496751 -0.398713 0.770886 255 127 1
-0.958602 -0.640517 0.774062 -0.496751 -0.398713 0.770886 255 212 13
-0.375206 -0.375207 1.287218 -0.496751 -0.398713 0.770886 255 121 2
0.813168 -3.034790 0.000000 -0.000000 0.000000 1.000000 255 116 0
1.570923 -2.720918 0.000000 -0.000000 0.000000 1.000000 255 116 0
1.144199 -1.981812 0.000000 -0.000000 0.000000 1.000000 255 116 0
1.570923 2.720918 0.000000 0.010995 0.022296 0.999691 255 116 0
0.606321 2.262820 0.020826 0.010995 0.022296 0.999691 255 116 0
1.426112 1.858544 0.020826 0.010995 0.022296 0.999691 255 116 0
-0.645215 -2.407971 -0.036439 0.056386 -0.000000 -0.998409 255 116 0
0.000000 -2.288399 0.000000 0.056386 -0.000000 -0.998409 255 116 0
-0.000000 -3.141846 0.000000 0.056386 -0.000000 -0.998409 255 116 0
-0.265311 -1.333809 0.271814 0.152945 -0.980702 0.121783 255 103 0
-0.000000 -1.359939 -0.271814 0.152945 -0.980702 0.121783 255 108 0
0.490231 -1.183522 0.533183 0.152945 -0.980702 0.121783 255 196 11
0.815224 0.544715 0.985194 0.402049 0.752182 0.522091 255 198 11
0.961622 0.961622 0.271814 0.402049 0.752182 0.522091 255 121 0
0.000000 0.980461 0.985194 0.402049 0.752182 0.522091 255 131 1
0.000000 -1.281035 -0.533183 0.154156 -0.774992 -0.612881 255 163 7
-0.191279 -0.961623 -0.985194 0.154156 -0.774992 -0.612881 255 136 2
0.544715 -0.815224 -0.985194 0.154156 -0.774992 -0.612881 255 209 13
-2.221621 -2.221620 0.000000 0.000000 0.000000 1.000000 255 116 0
-1.144199 -1.981812 0.000000 0.000000 0.000000 1.000000 255 116 0
-1.618143 -1.618142 0.000000 0.000000 0.000000 1.000000 255 116 0
-1.333808 -0.265311 -0.271814 -0.820397 -0.438511 -0.366955 255 86 0
-0.815224 -0.815224 -0.774062 -0.820397 -0.438511 -0.366955 255 212 13
-0.961622 -0.961622 -0.271814 -0.820397 -0.438511 -0.366955 255 114 0
1.815509 1.393089 0.000000 -0.298576 -0.199502 0.933301 255 116 0
1.981812 1.144200 0.000000 -0.298576 -0.199502 0.933301 255 116 0
1.858545 1.426111 0.020826 -0.298576 -0.199502 0.933301 255 116 0
1.858545 1.426111 0.020826 -0.255347 -0.255347 0.932521 255 116 0
1.426112 1.858544 0.020826 -0.255347 -0.255347 0.932521 255 116 0
1.815509 1.393089 0.000000 -0.255347 -0.255347 0.932521 255 116 0
-2.720918 1.570924 0.000000 -0.000000 0.000000 -1.000000 255 116 0
-2.221621 2.221620 0.000000 -0.000000 0.000000 -1.000000 255 116 0
-1.618143 1.618142 0.000000 -0.000000 0.000000 -1.000000 255 116 0
0.000000 1.281035 0.533183 0.392769 0.765784 0.509222 255 175 8
0.000000 0.980461 0.985194 0.392769 0.765784 0.509222 255 131 1
0.961622 0.961622 0.271814 0.392769 0.765784 0.509222 255 121 0
0.755542 -1.130749 0.271814 0.707107 -0.707107 -0.000000 255 114 1
0.755542 -1.130749 -0.271814 0.707107 -0.707107 -0.000000 255 98 0
1.130748 -0.755542 0.271814 0.707107 -0.707107 -0.000000 255 108 0
-1.256420 0.249917 0.533183 -0.798908 0.090216 0.594648 255 169 7
-1.130748 -0.224920 0.774062 -0.798908 0.090216 0.594648 255 198 11
-0.905828 0.375206 0.985194 -0.798908 0.090216 0.594648 255 180 8
-0.191279 -0.961623 -0.985194 -0.242078 -0.798023 -0.551868 255 136 2
-0.249917 -1.256420 -0.533183 -0.242078 -0.798023 -0.551868 255 163 5
-0.490231 -1.183522 -0.533183 -0.242078 -0.798023 -0.551868 255 162 7
-0.961622 -0.961622 0.271814 -0.452878 -0.847274 0.277541 255 100 0
-0.265311 -1.333809 0.271814 -0.452878 -0.847274 0.277541 255 103 0
-0.249917 -1.256420 0.533183 -0.452878 -0.847274 0.277541 255 195 10
0.961622 0.961622 -0.271814 0.740321 0.607565 -0.287730 255 85 0
1.130748 0.755541 -0.271814 0.740321 0.607565 -0.287730 255 87 0
0.905829 0.905828 -0.533183 0.740321 0.607565 -0.287730 255 134 2
-0.127515 0.641063 -1.228745 -0.000001 0.604966 -0.796251 255 123 0
-0.191278 0.961622 -0.985194 -0.000001 0.604966 -0.796251 255 139 3
0.191279 0.961622 -0.985194 -0.000001 0.604966 -0.796251 255 131 1
1.333808 0.265310 -0.271814 0.995185 0.098017 0.000000 255 97 0
1.333808 0.265310 0.271814 0.995185 0.098017 0.000000 255 115 0
1.359939 -0.000001 0.271814 0.995185 0.098017 0.000000 255 111 0
0.000000 1.359939 -0.271814 -0.191233 0.961384 -0.197919 255 84 0
-0.249917 1.256419 -0.533183 -0.191233 0.961384 -0.197919 255 135 2
-0.520426 1.256419 -0.271814 -0.191233 0.961384 -0.197919 255 113 0
1.333808 0.265310 -0.271814 0.879543 0.086627 -0.467867 255 97 0
1.359939 -0.000001 -0.271814 0.879543 0.086627 -0.467867 255 101 0
0.961623 0.191278 -0.985194 0.879543 0.086627 -0.467867 255 141 3
0.961623 0.191278 -0.985194 0.707325 0.378073 -0.597288 255 141 3
0.693291 0.693291 -0.985194 0.707325 0.378073 -0.597288 255 209 13
1.065142 0.711705 -0.533183 0.707325 0.378073 -0.597288 255 136 2
0.490231 0.203060 1.287218 0.493237 0.263640 0.828982 255 122 0
0.905829 0.375206 0.985194 0.493237 0.263640 0.828982 255 163 6
0.815224 0.544715 0.985194 0.493237 0.263640 0.828982 255 198 11
-1.333808 -0.265311 0.271814 -0.990661 0.097572 0.095237 255 86 0
-1.256419 0.520426 0.271814 -0.990661 0.097572 0.095237 255 97 0
-1.333808 0.265311 -0.271814 -0.990661 0.097572 0.095237 255 108 0
0.000000 -2.288399 0.000000 0.000000 0.000000 1.000000 255 116 0
-0.592282 -2.210424 0.000000 0.000000 0.000000 1.000000 255 116 0
-0.000000 -3.141846 0.000000 0.000000 0.000000 1.000000 255 116 0
-0.375206 0.905828 -0.985194 -0.394445 0.394446 -0.829955 255 179 8
-0.127515 0.641063 -1.228745 -0.394445 0.394446 -0.829955 255 123 0
-0.905828 0.375206 -0.985194 -0.394445 0.394446 -0.829955 255 165 6
-0.127515 0.641063 -1.228745 -0.250786 0.206609 -0.945738 255 123 0
0.081811 0.269695 -1.365383 -0.250786 0.206609 -0.945738 255 228 248
-0.520426 -0.103520 -1.287218 -0.250786 0.206609 -0.945738 255 120 0
1.359939 -0.000001 -0.271814 0.890183 -0.270034 -0.366954 255 101 0
1.130748 -0.755542 -0.271814 0.890183 -0.270034 -0.366954 255 93 0
0.958602 -0.640518 -0.774062 0.890183 -0.270034 -0.366954 255 210 13
-2.221621 2.221620 0.000000 -0.054683 0.041960 0.997622 255 116 0
-2.720918 1.570924 0.000000 -0.054683 0.041960 0.997622 255 116 0
-1.351601 2.341042 0.042666 -0.054683 0.041960 0.997622 255 116 0
0.640517 -0.958602 0.774062 0.586924 -0.715170 0.379543 255 212 13
0.755542 -1.130749 0.271814 0.586924 -0.715170 0.379543 255 114 1
0.815224 -0.815225 0.774062 0.586924 -0.715170 0.379543 255 212 13
0.394765 0.078523 -1.333265 0.305936 0.352229 -0.884499 255 196 173
0.081811 0.269695 -1.365383 0.305936 0.352229 -0.884499 255 228 248
0.693291 0.693291 -0.985194 0.305936 0.352229 -0.884499 255 209 13
-1.333808 -0.265311 -0.271814 -0.877913 -0.469254 -0.095237 255 86 0
-0.961622 -0.961622 -0.271814 -0.877913 -0.469254 -0.095237 255 114 0
-1.130748 -0.755542 0.271814 -0.877913 -0.469254 -0.095237 255 94 0
0.000000 0.980461 0.985194 0.285543 0.534213 0.795665 255 131 1
0.000000 0.530622 1.287218 0.285543 0.534213 0.795665 255 121 0
0.815224 0.544715 0.985194 0.285543 0.534213 0.795665 255 198 11
0.441196 -0.294798 -1.287218 0.569869 -0.236048 -0.787103 255 122 0
0.520426 -0.103520 -1.287218 0.569869 -0.236048 -0.787103 255 121 0
0.980462 -0.000000 -0.985194 0.569869 -0.236048 -0.787103 255 132 2
-0.000000 -1.359939 -0.271814 0.290285 -0.956940 -0.000000 255 108 0
0.755542 -1.130749 -0.271814 0.290285 -0.956940 -0.000000 255 98 0
0.755542 -1.130749 0.271814 0.290285 -0.956940 -0.000000 255 114 1
-1.065141 0.441196 -0.774062 -0.742585 0.225261 -0.630734 255 204 12
-0.905828 0.375206 -0.985194 -0.742585 0.225261 -0.630734 255 165 6
-0.961622 0.191278 -0.985194 -0.742585 0.225261 -0.630734 255 137 2
-0.248553 -0.132855 1.365383 -0.007492 0.076062 0.997075 255 227 247
0.223617 0.334665 1.333265 -0.007492 0.076062 0.997075 255 144 54
-0.284610 0.284609 1.333265 -0.007492 0.076062 0.997075 255 118 0
0.294798 -0.441197 1.287218 0.446814 -0.255305 0.857424 255 142 48
0.427980 -0.640518 1.158466 0.446814 -0.255305 0.857424 255 175 9
0.815224 -0.544716 0.985194 0.446814 -0.255305 0.857424 255 207 12
0.980462 -0.000000 -0.985194 0.868141 -0.181851 -0.461802 255 132 2
1.359939 -0.000001 -0.271814 0.868141 -0.181851 -0.461802 255 101 0
0.958602 -0.640518 -0.774062 0.868141 -0.181851 -0.461802 255 210 13
-1.570923 -2.720919 0.000000 0.000000 0.000000 1.000000 255 116 0
-0.813171 -3.034790 0.000000 0.000000 0.000000 1.000000 255 116 0
-1.570923 2.720919 0.000000 -0.000000 0.000000 -1.000000 255 116 0
-2.288399 0.000000 0.000000 0.000000 -0.000000 1.000000 255 116 0
-2.210424 0.592281 0.000000 0.000000 -0.000000 1.000000 255 116 0
-1.351601 2.341042 0.042666 0.062819 -0.081868 0.994661 255 116 0
-1.618143 1.618142 0.000000 0.062819 -0.081868 0.994661 255 116 0
-1.144199 1.981812 0.000000 0.062819 -0.081868 0.994661 255 116 0
-1.333808 -0.265311 0.271814 -0.990103 0.097517 0.100925 255 86 0
-1.256420 0.249917 0.533183 -0.990103 0.097517 0.100925 255 169 7
-1.256419 0.520426 0.271814 -0.990103 0.097517 0.100925 255 97 0
0.815224 -0.815225 0.774062 0.450741 -0.549230 0.703689 255 212 13
0.815224 -0.544716 0.985194 0.450741 -0.549230 0.703689 255 207 12
0.427980 -0.640518 1.158466 0.450741 -0.549230 0.703689 255 175 9
0.958602 -0.640518 -0.774062 0.537372 -0.340797 -0.771421 255 210 13
0.544715 -0.815224 -0.985194 0.537372 -0.340797 -0.771421 255 209 13
0.441196 -0.294798 -1.287218 0.537372 -0.340797 -0.771421 255 122 0
-0.645215 -2.407971 -0.036439 0.067688 0.163413 -0.984233 255 116 0
-1.144199 -1.981812 0.000000 0.067688 0.163413 -0.984233 255 116 0
-0.592282 -2.210424 0.000000 0.067688 0.163413 -0.984233 255 116 0
0.544715 -0.815224 -0.985194 0.323842 -0.826142 -0.461104 255 209 13
0.755542 -1.130749 -0.271814 0.323842 -0.826142 -0.461104 255 98 0
0.000000 -1.281035 -0.533183 0.323842 -0.826142 -0.461104 255 163 7
0.980462 -0.000000 -0.985194 0.879543 0.086627 -0.467867 255 132 2
1.858545 1.426111 0.020826 0.004527 -0.071706 0.997416 255 116 0
1.981812 1.144200 0.000000 0.004527 -0.071706 0.997416 255 116 0
2.902687 1.202332 0.000000 0.004527 -0.071706 0.997416 255 116 0
-0.000000 -1.359939 -0.271814 -0.291158 -0.951811 -0.096345 255 108 0
-0.265311 -1.333809 0.271814 -0.291158 -0.951811 -0.096345 255 103 0
-0.490231 -1.183522 -0.533183 -0.291158 -0.951811 -0.096345 255 162 7
0.693291 0.693291 -0.985194 0.644638 0.529040 -0.551868 255 209 13
0.905829 0.905828 -0.533183 0.644638 0.529040 -0.551868 255 134 2
1.065142 0.711705 -0.533183 0.644638 0.529040 -0.551868 255 136 2
0.813170 3.034790 0.000000 0.000000 0.000000 -1.000000 255 116 0
0.592281 2.210424 0.000000 -0.138193 -0.333627 0.932521 255 116 0
1.144199 1.981812 0.000000 -0.138193 -0.333627 0.932521 255 116 0
0.606321 2.262820 0.020826 -0.138193 -0.333627 0.932521 255 116 0
-0.815223 0.815223 -0.774062 -0.770851 0.515066 -0.374827 255 212 13
-1.065141 0.441196 -0.774062 -0.770851 0.515066 -0.374827 255 204 12
-1.256419 0.520426 -0.271814 -0.770851 0.515066 -0.374827 255 115 0
-0.905828 0.375206 -0.985194 -0.369205 0.264786 -0.890829 255 165 6
-0.127515 0.641063 -1.228745 -0.369205 0.264786 -0.890829 255 123 0
-0.520426 -0.103520 -1.287218 -0.369205 0.264786 -0.890829 255 120 0
-0.815223 0.815223 -0.774062 -0.541347 0.739444 -0.400208 255 212 13
-0.755541 1.130747 -0.271814 -0.541347 0.739444 -0.400208 255 118 0
-0.490231 1.183521 -0.533183 -0.541347 0.739444 -0.400208 255 142 3
0.000001 2.288399 0.000000 -0.047135 -0.358026 0.932521 255 116 0
0.592281 2.210424 0.000000 -0.047135 -0.358026 0.932521 255 116 0
0.606321 2.262820 0.020826 -0.047135 -0.358026 0.932521 255 116 0
-2.210424 0.592281 0.000000 -0.000000 0.000000 -1.000000 255 116 0
-1.570923 -2.720919 0.000000 -0.015995 -0.020845 -0.999655 255 116 0
-2.221621 -2.221620 0.000000 -0.015995 -0.020845 -0.999655 255 116 0
-1.656500 -1.656499 -0.020826 -0.015995 -0.020845 -0.999655 255 116 0
-0.265311 -1.333809 0.271814 -0.471397 -0.881921 0.000000 255 103 0
-0.961622 -0.961622 0.271814 -0.471397 -0.881921 0.000000 255 100 0
-0.961622 -0.961622 -0.271814 -0.471397 -0.881921 0.000000 255 114 0
0.294798 -0.441197 1.287218 -0.046172 -0.468793 0.882100 255 142 48
-0.375206 -0.375207 1.287218 -0.046172 -0.468793 0.882100 255 121 2
-0.191279 -0.961623 0.985194 -0.046172 -0.468793 0.882100 255 145 3
-3.034790 0.813169 0.000000 -0.028776 0.003789 0.999579 255 116 0
-3.141846 0.000000 0.000000 -0.028776 0.003789 0.999579 255 116 0
-1.351601 2.341042 0.042666 -0.028776 0.003789 0.999579 255 116 0
-0.249917 1.256419 -0.533183 -0.278009 0.916473 -0.287730 255 135 2
-0.490231 1.183521 -0.533183 -0.278009 0.916473 -0.287730 255 142 3
-0.520426 1.256419 -0.271814 -0.278009 0.916473 -0.287730 255 113 0
0.223617 0.334665 1.333265 -0.020352 0.206640 0.978205 255 144 54
0.000000 0.530622 1.287218 -0.020352 0.206640 0.978205 255 121 0
-0.284610 0.284609 1.333265 -0.020352 0.206640 0.978205 255 118 0
-0.755541 1.130747 0.271814 -0.233997 0.964580 0.121782 255 92 0
0.000000 1.281035 0.533183 -0.233997 0.964580 0.121782 255 175 8
-0.520426 1.256419 -0.271814 -0.233997 0.964580 0.121782 255 113 0
2.221621 2.221621 0.000000 0.016410 0.021386 0.999637 255 116 0
1.570923 2.720918 0.000000 0.016410 0.021386 0.999637 255 116 0
1.426112 1.858544 0.020826 0.016410 0.021386 0.999637 255 116 0
-1.183522 0.490230 0.533183 -0.916473 0.278009 0.287730 255 169 7
-1.256419 0.520426 0.271814 -0.916473 0.278009 0.287730 255 97 0
-1.256420 0.249917 0.533183 -0.916473 0.278009 0.287730 255 169 7
2.902687 1.202332 0.000000 0.023271 0.015549 0.999608 255 116 0
2.221621 2.221621 0.000000 0.023271 0.015549 0.999608 255 116 0
1.858545 1.426111 0.020826 0.023271 0.015549 0.999608 255 116 0
-0.000000 -3.141846 0.000000 -0.007381 -0.056063 -0.998400 255 116 0
-0.813171 -3.034790 0.000000 -0.007381 -0.056063 -0.998400 255 116 0
-0.645215 -2.407971 -0.036439 -0.007381 -0.056063 -0.998400 255 116 0
-1.333808 -0.265311 -0.271814 -0.811968 -0.319638 -0.488405 255 86 0
-1.281034 -0.000000 -0.533183 -0.811968 -0.319638 -0.488405 255 185 10
-0.815224 -0.815224 -0.774062 -0.811968 -0.319638 -0.488405 255 212 13
0.427980 -0.640518 1.158466 0.334931 -0.626612 0.703689 255 175 9
0.191279 -0.961623 0.985194 0.334931 -0.626612 0.703689 255 152 4
0.640517 -0.958602 0.774062 0.334931 -0.626612 0.703689 255 212 13
-0.905828 0.375206 0.985194 -0.798023 0.242078 0.551868 255 180 8
-1.183522 0.490230 0.533183 -0.798023 0.242078 0.551868 255 169 7
-1.256420 0.249917 0.533183 -0.798023 0.242078 0.551868 255 169 7
0.755542 -1.130749 0.271814 0.665266 -0.665266 0.338883 255 114 1
1.130748 -0.755542 0.271814 0.665266 -0.665266 0.338883 255 108 0
0.815224 -0.815225 0.774062 0.665266 -0.665266 0.338883 255 212 13
1.065142 0.711705 -0.533183 0.740321 0.607565 -0.287730 255 136 2
0.520426 1.256420 -0.271814 0.194195 0.976284 0.095694 255 84 0
0.000000 1.359939 -0.271814 0.194195 0.976284 0.095694 255 84 0
0.000000 1.281035 0.533183 0.194195 0.976284 0.095694 255 175 8
-0.191278 0.961622 -0.985194 -0.242077 0.798023 -0.551868 255 139 3
-0.375206 0.905828 -0.985194 -0.242077 0.798023 -0.551868 255 179 8
-0.490231 1.183521 -0.533183 -0.242077 0.798023 -0.551868 255 142 3
-0.905828 0.375206 0.985194 -0.391224 0.585508 0.710017 255 180 8
-0.711705 0.294797 1.158466 -0.391224 0.585508 0.710017 255 138 3
0.000000 0.980461 0.985194 -0.391224 0.585508 0.710017 255 131 1
1.130748 0.755541 -0.271814 0.885864 0.366937 -0.283905 255 87 0
1.333808 0.265310 -0.271814 0.885864 0.366937 -0.283905 255 97 0
1.065142 0.711705 -0.533183 0.885864 0.366937 -0.283905 255 136 2
0.592280 -2.210424 0.000000 -0.000000 0.000000 1.000000 255 116 0
0.961623 0.191278 -0.985194 0.539655 0.053151 -0.840207 255 141 3
0.980462 -0.000000 -0.985194 0.539655 0.053151 -0.840207 255 132 2
0.520426 -0.103520 -1.287218 0.539655 0.053151 -0.840207 255 121 0
-0.000000 -1.359939 -0.271814 -0.093872 -0.953100 -0.287731 255 108 0
-0.249917 -1.256420 -0.533183 -0.093872 -0.953100 -0.287731 255 163 5
0.000000 -1.281035 -0.533183 -0.093872 -0.953100 -0.287731 255 163 7
-0.645215 -2.407971 -0.036439 0.023087 0.175363 -0.984233 255 116 0
-0.592282 -2.210424 0.000000 0.023087 0.175363 -0.984233 255 116 0
0.000000 -2.288399 0.000000 0.023087 0.175363 -0.984233 255 116 0
-0.813169 3.034790 0.000000 -0.037365 0.090206 0.995222 255 116 0
-1.570923 2.720919 0.000000 -0.037365 0.090206 0.995222 255 116 0
-1.351601 2.341042 0.042666 -0.037365 0.090206 0.995222 255 116 0
-0.248553 -0.132855 1.365383 -0.378723 0.038431 0.924712 255 227 247
-0.284610 0.284609 1.333265 -0.378723 0.038431 0.924712 255 118 0
-0.755542 -0.150287 1.158466 -0.378723 0.038431 0.924712 255 127 1
0.640517 -0.958602 0.774062 0.450741 -0.549230 0.703689 255 212 13
-2.210424 -0.592281 0.000000 0.000000 0.000000 1.000000 255 116 0
-0.755542 -0.150287 1.158466 -0.372851 -0.102581 0.922203 255 127 1
-0.375206 -0.375207 1.287218 -0.372851 -0.102581 0.922203 255 121 2
-0.248553 -0.132855 1.365383 -0.372851 -0.102581 0.922203 255 227 247
0.905829 0.905828 -0.533183 0.465348 0.696442 -0.546278 255 134 2
0.693291 0.693291 -0.985194 0.465348 0.696442 -0.546278 255 209 13
0.375207 0.905828 -0.985194 0.465348 0.696442 -0.546278 255 157 5
-1.351601 2.341042 0.042666 0.039490 -0.095337 0.994661 255 116 0
-1.144199 1.981812 0.000000 0.039490 -0.095337 0.994661 255 116 0
-0.592281 2.210424 0.000000 0.039490 -0.095337 0.994661 255 116 0
-1.981811 1.144200 0.000000 0.000000 -0.000000 1.000000 255 116 0
-0.248553 -0.132855 1.365383 0.100315 -0.074735 0.992145 255 227 247
0.294798 -0.441197 1.287218 0.100315 -0.074735 0.992145 255 142 48
0.334666 0.223616 1.333265 0.100315 -0.074735 0.992145 255 175 125
0.191279 -0.961623 0.985194 0.064883 -0.510504 0.857424 255 152 4
0.427980 -0.640518 1.158466 0.064883 -0.510504 0.857424 255 175 9
0.294798 -0.441197 1.287218 0.064883 -0.510504 0.857424 255 142 48
0.000000 0.980461 0.985194 -0.317562 0.528567 0.787256 255 131 1
-0.711705 0.294797 1.158466 -0.317562 0.528567 0.787256 255 138 3
0.000000 0.530622 1.287218 -0.317562 0.528567 0.787256 255 121 0
-1.144199 1.981812 0.000000 -0.000000 0.000000 -1.000000 255 116 0
-0.961622 -0.961622 -0.271814 -0.773010 -0.634393 -0.000000 255 114 0
-0.961622 -0.961622 0.271814 -0.773010 -0.634393 -0.000000 255 100 0
-1.130748 -0.755542 0.271814 -0.773010 -0.634393 -0.000000 255 94 0
-1.981811 1.144200 0.000000 -0.000000 0.000000 -1.000000 255 116 0
0.958602 -0.640518 0.774062 0.890183 -0.270034 0.366954 255 212 13
1.130748 -0.755542 0.271814 0.890183 -0.270034 0.366954 255 108 0
1.359939 -0.000001 0.271814 0.890183 -0.270034 0.366954 255 111 0
1.130748 0.755541 -0.271814 0.773011 0.634393 0.000000 255 87 0
0.961622 0.961622 -0.271814 0.773011 0.634393 0.000000 255 85 0
0.961622 0.961622 0.271814 0.773011 0.634393 0.000000 255 121 0
-1.256420 0.249917 -0.533183 -0.916473 0.278009 -0.287730 255 184 9
-1.333808 0.265311 -0.271814 -0.916473 0.278009 -0.287730 255 108 0
-1.256419 0.520426 -0.271814 -0.916473 0.278009 -0.287730 255 115 0
0.223617 0.334665 1.333265 0.348837 0.412208 0.841663 255 144 54
0.490231 0.203060 1.287218 0.348837 0.412208 0.841663 255 122 0
0.815224 0.544715 0.985194 0.348837 0.412208 0.841663 255 198 11
1.815509 1.393089 0.000000 0.000000 0.000000 -1.000000 255 116 0
2.221621 2.221621 0.000000 0.000000 0.000000 -1.000000 255 116 0
0.813170 3.034790 0.000000 0.003430 0.026050 0.999655 255 116 0
0.000000 3.141846 0.000000 0.003430 0.026050 0.999655 255 116 0
0.606321 2.262820 0.020826 0.003430 0.026050 0.999655 255 116 0
2.114205 -0.875733 0.000000 -0.000000 0.000000 1.000000 255 116 0
0.203060 -0.490231 -1.287218 -0.175221 -0.423020 -0.889017 255 122 0
-0.191279 -0.961623 -0.985194 -0.175221 -0.423020 -0.889017 255 136 2
-0.490231 -0.203061 -1.287218 -0.175221 -0.423020 -0.889017 255 120 0
-0.815224 -0.815224 -0.774062 -0.368838 -0.714389 -0.594648 255 212 13
-0.191279 -0.961623 -0.985194 -0.368838 -0.714389 -0.594648 255 136 2
-0.490231 -1.183522 -0.533183 -0.368838 -0.714389 -0.594648 255 162 7
-1.256420 0.249917 0.533183 -0.924311 -0.052899 0.377956 255 169 7
-1.333808 -0.265311 0.271814 -0.924311 -0.052899 0.377956 255 86 0
-1.130748 -0.224920 0.774062 -0.924311 -0.052899 0.377956 255 198 11
3.114967 -0.410093 0.000000 -0.000000 0.000000 1.000000 255 116 0
0.640517 -0.958602 0.774062 0.526567 -0.759945 0.381066 255 212 13
0.490231 -1.183522 0.533183 0.526567 -0.759945 0.381066 255 196 11
0.755542 -1.130749 0.271814 0.526567 -0.759945 0.381066 255 114 1
1.359939 -0.000001 0.271814 0.868141 -0.181851 0.461802 255 111 0
0.980462 -0.000000 0.985194 0.868141 -0.181851 0.461802 255 130 1
0.958602 -0.640518 0.774062 0.868141 -0.181851 0.461802 255 212 13
-1.281034 -0.000000 -0.533183 -0.980219 0.000000 -0.197917 255 185 10
-1.333808 -0.265311 -0.271814 -0.980219 0.000000 -0.197917 255 86 0
-1.333808 0.265311 -0.271814 -0.980219 0.000000 -0.197917 255 108 0
0.294798 -0.441197 1.287218 0.475097 -0.144119 0.868051 255 142 48
0.980462 -0.000000 0.985194 0.475097 -0.144119 0.868051 255 130 1
0.490231 0.203060 1.287218 0.475097 -0.144119 0.868051 255 122 0
-1.618143 -1.618142 0.000000 0.219832 0.286491 -0.932522 255 116 0
-1.144199 -1.981812 0.000000 0.219832 0.286491 -0.932522 255 116 0
-1.656500 -1.656499 -0.020826 0.219832 0.286491 -0.932522 255 116 0
-0.490231 -1.183522 -0.533183 -0.444813 -0.894603 -0.042732 255 162 7
-0.265311 -1.333809 0.271814 -0.444813 -0.894603 -0.042732 255 103 0
-0.961622 -0.961622 -0.271814 -0.444813 -0.894603 -0.042732 255 114 0
-0.711705 0.294797 1.158466 -0.314545 0.513345 0.798460 255 138 3
-0.284610 0.284609 1.333265 -0.314545 0.513345 0.798460 255 118 0
0.000000 0.530622 1.287218 -0.314545 0.513345 0.798460 255 121 0
-0.191279 -0.961623 -0.985194 -0.081739 -0.829916 -0.551868 255 136 2
0.000000 -1.281035 -0.533183 -0.081739 -0.829916 -0.551868 255 163 7
-0.249917 -1.256420 -0.533183 -0.081739 -0.829916 -0.551868 255 163 5
-0.958602 -0.640517 0.774062 -0.493215 -0.404772 0.769999 255 212 13
-0.815224 -0.815224 0.774062 -0.493215 -0.404772 0.769999 255 212 13
-0.375206 -0.375207 1.287218 -0.493215 -0.404772 0.769999 255 121 2
0.905829 0.375206 0.985194 0.856342 0.170337 0.487507 255 163 6
0.980462 -0.000000 0.985194 0.856342 0.170337 0.487507 255 130 1
1.333808 0.265310 0.271814 0.856342 0.170337 0.487507 255 115 0
-1.333808 0.265311 -0.271814 -0.953100 0.093872 -0.287730 255 108 0
-1.256420 0.249917 -0.533183 -0.953100 0.093872 -0.287730 255 184 9
-1.281034 -0.000000 -0.533183 -0.953100 0.093872 -0.287730 255 185 10
-0.249917 -1.256420 0.533183 -0.420100 -0.785952 0.453646 255 195 10
-0.224920 -1.130748 0.774062 -0.420100 -0.785952 0.453646 255 195 11
-0.815224 -0.815224 0.774062 -0.420100 -0.785952 0.453646 255 212 13
0.490231 -1.183522 0.533183 0.269419 -0.781976 0.562074 255 196 11
0.640517 -0.958602 0.774062 0.269419 -0.781976 0.562074 255 212 13
0.191279 -0.961623 0.985194 0.269419 -0.781976 0.562074 255 152 4
1.426112 1.858544 0.020826 -0.143790 -0.163962 0.975931 255 116 0
1.144199 1.981812 0.000000 -0.143790 -0.163962 0.975931 255 116 0
1.815509 1.393089 0.000000 -0.143790 -0.163962 0.975931 255 116 0
-0.191279 -0.961623 -0.985194 -0.379803 -0.467504 -0.798241 255 136 2
-0.815224 -0.815224 -0.774062 -0.379803 -0.467504 -0.798241 255 212 13
-0.490231 -0.203061 -1.287218 -0.379803 -0.467504 -0.798241 255 120 0
0.000001 2.288399 0.000000 0.000000 0.000000 -1.000000 255 116 0
-0.755541 1.130747 -0.271814 -0.451462 0.844627 -0.287729 255 118 0
-0.520426 1.256419 -0.271814 -0.451462 0.844627 -0.287729 255 113 0
-0.490231 1.183521 -0.533183 -0.451462 0.844627 -0.287729 255 142 3
-0.520426 -0.103520 -1.287218 -0.489194 0.148395 -0.859458 255 120 0
-0.961622 0.191278 -0.985194 -0.489194 0.148395 -0.859458 255 137 2
-0.905828 0.375206 -0.985194 -0.489194 0.148395 -0.859458 255 165 6
0.000000 1.281035 0.533183 -0.194197 0.976284 0.095694 255 175 8
0.000000 1.359939 -0.271814 -0.194197 0.976284 0.095694 255 84 0
-0.520426 1.256419 -0.271814 -0.194197 0.976284 0.095694 255 113 0
-0.127515 0.641063 -1.228745 -0.173988 0.573564 -0.800470 255 123 0
-0.375206 0.905828 -0.985194 -0.173988 0.573564 -0.800470 255 179 8
-0.191278 0.961622 -0.985194 -0.173988 0.573564 -0.800470 255 139 3
0.520426 1.256420 -0.271814 0.532710 0.797257 -0.283905 255 84 0
0.961622 0.961622 -0.271814 0.532710 0.797257 -0.283905 255 85 0
0.905829 0.905828 -0.533183 0.532710 0.797257 -0.283905 255 134 2
0.815224 -0.544716 0.985194 0.475097 -0.144119 0.868051 255 207 12
-1.130748 -0.224920 0.774062 -0.856524 -0.354783 0.374827 255 198 11
-1.333808 -0.265311 0.271814 -0.856524 -0.354783 0.374827 255 86 0
-1.130748 -0.755542 0.271814 -0.856524 -0.354783 0.374827 255 94 0
0.980462 -0.000000 -0.985194 0.579348 -0.272934 -0.768025 255 132 2
0.958602 -0.640518 -0.774062 0.579348 -0.272934 -0.768025 255 210 13
0.441196 -0.294798 -1.287218 0.579348 -0.272934 -0.768025 255 122 0
1.981812 1.144200 0.000000 0.000000 0.000000 -1.000000 255 116 0
-0.961622 -0.961622 -0.271814 -0.557504 -0.739147 -0.377956 255 114 0
-0.815224 -0.815224 -0.774062 -0.557504 -0.739147 -0.377956 255 212 13
-0.490231 -1.183522 -0.533183 -0.557504 -0.739147 -0.377956 255 162 7
0.520426 -0.103520 -1.287218 0.222288 -0.092075 -0.970624 255 121 0
0.441196 -0.294798 -1.287218 0.222288 -0.092075 -0.970624 255 122 0
0.394765 0.078523 -1.333265 0.222288 -0.092075 -0.970624 255 196 173
0.961622 0.961622 0.271814 0.802287 0.428831 0.415258 255 121 0
0.815224 0.544715 0.985194 0.802287 0.428831 0.415258 255 198 11
0.905829 0.375206 0.985194 0.802287 0.428831 0.415258 255 163 6
2.902687 1.202332 0.000000 -0.000000 -0.000000 1.000000 255 116 0
0.294798 -0.441197 1.287218 0.272784 -0.082748 0.958510 255 142 48
0.490231 0.203060 1.287218 0.272784 -0.082748 0.958510 255 122 0
0.334666 0.223616 1.333265 0.272784 -0.082748 0.958510 255 175 125
0.000000 1.359939 -0.271814 0.174821 0.878882 -0.443851 255 84 0
0.520426 1.256420 -0.271814 0.174821 0.878882 -0.443851 255 84 0
0.191279 0.961622 -0.985194 0.174821 0.878882 -0.443851 255 131 1
0.000000 0.530622 1.287218 0.289069 0.518912 0.804469 255 121 0
0.223617 0.334665 1.333265 0.289069 0.518912 0.804469 255 144 54
0.815224 0.544715 0.985194 0.289069 0.518912 0.804469 255 198 11
-1.130748 -0.755542 0.271814 -0.856524 -0.354784 0.374827 255 94 0
-0.958602 -0.640517 0.774062 -0.856524 -0.354784 0.374827 255 212 13
-1.130748 -0.224920 0.774062 -0.856524 -0.354784 0.374827 255 198 11
-0.191279 -0.961623 -0.985194 0.147378 -0.740919 -0.655224 255 136 2
0.294798 -0.711705 -1.158466 0.147378 -0.740919 -0.655224 255 148 5
0.544715 -0.815224 -0.985194 0.147378 -0.740919 -0.655224 255 209 13
-2.720919 -1.570923 0.000000 -0.017164 0.029729 -0.999411 255 116 0
-1.981812 -1.144199 0.000000 -0.017164 0.029729 -0.999411 255 116 0
-1.656500 -1.656499 -0.020826 -0.017164 0.029729 -0.999411 255 116 0
-1.656500 -1.656499 -0.020826 -0.031859 -0.022113 -0.999248 255 116 0
-0.645215 -2.407971 -0.036439 -0.031859 -0.022113 -0.999248 255 116 0
-1.570923 -2.720919 0.000000 -0.031859 -0.022113 -0.999248 255 116 0
-0.592281 2.210424 0.000000 -0.000000 0.000000 -1.000000 255 116 0
-0.813169 3.034790 0.000000 -0.000000 0.000000 -1.000000 255 116 0
0.490231 -1.183522 0.533183 0.094166 -0.956088 0.277540 255 196 11
-0.249917 -1.256420 0.533183 0.094166 -0.956088 0.277540 255 195 10
-0.265311 -1.333809 0.271814 0.094166 -0.956088 0.277540 255 103 0
-0.375206 -0.375207 1.287218 -0.380715 -0.514969 0.768025 255 121 2
-0.815224 -0.815224 0.774062 -0.380715 -0.514969 0.768025 255 212 13
-0.191279 -0.961623 0.985194 -0.380715 -0.514969 0.768025 255 145 3
-0.490231 1.183521 -0.533183 -0.242078 0.798023 -0.551868 255 142 3
-0.249917 1.256419 -0.533183 -0.242078 0.798023 -0.551868 255 135 2
-0.191278 0.961622 -0.985194 -0.242078 0.798023 -0.551868 255 139 3
0.905829 0.905828 -0.533183 0.399153 0.788110 -0.468572 255 134 2
0.375207 0.905828 -0.985194 0.399153 0.788110 -0.468572 255 157 5
0.520426 1.256420 -0.271814 0.399153 0.788110 -0.468572 255 84 0
1.065142 0.711705 -0.533183 0.850838 0.237731 -0.468572 255 136 2
1.333808 0.265310 -0.271814 0.850838 0.237731 -0.468572 255 97 0
0.961623 0.191278 -0.985194 0.850838 0.237731 -0.468572 255 141 3
-0.375206 0.905828 -0.985194 -0.413534 0.725077 -0.550684 255 179 8
-0.815223 0.815223 -0.774062 -0.413534 0.725077 -0.550684 255 212 13
-0.490231 1.183521 -0.533183 -0.413534 0.725077 -0.550684 255 142 3
1.144199 1.981812 0.000000 -0.365992 -0.742158 0.561473 255 116 0
1.426112 1.858544 0.020826 -0.365992 -0.742158 0.561473 255 116 0
0.606321 2.262820 0.020826 -0.365992 -0.742158 0.561473 255 116 0
-1.256419 0.520426 0.271814 -0.956940 0.290285 0.000000 255 97 0
-1.256419 0.520426 -0.271814 -0.956940 0.290285 0.000000 255 115 0
-1.333808 0.265311 -0.271814 -0.956940 0.290285 0.000000 255 108 0
0.294798 -0.711705 -1.158466 -0.040647 -0.514702 -0.856405 255 148 5
-0.191279 -0.961623 -0.985194 -0.040647 -0.514702 -0.856405 255 136 2
0.203060 -0.490231 -1.287218 -0.040647 -0.514702 -0.856405 255 122 0
0.334666 0.223616 1.333265 0.034139 0.034139 0.998834 255 175 125
0.223617 0.334665 1.333265 0.034139 0.034139 0.998834 255 144 54
-0.248553 -0.132855 1.365383 0.034139 0.034139 0.998834 255 227 247
-0.490231 -0.203061 -1.287218 -0.108547 -0.032927 -0.993546 255 120 0
-0.520426 -0.103520 -1.287218 -0.108547 -0.032927 -0.993546 255 120 0
0.081811 0.269695 -1.365383 -0.108547 -0.032927 -0.993546 255 228 248
-0.961622 0.191278 -0.985194 -0.639064 -0.193858 -0.744323 255 137 2
-0.520426 -0.103520 -1.287218 -0.639064 -0.193858 -0.744323 255 120 0
-0.490231 -0.203061 -1.287218 -0.639064 -0.193858 -0.744323 255 120 0
-1.130748 -0.224920 0.774062 -0.661143 -0.273854 0.698494 255 198 11
-0.958602 -0.640517 0.774062 -0.661143 -0.273854 0.698494 255 212 13
-0.755542 -0.150287 1.158466 -0.661143 -0.273854 0.698494 255 127 1
1.333808 0.265310 0.271814 0.802287 0.428831 0.415257 255 115 0
0.961622 0.961622 0.271814 0.802287 0.428831 0.415257 255 121 0
0.905829 0.375206 0.985194 0.802287 0.428831 0.415257 255 163 6
-0.224920 -1.130748 0.774062 0.087351 -0.886890 0.453647 255 195 11
-0.249917 -1.256420 0.533183 0.087351 -0.886890 0.453647 255 195 10
0.490231 -1.183522 0.533183 0.087351 -0.886890 0.453647 255 196 11
-3.034790 -0.813169 0.000000 -0.000000 -0.000000 -1.000000 255 116 0
-0.755542 -0.150287 1.158466 -0.649656 0.063986 0.757531 255 127 1
-0.711705 0.294797 1.158466 -0.649656 0.063986 0.757531 255 138 3
-0.905828 0.375206 0.985194 -0.649656 0.063986 0.757531 255 180 8
0.191279 0.961622 -0.985194 -0.000001 0.837604 -0.546278 255 131 1
-0.191278 0.961622 -0.985194 -0.000001 0.837604 -0.546278 255 139 3
-0.249917 1.256419 -0.533183 -0.000001 0.837604 -0.546278 255 135 2
1.130748 -0.755542 -0.271814 0.707107 -0.707107 0.000000 255 93 0
0.520426 1.256420 -0.271814 0.256553 0.845743 -0.467867 255 84 0
0.375207 0.905828 -0.985194 0.256553 0.845743 -0.467867 255 157 5
0.191279 0.961622 -0.985194 0.256553 0.845743 -0.467867 255 131 1
-0.813171 -3.034790 0.000000 -0.021639 -0.052242 -0.998400 255 116 0
-1.570923 -2.720919 0.000000 -0.021639 -0.052242 -0.998400 255 116 0
-0.645215 -2.407971 -0.036439 -0.021639 -0.052242 -0.998400 255 116 0
0.000000 3.141846 0.000000 0.000000 0.000000 -1.000000 255 116 0
-1.256419 0.520426 0.271814 -0.742642 0.609471 0.277540 255 97 0
-1.183522 0.490230 0.533183 -0.742642 0.609471 0.277540 255 169 7
-0.755541 1.130747 0.271814 -0.742642 0.609471 0.277540 255 92 0
0.980462 -0.000000 0.985194 0.879543 0.086627 0.467867 255 130 1
1.359939 -0.000001 0.271814 0.879543 0.086627 0.467867 255 111 0
1.333808 0.265310 0.271814 0.879543 0.086627 0.467867 255 115 0
0.815224 -0.544716 0.985194 0.599855 -0.492289 0.630735 255 207 12
0.815224 -0.815225 0.774062 0.599855 -0.492289 0.630735 255 212 13
0.958602 -0.640518 0.774062 0.599855 -0.492289 0.630735 255 212 13
-0.490231 -1.183522 -0.533183 -0.288803 -0.952054 -0.100926 255 162 7
-0.249917 -1.256420 -0.533183 -0.288803 -0.952054 -0.100926 255 163 5
-0.000000 -1.359939 -0.271814 -0.288803 -0.952054 -0.100926 255 108 0
-1.981811 1.144200 0.000000 0.847713 -0.456033 0.270954 255 116 0
-1.351601 2.341042 0.042666 0.847713 -0.456033 0.270954 255 116 0
-3.034790 -0.813169 0.000000 0.847713 -0.456033 0.270954 255 116 0
0.375207 0.905828 -0.985194 0.267539 0.400401 -0.876414 255 157 5
0.693291 0.693291 -0.985194 0.267539 0.400401 -0.876414 255 209 13
0.081811 0.269695 -1.365383 0.267539 0.400401 -0.876414 255 228 248
2.221621 2.221621 0.000000 0.017970 0.017970 0.999677 255 116 0
1.426112 1.858544 0.020826 0.017970 0.017970 0.999677 255 116 0
1.858545 1.426111 0.020826 0.017970 0.017970 0.999677 255 116 0
1.130748 -0.755542 -0.271814 0.655555 -0.655555 -0.374827 255 93 0
0.755542 -1.130749 -0.271814 0.655555 -0.655555 -0.374827 255 98 0
0.958602 -0.640518 -0.774062 0.655555 -0.655555 -0.374827 255 210 13
-0.755541 1.130747 -0.271814 -0.739036 0.606512 -0.293205 255 118 0
-0.815223 0.815223 -0.774062 -0.739036 0.606512 -0.293205 255 212 13
-1.256419 0.520426 -0.271814 -0.739036 0.606512 -0.293205 255 115 0
0.544715 -0.815224 -0.985194 0.406270 -0.396852 -0.823076 255 209 13
0.294798 -0.711705 -1.158466 0.406270 -0.396852 -0.823076 255 148 5
0.441196 -0.294798 -1.287218 0.406270 -0.396852 -0.823076 255 122 0
-0.815223 0.815223 -0.774062 -0.459371 0.459371 -0.760235 255 212 13
-0.375206 0.905828 -0.985194 -0.459371 0.459371 -0.760235 255 179 8
-0.905828 0.375206 -0.985194 -0.459371 0.459371 -0.760235 255 165 6
0.693291 0.693291 -0.985194 0.469743 0.251083 -0.846344 255 209 13
0.961623 0.191278 -0.985194 0.469743 0.251083 -0.846344 255 141 3
0.394765 0.078523 -1.333265 0.469743 0.251083 -0.846344 255 196 173
-0.249917 1.256419 -0.533183 0.116664 0.880144 -0.460149 255 135 2
0.000000 1.359939 -0.271814 0.116664 0.880144 -0.460149 255 84 0
0.191279 0.961622 -0.985194 0.116664 0.880144 -0.460149 255 131 1
0.980462 -0.000000 0.985194 0.753976 -0.228716 0.615800 255 130 1
0.815224 -0.544716 0.985194 0.753976 -0.228716 0.615800 255 207 12
0.958602 -0.640518 0.774062 0.753976 -0.228716 0.615800 255 212 13
-1.065141 0.441196 -0.774062 -0.848070 0.368192 -0.381066 255 204 12
-1.256420 0.249917 -0.533183 -0.848070 0.368192 -0.381066 255 184 9
-1.256419 0.520426 -0.271814 -0.848070 0.368192 -0.381066 255 115 0
-1.656500 -1.656499 -0.020826 0.286491 0.219832 -0.932522 255 116 0
-1.981812 -1.144199 0.000000 0.286491 0.219832 -0.932522 255 116 0
-1.618143 -1.618142 0.000000 0.286491 0.219832 -0.932522 255 116 0
0.394765 0.078523 -1.333265 0.090903 -0.110766 -0.989681 255 196 173
0.441196 -0.294798 -1.287218 0.090903 -0.110766 -0.989681 255 122 0
0.203060 -0.490231 -1.287218 0.090903 -0.110766 -0.989681 255 122 0
0.961623 0.191278 -0.985194 0.500200 0.128683 -0.856295 255 141 3
0.520426 -0.103520 -1.287218 0.500200 0.128683 -0.856295 255 121 0
0.394765 0.078523 -1.333265 0.500200 0.128683 -0.856295 255 196 173
0.755542 -1.130749 -0.271814 0.535646 -0.702283 -0.468916 255 98 0
0.544715 -0.815224 -0.985194 0.535646 -0.702283 -0.468916 255 209 13
0.958602 -0.640518 -0.774062 0.535646 -0.702283 -0.468916 255 210 13
0.490231 -1.183522 0.533183 0.250528 -0.966298 0.059199 255 196 11
-0.000000 -1.359939 -0.271814 0.250528 -0.966298 0.059199 255 108 0
0.755542 -1.130749 0.271814 0.250528 -0.966298 0.059199 255 114 1
0.000001 2.288399 0.000000 0.000000 -0.000000 1.000000 255 116 0
-0.813169 3.034790 0.000000 0.000000 -0.000000 1.000000 255 116 0
-0.592281 2.210424 0.000000 0.000000 -0.000000 1.000000 255 116 0
1.359939 -0.000001 0.271814 0.956940 -0.290285 0.000000 255 111 0
1.130748 -0.755542 0.271814 0.956940 -0.290285 0.000000 255 108 0
1.130748 -0.755542 -0.271814 0.956940 -0.290285 0.000000 255 93 0
-1.333808 -0.265311 -0.271814 -1.000000 0.000000 0.000000 255 86 0
-1.333808 -0.265311 0.271814 -1.000000 0.000000 0.000000 255 86 0
-1.333808 0.265311 -0.271814 -1.000000 0.000000 0.000000 255 108 0
-2.720918 1.570924 0.000000 -0.040582 0.016810 0.999035 255 116 0
-3.034790 0.813169 0.000000 -0.040582 0.016810 0.999035 255 116 0
-1.351601 2.341042 0.042666 -0.040582 0.016810 0.999035 255 116 0
-0.755541 1.130747 -0.271814 -0.773010 0.634394 0.000000 255 118 0
-0.284610 0.284609 1.333265 -0.377757 0.037206 0.925157 255 118 0
-0.711705 0.294797 1.158466 -0.377757 0.037206 0.925157 255 138 3
-0.755542 -0.150287 1.158466 -0.377757 0.037206 0.925157 255 127 1
0.203060 -0.490231 -1.287218 -0.045299 -0.109362 -0.992969 255 122 0
-0.490231 -0.203061 -1.287218 -0.045299 -0.109362 -0.992969 255 120 0
0.081811 0.269695 -1.365383 -0.045299 -0.109362 -0.992969 255 228 248
0.334666 0.223616 1.333265 0.307199 0.307199 0.900698 255 175 125
0.490231 0.203060 1.287218 0.307199 0.307199 0.900698 255 122 0
0.223617 0.334665 1.333265 0.307199 0.307199 0.900698 255 144 54
0.081811 0.269695 -1.365383 0.043848 -0.095294 -0.994483 255 228 248
0.394765 0.078523 -1.333265 0.043848 -0.095294 -0.994483 255 196 173
0.203060 -0.490231 -1.287218 0.043848 -0.095294 -0.994483 255 122 0
1.570923 2.720918 0.000000 0.010055 0.024275 0.999655 255 116 0
0.813170 3.034790 0.000000 0.010055 0.024275 0.999655 255 116 0
0.606321 2.262820 0.020826 0.010055 0.024275 0.999655 255 116 0
0.961622 0.961622 -0.271814 0.555570 0.831469 0.000000 255 85 0
0.520426 1.256420 -0.271814 0.555570 0.831469 0.000000 255 84 0
0.961622 0.961622 0.271814 0.555570 0.831469 0.000000 255 121 0
0.000000 0.980461 0.985194 -0.336374 0.784179 0.521455 255 131 1
0.000000 1.281035 0.533183 -0.336374 0.784179 0.521455 255 175 8
-0.755541 1.130747 0.271814 -0.336374 0.784179 0.521455 255 92 0
-0.520426 1.256419 -0.271814 -0.471396 0.881921 0.000000 255 113 0
-0.755541 1.130747 -0.271814 -0.471396 0.881921 0.000000 255 118 0
-0.755541 1.130747 0.271814 -0.471396 0.881921 0.000000 255 92 0
0.000000 3.141846 0.000000 0.000000 -0.000000 1.000000 255 116 0
-1.570923 2.720919 0.000000 -0.059438 0.077462 0.995222 255 116 0
-2.221621 2.221620 0.000000 -0.059438 0.077462 0.995222 255 116 0
-1.351601 2.341042 0.042666 -0.059438 0.077462 0.995222 255 116 0
1.333808 0.265310 -0.271814 0.923880 0.382683 0.000000 255 97 0
1.130748 0.755541 -0.271814 0.923880 0.382683 0.000000 255 87 0
1.333808 0.265310 0.271814 0.923880 0.382683 0.000000 255 115 0
-1.333808 -0.265311 0.271814 -0.923880 -0.382683 0.000000 255 86 0
-1.333808 -0.265311 -0.271814 -0.923880 -0.382683 0.000000 255 86 0
-1.130748 -0.755542 0.271814 -0.923880 -0.382683 0.000000 255 94 0
-1.281034 -0.000000 -0.533183 -0.829916 0.081739 -0.551868 255 185 10
-1.256420 0.249917 -0.533183 -0.829916 0.081739 -0.551868 255 184 9
-0.961622 0.191278 -0.985194 -0.829916 0.081739 -0.551868 255 137 2
1.981812 1.144200 0.000000 -0.000000 -0.000000 1.000000 255 116 0
-1.351601 2.341042 0.042666 0.145551 -0.111685 0.983027 255 116 0
-1.981811 1.144200 0.000000 0.145551 -0.111685 0.983027 255 116 0
-1.618143 1.618142 0.000000 0.145551 -0.111685 0.983027 255 116 0
2.902687 1.202332 0.000000 0.000000 0.000000 -1.000000 255 116 0
1.359939 -0.000001 -0.271814 0.956940 -0.290285 0.000000 255 101 0
-0.815224 -0.815224 0.774062 -0.371415 -0.694869 0.615799 255 212 13
-0.224920 -1.130748 0.774062 -0.371415 -0.694869 0.615799 255 195 11
-0.191279 -0.961623 0.985194 -0.371415 -0.694869 0.615799 255 145 3
0.980462 -0.000000 0.985194 0.554025 0.110202 0.825174 255 130 1
0.905829 0.375206 0.985194 0.554025 0.110202 0.825174 255 163 6
0.490231 0.203060 1.287218 0.554025 0.110202 0.825174 255 122 0
-2.221621 -2.221620 0.000000 -0.020845 -0.015995 -0.999655 255 116 0
-2.720919 -1.570923 0.000000 -0.020845 -0.015995 -0.999655 255 116 0
-1.656500 -1.656499 -0.020826 -0.020845 -0.015995 -0.999655 255 116 0
-0.958602 -0.640517 0.774062 -0.715169 -0.586924 0.379543 255 212 13
1.333808 0.265310 0.271814 0.877913 0.469254 0.095237 255 115 0
1.130748 0.755541 -0.271814 0.877913 0.469254 0.095237 255 87 0
0.961622 0.961622 0.271814 0.877913 0.469254 0.095237 255 121 0
-1.144199 -1.981812 0.000000 0.312166 0.437613 -0.843236 255 116 0
-0.645215 -2.407971 -0.036439 0.312166 0.437613 -0.843236 255 116 0
-1.656500 -1.656499 -0.020826 0.312166 0.437613 -0.843236 255 116 0
-0.490231 -0.203061 -1.287218 -0.659978 -0.244977 -0.710222 255 120 0
-0.815224 -0.815224 -0.774062 -0.659978 -0.244977 -0.710222 255 212 13
-0.961622 0.191278 -0.985194 -0.659978 -0.244977 -0.710222 255 137 2
1.359939 -0.000001 -0.271814 0.995185 0.098017 0.000000 255 101 0
-1.130748 -0.224920 0.774062 -0.717750 0.024184 0.695881 255 198 11
-0.755542 -0.150287 1.158466 -0.717750 0.024184 0.695881 255 127 1
-0.905828 0.375206 0.985194 -0.717750 0.024184 0.695881 255 180 8
0.490231 -1.183522 0.533183 0.101861 -0.864694 0.491862 255 196 11
0.191279 -0.961623 0.985194 0.101861 -0.864694 0.491862 255 152 4
-0.224920 -1.130748 0.774062 0.101861 -0.864694 0.491862 255 195 11
-0.755541 1.130747 0.271814 -0.595763 0.610861 0.521455 255 92 0
-1.183522 0.490230 0.533183 -0.595763 0.610861 0.521455 255 169 7
-0.905828 0.375206 0.985194 -0.595763 0.610861 0.521455 255 180 8
3 0 1 2
3 3 4 5
3 6 7 8
3 9 10 11
3 12 13 14
3 15 16 17
3 18 19 20
3 21 22 23
3 24 25 26
3 27 28 29
3 30 31 32
3 33 34 35
3 36 37 38
3 39 40 41
3 42 43 44
3 45 46 47
3 48 49 50
3 51 52 53
3 54 55 56
3 57 58 59
3 60 61 62
3 63 64 65
3 66 67 68
3 69 70 71
3 72 73 74
3 75 76 77
3 78 79 80
3 81 82 83
3 84 85 86
3 87 88 89
3 90 91 92
3 93 94 95
3 96 97 98
3 99 100 101
3 102 103 104
3 105 106 107
3 108 109 110
3 111 112 113
3 114 115 116
3 117 118 119
3 120 121 122
3 76 9 77
3 123 124 125
3 126 127 128
3 129 130 131
3 132 133 134
3 135 136 137
3 138 139 140
3 141 142 143
3 144 145 146
3 147 148 149
3 150 151 152
3 153 154 155
3 156 157 158
3 159 160 161
3 162 163 164
3 165 166 167
3 168 169 170
3 171 172 173
3 174 175 176
3 177 178 179
3 180 181 182
3 183 184 185
3 186 187 188
3 189 190 191
3 192 193 148
3 106 194 107
3 195 196 54
3 197 198 199
3 200 201 202
3 203 204 205
3 93 192 94
3 206 207 208
3 209 210 211
3 212 213 214
3 137 136 215
3 216 217 218
3 219 220 221
3 222 223 224
3 225 1 0
3 226 227 228
3 229 230 231
3 232 233 234
3 235 236 237
3 238 239 240
3 241 29 28
3 242 243 244
3 245 246 247
3 248 249 250
3 251 252 253
3 254 255 256
3 257 258 259
3 260 261 262
3 263 264 265
3 266 267 268
3 269 270 271
3 272 273 274
3 275 276 277
3 278 279 280
3 281 282 283
3 284 285 286
3 124 287 125
3 288 289 290
3 291 292 293
3 294 295 296
3 297 298 299
3 75 77 300
3 301 302 303
3 304 305 306
3 307 308 309
3 310 311 312
3 313 314 315
3 316 203 205
3 54 56 317
3 318 319 320
3 321 322 323
3 324 325 326
3 196 327 54
3 328 329 330
3 331 332 333
3 334 335 336
3 107 194 337
3 338 339 340
3 28 105 341
3 342 343 344
3 345 346 347
3 348 349 350
3 351 352 353
3 354 2 355
3 356 357 358
3 16 359 10
3 360 361 362
3 363 364 365
3 366 367 368
3 369 17 16
3 370 371 372
3 373 374 375
3 376 377 378
3 379 380 381
3 382 383 384
3 385 386 387
3 388 389 390
3 105 107 341
3 391 392 393
3 394 395 396
3 397 398 399
3 400 401 402
3 403 404 405
3 406 407 408
3 409 410 411
3 412 413 414
3 341 241 28
3 415 225 0
3 416 417 418
3 419 420 421
3 422 423 424
3 425 426 427
3 428 429 430
3 431 380 379
3 432 433 434
3 435 436 437
3 355 438 354
3 439 440 441
3 442 443 444
3 445 446 447
3 17 448 15
3 449 450 451
3 452 453 454
3 455 456 457
3 458 459 460
3 461 462 463
3 464 465 466
3 467 468 469
3 470 337 471
3 472 473 474
3 475 476 477
3 478 479 480
3 481 482 483
3 484 485 486
3 487 488 489
3 490 491 492
3 493 494 495
3 496 497 498
3 1 355 2
3 499 500 501
3 502 503 504
3 505 506 507
3 508 509 510
3 511 512 513
3 514 515 516
3 517 27 29
3 518 519 520
3 521 522 523
3 524 113 112
3 525 526 527
3 528 529 530
3 531 225 415
3 532 533 534
3 300 147 149
3 535 536 537
3 149 75 300
3 77 9 11
3 538 539 540
3 541 542 543
3 10 369 16
3 544 545 546
3 547 548 549
3 550 551 552
3 359 11 10
3 553 554 555
3 556 557 558
3 95 56 55
3 559 560 561
3 562 563 564
3 565 566 567
3 568 569 570
3 148 94 192
3 571 572 573
3 574 575 576
3 577 578 579
3 580 581 582
3 583 584 585
3 55 93 95
3 586 587 588
3 589 590 591
3 592 593 594
3 595 596 597
3 54 317 195
3 598 599 600
3 193 149 148
3 601 602 603
3 71 604 69
3 605 606 607
3 608 609 610
3 611 612 613
3 614 615 616
3 617 618 619
3 620 621 622
3 623 624 625
3 626 627 628
3 629 593 592
3 194 471 337
3 630 631 632
3 633 634 635
3 636 637 638
3 639 640 641
3 15 448 642
3 643 644 645
3 355 646 438
3 595 597 647
3 648 649 650
3 651 652 653
3 654 655 656
3 50 657 48
3 658 659 660
3 661 662 663
3 664 665 666
3 667 129 131
3 668 669 670
3 671 672 673
3 674 675 676
