ply
format ascii 1.0
comment Created by Blender 2.79 (sub 0) - www.blender.org, source file: 'Venus.blend'
element vertex 640
property float x
property float y
property float z
property float nx
property float ny
property float nz
property uchar red
property uchar green
property uchar blue
element face 218
property list uchar uint vertex_indices
end_header
-0.384089 -0.159095 -0.277785 -0.741160 -0.224828 -0.632561 79 255 0
-0.407746 -0.081106 -0.277785 -0.741160 -0.224828 -0.632561 79 255 0
-0.346760 -0.068975 -0.353553 -0.741160 -0.224828 -0.632561 79 255 0
0.384089 0.256640 -0.191342 0.951623 0.137045 -0.275015 79 255 0
0.490393 -0.097545 0.000000 0.951623 0.137045 -0.275015 79 255 0
0.407747 -0.081106 -0.277785 0.951623 0.137045 -0.275015 79 255 0
0.068975 0.346760 -0.353553 -0.000001 0.815361 -0.578953 79 255 0
-0.068975 0.346760 -0.353553 -0.000001 0.815361 -0.578953 79 255 0
0.000000 0.461940 -0.191342 -0.000001 0.815361 -0.578953 79 255 0
0.191342 0.461940 0.000000 0.288900 0.952376 0.097550 79 255 0
0.095671 0.480970 0.097545 0.288900 0.952376 0.097550 79 255 0
0.187665 0.453064 0.097545 0.288900 0.952376 0.097550 79 255 0
-0.090120 -0.453064 0.191342 -0.095621 -0.990438 0.099441 79 255 0
-0.187665 -0.453064 0.097545 -0.095621 -0.990438 0.099441 79 255 0
0.097545 -0.490393 0.000000 -0.095621 -0.990438 0.099441 79 255 0
0.256640 0.384089 -0.191342 0.320075 0.772730 -0.548124 79 255 0
0.196424 0.293969 -0.353553 0.320075 0.772730 -0.548124 79 255 0
0.068975 0.346760 -0.353553 0.320075 0.772730 -0.548124 79 255 0
-0.135299 0.326641 -0.353553 -0.161812 0.533422 -0.830228 79 255 0
-0.068975 0.346760 -0.353553 -0.161812 0.533422 -0.830228 79 255 0
-0.073223 0.176776 -0.461940 -0.161812 0.533422 -0.830228 79 255 0
-0.090120 0.037329 0.490393 0.098830 0.052826 0.993701 79 255 0
0.176777 0.073223 0.461940 0.098830 0.052826 0.993701 79 255 0
0.159095 0.106304 0.461940 0.098830 0.052826 0.993701 79 255 0
0.384089 0.256640 -0.191342 0.964632 0.191877 -0.180744 79 255 0
0.415735 0.277785 0.000000 0.964632 0.191877 -0.180744 79 255 0
0.490393 -0.097545 0.000000 0.964632 0.191877 -0.180744 79 255 0
0.154329 0.230970 -0.415735 0.403615 0.491806 -0.771506 79 255 0
0.196424 0.293969 -0.353553 0.403615 0.491806 -0.771506 79 255 0
0.250000 0.250000 -0.353553 0.403615 0.491806 -0.771506 79 255 0
0.196424 0.196424 0.415735 0.403615 0.491806 0.771506 79 255 0
0.250000 0.250000 0.353553 0.403615 0.491806 0.771506 79 255 0
0.196424 0.293969 0.353553 0.403615 0.491806 0.771506 79 255 0
-0.272448 -0.407747 0.097545 -0.569626 -0.694091 0.440185 79 255 0
-0.176777 -0.426777 0.191342 -0.569626 -0.694091 0.440185 79 255 0
-0.384089 -0.256640 0.191342 -0.569626 -0.694091 0.440185 79 255 0
-0.187665 -0.453064 -0.097545 -0.156287 -0.872549 -0.462853 79 255 0
-0.135299 -0.326641 -0.353553 -0.156287 -0.872549 -0.462853 79 255 0
0.090120 -0.453064 -0.191342 -0.156287 -0.872549 -0.462853 79 255 0
-0.277785 -0.000000 -0.415735 -0.524687 -0.217332 -0.823086 79 255 0
-0.293969 -0.196424 -0.353553 -0.524687 -0.217332 -0.823086 79 255 0
-0.346760 -0.068975 -0.353553 -0.524687 -0.217332 -0.823086 79 255 0
-0.097545 -0.000000 -0.490393 -0.366548 0.092410 -0.925799 79 255 0
-0.272447 0.054193 -0.415735 -0.366548 0.092410 -0.925799 79 255 0
-0.135299 0.135299 -0.461940 -0.366548 0.092410 -0.925799 79 255 0
-0.272447 0.054193 -0.415735 -0.608826 0.184686 -0.771506 79 255 0
-0.346760 0.068975 -0.353553 -0.608826 0.184686 -0.771506 79 255 0
-0.326641 0.135299 -0.353553 -0.608826 0.184686 -0.771506 79 255 0
-0.191342 -0.000000 0.461940 -0.547845 -0.166187 0.819907 79 255 0
-0.353553 -0.000000 0.353553 -0.547845 -0.166187 0.819907 79 255 0
-0.293969 -0.196424 0.353553 -0.547845 -0.166187 0.819907 79 255 0
-0.461940 0.191342 0.000000 -0.976241 0.194187 0.096153 79 255 0
-0.500000 -0.000000 0.000000 -0.976241 0.194187 0.096153 79 255 0
-0.490392 -0.000000 0.097545 -0.976241 0.194187 0.096153 79 255 0
-0.000000 -0.353554 0.353553 -0.144266 -0.725272 0.673178 79 255 0
-0.135299 -0.326641 0.353553 -0.144266 -0.725272 0.673178 79 255 0
-0.081106 -0.407747 0.277785 -0.144266 -0.725272 0.673178 79 255 0
0.000000 -0.191342 0.461940 0.297719 -0.362772 0.883040 79 255 0
0.196424 -0.293969 0.353553 0.297719 -0.362772 0.883040 79 255 0
0.187665 -0.037329 0.461940 0.297719 -0.362772 0.883040 79 255 0
0.187665 -0.037329 0.461940 0.569739 0.056114 0.819907 79 255 0
0.346760 -0.068975 0.353553 0.569739 0.056114 0.819907 79 255 0
0.176777 0.073223 0.461940 0.569739 0.056114 0.819907 79 255 0
0.196424 0.293969 0.353553 0.228298 0.752596 0.617640 79 255 0
0.230970 0.345671 0.277785 0.228298 0.752596 0.617640 79 255 0
0.000000 0.353553 0.353553 0.228298 0.752596 0.617640 79 255 0
0.353553 -0.000000 -0.353553 0.629402 0.125196 -0.766928 79 255 0
0.256640 0.106304 -0.415735 0.629402 0.125196 -0.766928 79 255 0
0.326641 0.135299 -0.353553 0.629402 0.125196 -0.766928 79 255 0
0.187665 0.453064 -0.097545 0.260648 0.859243 -0.440187 79 255 0
0.256640 0.384089 -0.191342 0.260648 0.859243 -0.440187 79 255 0
0.000000 0.461940 -0.191342 0.260648 0.859243 -0.440187 79 255 0
0.187665 0.453064 0.097545 0.451281 0.844288 0.289004 79 255 0
0.176777 0.426777 0.191342 0.451281 0.844288 0.289004 79 255 0
0.256640 0.384089 0.191342 0.451281 0.844288 0.289004 79 255 0
0.090120 -0.453064 -0.191342 -0.094132 -0.955732 -0.278776 79 255 0
0.095671 -0.480970 -0.097545 -0.094132 -0.955732 -0.278776 79 255 0
-0.187665 -0.453064 -0.097545 -0.094132 -0.955732 -0.278776 79 255 0
0.187665 -0.037329 0.461940 0.104630 0.010305 0.994458 79 255 0
0.176777 0.073223 0.461940 0.104630 0.010305 0.994458 79 255 0
-0.090120 0.037329 0.490393 0.104630 0.010305 0.994458 79 255 0
-0.135299 0.135299 0.461940 0.028656 0.290950 0.956309 79 255 0
-0.090120 0.037329 0.490393 0.028656 0.290950 0.956309 79 255 0
0.159095 0.106304 0.461940 0.028656 0.290950 0.956309 79 255 0
-0.097545 -0.000000 -0.490393 -0.382412 0.037664 -0.923224 79 255 0
-0.277785 -0.000000 -0.415735 -0.382412 0.037664 -0.923224 79 255 0
-0.272447 0.054193 -0.415735 -0.382412 0.037664 -0.923224 79 255 0
0.154329 0.230970 -0.415735 0.245581 0.592884 -0.766928 79 255 0
0.054193 0.272448 -0.415735 0.245581 0.592884 -0.766928 79 255 0
0.068975 0.346760 -0.353553 0.245581 0.592884 -0.766928 79 255 0
0.326641 0.135299 -0.353553 0.561098 0.299913 -0.771506 79 255 0
0.256640 0.106304 -0.415735 0.561098 0.299913 -0.771506 79 255 0
0.230970 0.154329 -0.415735 0.561098 0.299913 -0.771506 79 255 0
0.196424 -0.293969 0.353553 0.353646 -0.353646 0.865950 79 255 0
0.293969 -0.196424 0.353553 0.353646 -0.353646 0.865950 79 255 0
0.187665 -0.037329 0.461940 0.353646 -0.353646 0.865950 79 255 0
-0.326641 0.135299 -0.353553 -0.442092 0.442092 -0.780455 79 255 0
-0.135299 0.326641 -0.353553 -0.442092 0.442092 -0.780455 79 255 0
-0.135299 0.135299 -0.461940 -0.442092 0.442092 -0.780455 79 255 0
-0.345671 -0.230970 -0.277785 -0.498926 -0.607943 -0.617639 79 255 0
-0.293969 -0.196424 -0.353553 -0.498926 -0.607943 -0.617639 79 255 0
-0.135299 -0.326641 -0.353553 -0.498926 -0.607943 -0.617639 79 255 0
0.230970 0.154329 -0.415735 0.186877 0.186876 -0.964445 79 255 0
-0.068975 0.068975 -0.490393 0.186877 0.186876 -0.964445 79 255 0
0.154329 0.230970 -0.415735 0.186877 0.186876 -0.964445 79 255 0
0.256640 0.106304 -0.415735 0.218535 0.043469 -0.974860 79 255 0
0.277785 -0.000000 -0.415735 0.218535 0.043469 -0.974860 79 255 0
-0.068975 0.068975 -0.490393 0.218535 0.043469 -0.974860 79 255 0
0.250000 0.250000 -0.353553 0.556738 0.372001 -0.742737 79 255 0
0.326641 0.135299 -0.353553 0.556738 0.372001 -0.742737 79 255 0
0.230970 0.154329 -0.415735 0.556738 0.372001 -0.742737 79 255 0
-0.272447 0.054193 -0.415735 -0.466957 0.319994 -0.824351 79 255 0
-0.326641 0.135299 -0.353553 -0.466957 0.319994 -0.824351 79 255 0
-0.135299 0.135299 -0.461940 -0.466957 0.319994 -0.824351 79 255 0
0.277785 -0.415735 0.000000 0.409499 -0.897378 -0.164387 79 255 0
0.095671 -0.480970 -0.097545 0.409499 -0.897378 -0.164387 79 255 0
0.176777 -0.426777 -0.191342 0.409499 -0.897378 -0.164387 79 255 0
-0.277785 -0.415735 0.000000 -0.703831 -0.703830 -0.096153 79 255 0
-0.415735 -0.277785 0.000000 -0.703831 -0.703830 -0.096153 79 255 0
-0.272448 -0.407747 -0.097545 -0.703831 -0.703830 -0.096153 79 255 0
-0.293969 -0.196424 -0.353553 -0.683192 -0.282987 -0.673177 79 255 0
-0.384089 -0.159095 -0.277785 -0.683192 -0.282987 -0.673177 79 255 0
-0.346760 -0.068975 -0.353553 -0.683192 -0.282987 -0.673177 79 255 0
0.154329 0.230970 -0.415735 0.430227 0.430227 -0.793605 79 255 0
0.250000 0.250000 -0.353553 0.430227 0.430227 -0.793605 79 255 0
0.230970 0.154329 -0.415735 0.430227 0.430227 -0.793605 79 255 0
-0.490392 -0.000000 -0.097545 -0.976241 0.194187 -0.096153 79 255 0
-0.500000 -0.000000 0.000000 -0.976241 0.194187 -0.096153 79 255 0
-0.461940 0.191342 0.000000 -0.976241 0.194187 -0.096153 79 255 0
0.230970 0.154329 0.415735 0.579838 0.074750 0.811296 79 255 0
0.176777 0.073223 0.461940 0.579838 0.074750 0.811296 79 255 0
0.346760 -0.068975 0.353553 0.579838 0.074750 0.811296 79 255 0
0.353553 -0.353554 0.000000 0.609243 -0.742365 -0.278777 79 255 0
0.277785 -0.415735 0.000000 0.609243 -0.742365 -0.278777 79 255 0
0.176777 -0.426777 -0.191342 0.609243 -0.742365 -0.278777 79 255 0
0.000000 0.353553 0.353553 -0.224263 0.541419 0.810291 79 255 0
-0.250000 0.250000 0.353553 -0.224263 0.541419 0.810291 79 255 0
-0.135299 0.135299 0.461940 -0.224263 0.541419 0.810291 79 255 0
0.097545 0.490393 0.000000 0.157012 0.962066 -0.223106 79 255 0
0.187665 0.453064 -0.097545 0.157012 0.962066 -0.223106 79 255 0
0.000000 0.461940 -0.191342 0.157012 0.962066 -0.223106 79 255 0
-0.415735 -0.277785 0.000000 -0.929753 -0.316146 0.188709 79 255 0
-0.384089 -0.256640 0.191342 -0.929753 -0.316146 0.188709 79 255 0
-0.490392 -0.000000 0.097545 -0.929753 -0.316146 0.188709 79 255 0
0.326641 0.135299 -0.353553 0.677948 0.452990 -0.578954 79 255 0
0.250000 0.250000 -0.353553 0.677948 0.452990 -0.578954 79 255 0
0.384089 0.256640 -0.191342 0.677948 0.452990 -0.578954 79 255 0
-0.293969 -0.196424 -0.353553 -0.683057 -0.365101 -0.632562 79 255 0
-0.345671 -0.230970 -0.277785 -0.683057 -0.365101 -0.632562 79 255 0
-0.384089 -0.159095 -0.277785 -0.683057 -0.365101 -0.632562 79 255 0
0.191342 0.461940 0.000000 0.552996 0.827617 0.096151 79 255 0
0.187665 0.453064 0.097545 0.552996 0.827617 0.096151 79 255 0
0.346760 0.346760 0.097545 0.552996 0.827617 0.096151 79 255 0
-0.068975 0.068975 -0.490393 -0.164160 0.245682 -0.955349 79 255 0
-0.135299 0.135299 -0.461940 -0.164160 0.245682 -0.955349 79 255 0
-0.073223 0.176776 -0.461940 -0.164160 0.245682 -0.955349 79 255 0
-0.090120 0.453063 -0.191342 -0.241721 0.796849 -0.553716 79 255 0
-0.068975 0.346760 -0.353553 -0.241721 0.796849 -0.553716 79 255 0
-0.135299 0.326641 -0.353553 -0.241721 0.796849 -0.553716 79 255 0
-0.346760 0.068975 -0.353553 -0.633158 0.062361 -0.771506 79 255 0
-0.272447 0.054193 -0.415735 -0.633158 0.062361 -0.771506 79 255 0
-0.277785 -0.000000 -0.415735 -0.633158 0.062361 -0.771506 79 255 0
-0.159095 -0.384089 0.277785 -0.561992 -0.623393 0.543642 79 255 0
-0.293969 -0.196424 0.353553 -0.561992 -0.623393 0.543642 79 255 0
-0.384089 -0.256640 0.191342 -0.561992 -0.623393 0.543642 79 255 0
0.277785 -0.000000 -0.415735 0.633159 -0.062361 -0.771506 79 255 0
0.353553 -0.000000 -0.353553 0.633159 -0.062361 -0.771506 79 255 0
0.346760 -0.068975 -0.353553 0.633159 -0.062361 -0.771506 79 255 0
0.490393 -0.097545 0.000000 0.911825 -0.149242 0.382493 79 255 0
0.346760 -0.068975 0.353553 0.911825 -0.149242 0.382493 79 255 0
0.384089 -0.256640 0.191342 0.911825 -0.149242 0.382493 79 255 0
-0.415735 -0.277785 0.000000 -0.952294 -0.289669 0.096057 79 255 0
-0.490392 -0.000000 0.097545 -0.952294 -0.289669 0.096057 79 255 0
-0.480970 -0.095671 -0.097545 -0.952294 -0.289669 0.096057 79 255 0
0.346760 -0.068975 0.353553 0.923929 0.109761 0.366481 79 255 0
0.490393 -0.097545 0.000000 0.923929 0.109761 0.366481 79 255 0
0.407747 0.272447 0.097545 0.923929 0.109761 0.366481 79 255 0
-0.135299 0.326641 -0.353553 -0.312801 0.468140 -0.826438 79 255 0
-0.073223 0.176776 -0.461940 -0.312801 0.468140 -0.826438 79 255 0
-0.135299 0.135299 -0.461940 -0.312801 0.468140 -0.826438 79 255 0
-0.326641 0.326641 0.191342 -0.398266 0.898941 0.182455 79 255 0
0.000000 0.490393 0.097545 -0.398266 0.898941 0.182455 79 255 0
-0.353553 0.353553 0.000000 -0.398266 0.898941 0.182455 79 255 0
0.407747 -0.081106 -0.277785 0.879805 0.175004 -0.441947 79 255 0
0.353553 -0.000000 -0.353553 0.879805 0.175004 -0.441947 79 255 0
0.326641 0.135299 -0.353553 0.879805 0.175004 -0.441947 79 255 0
0.346760 -0.068975 0.353553 0.769417 0.233400 0.594577 79 255 0
0.250000 0.250000 0.353553 0.769417 0.233400 0.594577 79 255 0
0.230970 0.154329 0.415735 0.769417 0.233400 0.594577 79 255 0
0.346760 0.346760 0.097545 0.769324 0.631367 0.097550 79 255 0
0.407747 0.272447 0.097545 0.769324 0.631367 0.097550 79 255 0
0.415735 0.277785 0.000000 0.769324 0.631367 0.097550 79 255 0
0.250000 0.250000 0.353553 0.491806 0.403615 0.771506 79 255 0
0.196424 0.196424 0.415735 0.491806 0.403615 0.771506 79 255 0
0.230970 0.154329 0.415735 0.491806 0.403615 0.771506 79 255 0
-0.187665 -0.453064 0.097545 -0.469149 -0.877715 0.097551 79 255 0
-0.272448 -0.407747 0.097545 -0.469149 -0.877715 0.097551 79 255 0
-0.277785 -0.415735 0.000000 -0.469149 -0.877715 0.097551 79 255 0
-0.176777 -0.426777 0.191342 -0.564798 -0.688208 0.455383 79 255 0
-0.159095 -0.384089 0.277785 -0.564798 -0.688208 0.455383 79 255 0
-0.384089 -0.256640 0.191342 -0.564798 -0.688208 0.455383 79 255 0
-0.159095 -0.384089 0.277785 -0.498926 -0.607943 0.617639 79 255 0
-0.135299 -0.326641 0.353553 -0.498926 -0.607943 0.617639 79 255 0
-0.293969 -0.196424 0.353553 -0.498926 -0.607943 0.617639 79 255 0
-0.073223 0.176776 -0.461940 0.122178 0.294963 -0.947665 79 255 0
0.054193 0.272448 -0.415735 0.122178 0.294963 -0.947665 79 255 0
0.154329 0.230970 -0.415735 0.122178 0.294963 -0.947665 79 255 0
-0.326641 0.326641 0.191342 -0.786151 0.325634 0.525289 79 255 0
-0.461940 -0.000000 0.191342 -0.786151 0.325634 0.525289 79 255 0
-0.353553 -0.000000 0.353553 -0.786151 0.325634 0.525289 79 255 0
-0.326641 0.326641 0.191342 -0.816084 0.545291 0.191480 79 255 0
-0.353553 0.353553 0.000000 -0.816084 0.545291 0.191480 79 255 0
-0.461940 0.191342 0.000000 -0.816084 0.545291 0.191480 79 255 0
0.097545 -0.490393 0.000000 0.380910 -0.919599 0.096153 79 255 0
0.277785 -0.415735 0.000000 0.380910 -0.919599 0.096153 79 255 0
0.272447 -0.407747 0.097545 0.380910 -0.919599 0.096153 79 255 0
-0.250000 0.250000 0.353553 -0.304941 0.736193 0.604178 79 255 0
0.000000 0.353553 0.353553 -0.304941 0.736193 0.604178 79 255 0
0.000000 0.415735 0.277785 -0.304941 0.736193 0.604178 79 255 0
0.000000 0.490393 0.097545 -0.381110 0.920078 0.090620 79 255 0
0.000000 0.500000 0.000000 -0.381110 0.920078 0.090620 79 255 0
-0.353553 0.353553 0.000000 -0.381110 0.920078 0.090620 79 255 0
-0.135299 -0.326641 0.353553 -0.224829 -0.741160 0.632562 79 255 0
-0.159095 -0.384089 0.277785 -0.224829 -0.741160 0.632562 79 255 0
-0.081106 -0.407747 0.277785 -0.224829 -0.741160 0.632562 79 255 0
-0.068975 0.346760 -0.353553 -0.081619 0.828696 -0.553716 79 255 0
-0.090120 0.453063 -0.191342 -0.081619 0.828696 -0.553716 79 255 0
0.000000 0.461940 -0.191342 -0.081619 0.828696 -0.553716 79 255 0
-0.384089 -0.256640 -0.191342 -0.778616 -0.416179 -0.469630 79 255 0
-0.426777 -0.176777 -0.191342 -0.778616 -0.416179 -0.469630 79 255 0
-0.384089 -0.159095 -0.277785 -0.778616 -0.416179 -0.469630 79 255 0
-0.090120 0.037329 0.490393 0.076595 -0.093331 0.992685 79 255 0
0.000000 -0.191342 0.461940 0.076595 -0.093331 0.992685 79 255 0
0.187665 -0.037329 0.461940 0.076595 -0.093331 0.992685 79 255 0
-0.346760 0.068975 -0.353553 -0.863684 0.101742 -0.493658 79 255 0
-0.407746 -0.081106 -0.277785 -0.863684 0.101742 -0.493658 79 255 0
-0.426777 0.176777 -0.191342 -0.863684 0.101742 -0.493658 79 255 0
-0.490392 -0.000000 0.097545 -0.953765 -0.285496 0.093939 79 255 0
-0.500000 -0.000000 0.000000 -0.953765 -0.285496 0.093939 79 255 0
-0.480970 -0.095671 -0.097545 -0.953765 -0.285496 0.093939 79 255 0
-0.346760 0.068975 -0.353553 -0.779001 0.000000 -0.627023 79 255 0
-0.346760 -0.068975 -0.353553 -0.779001 0.000000 -0.627023 79 255 0
-0.407746 -0.081106 -0.277785 -0.779001 0.000000 -0.627023 79 255 0
-0.384089 -0.256640 -0.191342 -0.865133 -0.462424 -0.194186 79 255 0
-0.415735 -0.277785 0.000000 -0.865133 -0.462424 -0.194186 79 255 0
-0.426777 -0.176777 -0.191342 -0.865133 -0.462424 -0.194186 79 255 0
-0.415735 -0.277785 0.000000 -0.728049 -0.657766 -0.193101 79 255 0
-0.384089 -0.256640 -0.191342 -0.728049 -0.657766 -0.193101 79 255 0
-0.272448 -0.407747 -0.097545 -0.728049 -0.657766 -0.193101 79 255 0
0.081106 -0.407747 0.277785 0.093147 -0.945738 0.311292 79 255 0
-0.000000 -0.415735 0.277785 0.093147 -0.945738 0.311292 79 255 0
-0.090120 -0.453064 0.191342 0.093147 -0.945738 0.311292 79 255 0
0.346760 0.346760 0.097545 0.683474 0.729257 -0.032373 79 255 0
0.415735 0.277785 0.000000 0.683474 0.729257 -0.032373 79 255 0
0.272448 0.407746 -0.097545 0.683474 0.729257 -0.032373 79 255 0
-0.000000 -0.415735 0.277785 -0.086536 -0.878612 0.469629 79 255 0
-0.081106 -0.407747 0.277785 -0.086536 -0.878612 0.469629 79 255 0
-0.090120 -0.453064 0.191342 -0.086536 -0.878612 0.469629 79 255 0
0.490393 -0.097545 0.000000 0.938725 -0.284759 -0.194187 79 255 0
0.461940 -0.191342 0.000000 0.938725 -0.284759 -0.194187 79 255 0
0.426777 -0.176777 -0.191342 0.938725 -0.284759 -0.194187 79 255 0
-0.480970 -0.095671 -0.097545 -0.916106 -0.277898 -0.289002 79 255 0
-0.453064 -0.090120 -0.191342 -0.916106 -0.277898 -0.289002 79 255 0
-0.426777 -0.176777 -0.191342 -0.916106 -0.277898 -0.289002 79 255 0
-0.000000 -0.353554 0.353553 0.075915 -0.770780 0.632562 79 255 0
-0.000000 -0.415735 0.277785 0.075915 -0.770780 0.632562 79 255 0
0.081106 -0.407747 0.277785 0.075915 -0.770780 0.632562 79 255 0
0.407747 -0.081106 -0.277785 0.770780 -0.075915 -0.632563 79 255 0
0.346760 -0.068975 -0.353553 0.770780 -0.075915 -0.632563 79 255 0
0.353553 -0.000000 -0.353553 0.770780 -0.075915 -0.632563 79 255 0
0.293969 -0.196424 0.353553 0.520169 -0.215461 0.826438 79 255 0
0.346760 -0.068975 0.353553 0.520169 -0.215461 0.826438 79 255 0
0.187665 -0.037329 0.461940 0.520169 -0.215461 0.826438 79 255 0
0.176777 0.426777 0.191342 0.277898 0.916106 0.289004 79 255 0
0.187665 0.453064 0.097545 0.277898 0.916106 0.289004 79 255 0
0.095671 0.480970 0.097545 0.277898 0.916106 0.289004 79 255 0
-0.135299 -0.326641 -0.353553 -0.416180 -0.778617 -0.469628 79 255 0
-0.187665 -0.453064 -0.097545 -0.416180 -0.778617 -0.469628 79 255 0
-0.272448 -0.407747 -0.097545 -0.416180 -0.778617 -0.469628 79 255 0
0.097545 -0.490393 0.000000 -0.129776 -0.991543 0.000000 79 255 0
-0.187665 -0.453064 0.097545 -0.129776 -0.991543 0.000000 79 255 0
-0.187665 -0.453064 -0.097545 -0.129776 -0.991543 0.000000 79 255 0
-0.097545 -0.000000 -0.490393 0.194456 -0.080546 -0.977599 79 255 0
-0.068975 0.068975 -0.490393 0.194456 -0.080546 -0.977599 79 255 0
0.277785 -0.000000 -0.415735 0.194456 -0.080546 -0.977599 79 255 0
-0.000000 -0.353554 0.353553 0.166187 -0.547845 0.819907 79 255 0
0.196424 -0.293969 0.353553 0.166187 -0.547845 0.819907 79 255 0
0.000000 -0.191342 0.461940 0.166187 -0.547845 0.819907 79 255 0
-0.415735 -0.277785 0.000000 -0.703831 -0.703830 0.096153 79 255 0
-0.277785 -0.415735 0.000000 -0.703831 -0.703830 0.096153 79 255 0
-0.272448 -0.407747 0.097545 -0.703831 -0.703830 0.096153 79 255 0
0.230970 0.154329 0.415735 0.417297 0.223050 0.880972 79 255 0
0.159095 0.106304 0.461940 0.417297 0.223050 0.880972 79 255 0
0.176777 0.073223 0.461940 0.417297 0.223050 0.880972 79 255 0
-0.090120 0.037329 0.490393 -0.289802 0.057645 0.955349 79 255 0
-0.176777 0.073223 0.461940 -0.289802 0.057645 0.955349 79 255 0
-0.191342 -0.000000 0.461940 -0.289802 0.057645 0.955349 79 255 0
0.353553 -0.353554 0.000000 0.631368 -0.769324 0.097551 79 255 0
0.272447 -0.407747 0.097545 0.631368 -0.769324 0.097551 79 255 0
0.277785 -0.415735 0.000000 0.631368 -0.769324 0.097551 79 255 0
0.346760 -0.346760 0.097545 0.827617 -0.552996 0.096153 79 255 0
0.353553 -0.353554 0.000000 0.827617 -0.552996 0.096153 79 255 0
0.461940 -0.191342 0.000000 0.827617 -0.552996 0.096153 79 255 0
-0.090120 -0.453064 0.191342 -0.277898 -0.916106 0.289003 79 255 0
-0.176777 -0.426777 0.191342 -0.277898 -0.916106 0.289003 79 255 0
-0.187665 -0.453064 0.097545 -0.277898 -0.916106 0.289003 79 255 0
0.346760 -0.068975 0.353553 0.824443 0.250092 0.507689 79 255 0
0.326641 0.326641 0.191342 0.824443 0.250092 0.507689 79 255 0
0.250000 0.250000 0.353553 0.824443 0.250092 0.507689 79 255 0
-0.191342 -0.000000 0.461940 -0.322535 -0.322535 0.889912 79 255 0
-0.293969 -0.196424 0.353553 -0.322535 -0.322535 0.889912 79 255 0
0.000000 -0.191342 0.461940 -0.322535 -0.322535 0.889912 79 255 0
-0.345671 -0.230970 -0.277785 -0.501051 -0.710834 -0.493621 79 255 0
-0.135299 -0.326641 -0.353553 -0.501051 -0.710834 -0.493621 79 255 0
-0.272448 -0.407747 -0.097545 -0.501051 -0.710834 -0.493621 79 255 0
0.097545 0.490393 0.000000 0.288900 0.952376 0.097550 79 255 0
-0.407746 -0.081106 -0.277785 -0.844848 -0.256282 -0.469630 79 255 0
-0.384089 -0.159095 -0.277785 -0.844848 -0.256282 -0.469630 79 255 0
-0.453064 -0.090120 -0.191342 -0.844848 -0.256282 -0.469630 79 255 0
0.461940 -0.191342 0.000000 0.919003 -0.278777 0.278777 79 255 0
0.490393 -0.097545 0.000000 0.919003 -0.278777 0.278777 79 255 0
0.384089 -0.256640 0.191342 0.919003 -0.278777 0.278777 79 255 0
0.000000 -0.191342 0.461940 -0.197212 -0.197212 0.960320 79 255 0
-0.090120 0.037329 0.490393 -0.197212 -0.197212 0.960320 79 255 0
-0.191342 -0.000000 0.461940 -0.197212 -0.197212 0.960320 79 255 0
0.250000 0.250000 -0.353553 0.643690 0.528263 -0.553716 79 255 0
0.326641 0.326641 -0.191342 0.643690 0.528263 -0.553716 79 255 0
0.384089 0.256640 -0.191342 0.643690 0.528263 -0.553716 79 255 0
0.272448 0.407746 -0.097545 0.469149 0.877715 -0.097550 79 255 0
0.187665 0.453064 -0.097545 0.469149 0.877715 -0.097550 79 255 0
0.191342 0.461940 0.000000 0.469149 0.877715 -0.097550 79 255 0
0.095671 0.480970 0.097545 0.090620 0.920078 0.381109 79 255 0
0.000000 0.490393 0.097545 0.090620 0.920078 0.381109 79 255 0
0.000000 0.415735 0.277785 0.090620 0.920078 0.381109 79 255 0
-0.461940 -0.000000 0.191342 -0.919004 -0.278777 0.278775 79 255 0
-0.490392 -0.000000 0.097545 -0.919004 -0.278777 0.278775 79 255 0
-0.384089 -0.256640 0.191342 -0.919004 -0.278777 0.278775 79 255 0
0.135299 -0.326641 -0.353553 -0.000000 -0.386393 -0.922334 79 255 0
-0.135299 -0.326641 -0.353553 -0.000000 -0.386393 -0.922334 79 255 0
-0.097545 -0.000000 -0.490393 -0.000000 -0.386393 -0.922334 79 255 0
-0.453064 -0.090120 -0.191342 -0.893583 0.088010 -0.440185 79 255 0
-0.490392 -0.000000 -0.097545 -0.893583 0.088010 -0.440185 79 255 0
-0.426777 0.176777 -0.191342 -0.893583 0.088010 -0.440185 79 255 0
-0.461940 0.191342 0.000000 -0.951395 0.239916 -0.193101 79 255 0
-0.426777 0.176777 -0.191342 -0.951395 0.239916 -0.193101 79 255 0
-0.490392 -0.000000 -0.097545 -0.951395 0.239916 -0.193101 79 255 0
-0.426777 -0.176777 -0.191342 -0.897378 -0.409498 -0.164387 79 255 0
-0.415735 -0.277785 0.000000 -0.897378 -0.409498 -0.164387 79 255 0
-0.480970 -0.095671 -0.097545 -0.897378 -0.409498 -0.164387 79 255 0
0.346760 -0.068975 0.353553 0.772730 -0.320075 0.548124 79 255 0
0.293969 -0.196424 0.353553 0.772730 -0.320075 0.548124 79 255 0
0.384089 -0.256640 0.191342 0.772730 -0.320075 0.548124 79 255 0
0.353553 -0.353554 0.000000 0.631367 -0.769324 0.097551 79 255 0
0.346760 -0.346760 0.097545 0.631367 -0.769324 0.097551 79 255 0
0.272447 -0.407747 0.097545 0.631367 -0.769324 0.097551 79 255 0
-0.326641 0.326641 -0.191342 -0.816085 0.545290 -0.191480 79 255 0
-0.426777 0.176777 -0.191342 -0.816085 0.545290 -0.191480 79 255 0
-0.461940 0.191342 0.000000 -0.816085 0.545290 -0.191480 79 255 0
0.159095 0.106304 0.461940 0.365764 0.300175 0.880972 79 255 0
0.230970 0.154329 0.415735 0.365764 0.300175 0.880972 79 255 0
0.196424 0.196424 0.415735 0.365764 0.300175 0.880972 79 255 0
0.277785 -0.000000 -0.415735 0.629402 0.125196 -0.766928 79 255 0
0.000000 0.500000 0.000000 0.097550 0.990438 0.097550 79 255 0
0.000000 0.490393 0.097545 0.097550 0.990438 0.097550 79 255 0
0.097545 0.490393 0.000000 0.097550 0.990438 0.097550 79 255 0
-0.353553 0.353553 0.000000 -0.816084 0.545291 -0.191480 79 255 0
-0.326641 0.326641 -0.191342 -0.816084 0.545291 -0.191480 79 255 0
-0.461940 0.191342 0.000000 -0.816084 0.545291 -0.191480 79 255 0
0.277785 -0.415735 0.000000 0.380910 -0.919599 -0.096153 79 255 0
0.097545 -0.490393 0.000000 0.380910 -0.919599 -0.096153 79 255 0
0.095671 -0.480970 -0.097545 0.380910 -0.919599 -0.096153 79 255 0
0.346760 0.346760 0.097545 0.740025 0.607322 0.289004 79 255 0
0.326641 0.326641 0.191342 0.740025 0.607322 0.289004 79 255 0
0.407747 0.272447 0.097545 0.740025 0.607322 0.289004 79 255 0
0.326641 0.326641 0.191342 0.799745 0.262122 0.540092 79 255 0
0.346760 -0.068975 0.353553 0.799745 0.262122 0.540092 79 255 0
0.407747 0.272447 0.097545 0.799745 0.262122 0.540092 79 255 0
-0.293969 -0.196424 0.353553 -0.313819 -0.382389 0.869078 79 255 0
-0.135299 -0.326641 0.353553 -0.313819 -0.382389 0.869078 79 255 0
0.000000 -0.191342 0.461940 -0.313819 -0.382389 0.869078 79 255 0
-0.293969 -0.196424 0.353553 -0.806220 -0.244564 0.538699 79 255 0
-0.353553 -0.000000 0.353553 -0.806220 -0.244564 0.538699 79 255 0
-0.461940 -0.000000 0.191342 -0.806220 -0.244564 0.538699 79 255 0
0.490393 -0.097545 0.000000 0.954943 -0.070532 -0.288287 79 255 0
0.426777 -0.176777 -0.191342 0.954943 -0.070532 -0.288287 79 255 0
0.407747 -0.081106 -0.277785 0.954943 -0.070532 -0.288287 79 255 0
-0.426777 -0.176777 -0.191342 -0.844848 -0.256282 -0.469630 79 255 0
-0.187665 -0.453064 -0.097545 -0.097585 -0.990794 -0.093836 79 255 0
0.095671 -0.480970 -0.097545 -0.097585 -0.990794 -0.093836 79 255 0
0.097545 -0.490393 0.000000 -0.097585 -0.990794 -0.093836 79 255 0
0.415735 0.277785 0.000000 0.721740 0.672361 -0.164387 79 255 0
0.326641 0.326641 -0.191342 0.721740 0.672361 -0.164387 79 255 0
0.272448 0.407746 -0.097545 0.721740 0.672361 -0.164387 79 255 0
-0.187665 -0.453064 0.097545 -0.382682 -0.923880 0.000000 79 255 0
-0.277785 -0.415735 0.000000 -0.382682 -0.923880 0.000000 79 255 0
-0.187665 -0.453064 -0.097545 -0.382682 -0.923880 0.000000 79 255 0
0.256640 0.384089 0.191342 0.607322 0.740025 0.289004 79 255 0
0.326641 0.326641 0.191342 0.607322 0.740025 0.289004 79 255 0
0.346760 0.346760 0.097545 0.607322 0.740025 0.289004 79 255 0
-0.353553 0.353553 0.000000 -0.382273 0.922887 -0.046339 79 255 0
0.000000 0.500000 0.000000 -0.382273 0.922887 -0.046339 79 255 0
-0.090120 0.453063 -0.191342 -0.382273 0.922887 -0.046339 79 255 0
-0.500000 -0.000000 0.000000 -0.990438 -0.097549 -0.097551 79 255 0
-0.490392 -0.000000 -0.097545 -0.990438 -0.097549 -0.097551 79 255 0
-0.480970 -0.095671 -0.097545 -0.990438 -0.097549 -0.097551 79 255 0
-0.250000 0.250000 0.353553 -0.786151 0.325635 0.525289 79 255 0
-0.326641 0.326641 0.191342 -0.786151 0.325635 0.525289 79 255 0
-0.353553 -0.000000 0.353553 -0.786151 0.325635 0.525289 79 255 0
0.000000 0.500000 0.000000 -0.096151 0.976241 -0.194188 79 255 0
0.000000 0.461940 -0.191342 -0.096151 0.976241 -0.194188 79 255 0
-0.090120 0.453063 -0.191342 -0.096151 0.976241 -0.194188 79 255 0
0.095671 0.480970 0.097545 0.097550 0.990438 0.097550 79 255 0
0.000000 0.415735 0.277785 0.236038 0.778112 0.582089 79 255 0
0.230970 0.345671 0.277785 0.236038 0.778112 0.582089 79 255 0
0.176777 0.426777 0.191342 0.236038 0.778112 0.582089 79 255 0
0.000000 -0.191342 0.461940 -0.109841 -0.552209 0.826438 79 255 0
-0.135299 -0.326641 0.353553 -0.109841 -0.552209 0.826438 79 255 0
-0.000000 -0.353554 0.353553 -0.109841 -0.552209 0.826438 79 255 0
-0.277785 -0.415735 0.000000 -0.469149 -0.877715 -0.097551 79 255 0
-0.272448 -0.407747 -0.097545 -0.469149 -0.877715 -0.097551 79 255 0
-0.187665 -0.453064 -0.097545 -0.469149 -0.877715 -0.097551 79 255 0
-0.272448 -0.407747 0.097545 -0.451282 -0.844288 0.289003 79 255 0
-0.187665 -0.453064 0.097545 -0.451282 -0.844288 0.289003 79 255 0
-0.176777 -0.426777 0.191342 -0.451282 -0.844288 0.289003 79 255 0
0.426777 -0.176777 -0.191342 0.844848 -0.256282 -0.469628 79 255 0
0.384089 -0.159095 -0.277785 0.844848 -0.256282 -0.469628 79 255 0
0.407747 -0.081106 -0.277785 0.844848 -0.256282 -0.469628 79 255 0
0.196424 0.196424 0.415735 0.160934 0.530528 0.832250 79 255 0
0.196424 0.293969 0.353553 0.160934 0.530528 0.832250 79 255 0
0.000000 0.353553 0.353553 0.160934 0.530528 0.832250 79 255 0
-0.384089 -0.256640 -0.191342 -0.778617 -0.416179 -0.469629 79 255 0
-0.384089 -0.159095 -0.277785 -0.778617 -0.416179 -0.469629 79 255 0
-0.345671 -0.230970 -0.277785 -0.778617 -0.416179 -0.469629 79 255 0
-0.176777 -0.426777 0.191342 -0.256282 -0.844848 0.469630 79 255 0
-0.081106 -0.407747 0.277785 -0.256282 -0.844848 0.469630 79 255 0
-0.159095 -0.384089 0.277785 -0.256282 -0.844848 0.469630 79 255 0
0.097545 -0.490393 0.000000 0.105737 -0.951378 0.289310 79 255 0
0.081106 -0.407747 0.277785 0.105737 -0.951378 0.289310 79 255 0
-0.090120 -0.453064 0.191342 0.105737 -0.951378 0.289310 79 255 0
-0.384089 -0.256640 0.191342 -0.728050 -0.657766 0.193101 79 255 0
-0.415735 -0.277785 0.000000 -0.728050 -0.657766 0.193101 79 255 0
-0.272448 -0.407747 0.097545 -0.728050 -0.657766 0.193101 79 255 0
0.000000 0.461940 -0.191342 0.096151 0.976241 -0.194188 79 255 0
0.000000 0.500000 0.000000 0.096151 0.976241 -0.194188 79 255 0
0.097545 0.490393 0.000000 0.096151 0.976241 -0.194188 79 255 0
0.230970 0.345671 0.277785 0.416179 0.778617 0.469628 79 255 0
0.256640 0.384089 0.191342 0.416179 0.778617 0.469628 79 255 0
0.176777 0.426777 0.191342 0.416179 0.778617 0.469628 79 255 0
0.326641 0.135299 -0.353553 0.879659 0.174822 -0.442310 79 255 0
0.384089 0.256640 -0.191342 0.879659 0.174822 -0.442310 79 255 0
0.407747 -0.081106 -0.277785 0.879659 0.174822 -0.442310 79 255 0
-0.461940 -0.000000 0.191342 -0.862856 0.357407 0.357406 79 255 0
-0.326641 0.326641 0.191342 -0.862856 0.357407 0.357406 79 255 0
-0.461940 0.191342 0.000000 -0.862856 0.357407 0.357406 79 255 0
0.384089 -0.256640 0.191342 0.839042 -0.518637 0.164387 79 255 0
0.346760 -0.346760 0.097545 0.839042 -0.518637 0.164387 79 255 0
0.461940 -0.191342 0.000000 0.839042 -0.518637 0.164387 79 255 0
0.187665 0.453064 0.097545 0.544477 0.814867 0.198836 79 255 0
0.256640 0.384089 0.191342 0.544477 0.814867 0.198836 79 255 0
0.346760 0.346760 0.097545 0.544477 0.814867 0.198836 79 255 0
0.256640 0.384089 -0.191342 0.528263 0.643690 -0.553716 79 255 0
0.326641 0.326641 -0.191342 0.528263 0.643690 -0.553716 79 255 0
0.250000 0.250000 -0.353553 0.528263 0.643690 -0.553716 79 255 0
0.176777 0.426777 0.191342 0.139968 0.904954 0.401829 79 255 0
0.095671 0.480970 0.097545 0.139968 0.904954 0.401829 79 255 0
0.000000 0.415735 0.277785 0.139968 0.904954 0.401829 79 255 0
0.272448 0.407746 -0.097545 0.581905 0.812612 0.032373 79 255 0
0.191342 0.461940 0.000000 0.581905 0.812612 0.032373 79 255 0
0.346760 0.346760 0.097545 0.581905 0.812612 0.032373 79 255 0
-0.068975 0.346760 -0.353553 -0.099172 0.536746 -0.837895 79 255 0
0.054193 0.272448 -0.415735 -0.099172 0.536746 -0.837895 79 255 0
-0.073223 0.176776 -0.461940 -0.099172 0.536746 -0.837895 79 255 0
0.135299 -0.326641 -0.353553 0.241721 -0.796849 -0.553716 79 255 0
0.176777 -0.426777 -0.191342 0.241721 -0.796849 -0.553716 79 255 0
0.090120 -0.453064 -0.191342 0.241721 -0.796849 -0.553716 79 255 0
-0.490392 -0.000000 0.097545 -0.919004 0.278776 0.278775 79 255 0
-0.461940 -0.000000 0.191342 -0.919004 0.278776 0.278775 79 255 0
-0.461940 0.191342 0.000000 -0.919004 0.278776 0.278775 79 255 0
0.081106 -0.407747 0.277785 0.272379 -0.917714 0.289156 79 255 0
0.097545 -0.490393 0.000000 0.272379 -0.917714 0.289156 79 255 0
0.272447 -0.407747 0.097545 0.272379 -0.917714 0.289156 79 255 0
-0.097545 -0.000000 -0.490393 -0.281429 -0.342922 -0.896215 79 255 0
-0.135299 -0.326641 -0.353553 -0.281429 -0.342922 -0.896215 79 255 0
-0.293969 -0.196424 -0.353553 -0.281429 -0.342922 -0.896215 79 255 0
0.272447 -0.407747 0.097545 0.607322 -0.740025 0.289003 79 255 0
0.346760 -0.346760 0.097545 0.607322 -0.740025 0.289003 79 255 0
0.326641 -0.326641 0.191342 0.607322 -0.740025 0.289003 79 255 0
-0.277785 -0.000000 -0.415735 -0.370285 -0.252486 -0.893946 79 255 0
-0.097545 -0.000000 -0.490393 -0.370285 -0.252486 -0.893946 79 255 0
-0.293969 -0.196424 -0.353553 -0.370285 -0.252486 -0.893946 79 255 0
0.095671 -0.480970 -0.097545 0.277898 -0.916106 -0.289003 79 255 0
0.090120 -0.453064 -0.191342 0.277898 -0.916106 -0.289003 79 255 0
0.176777 -0.426777 -0.191342 0.277898 -0.916106 -0.289003 79 255 0
0.196424 0.293969 -0.353553 0.245580 0.592884 -0.766928 79 255 0
0.154329 0.230970 -0.415735 0.245580 0.592884 -0.766928 79 255 0
0.068975 0.346760 -0.353553 0.245580 0.592884 -0.766928 79 255 0
0.415735 0.277785 0.000000 0.758296 0.622317 -0.194186 79 255 0
0.384089 0.256640 -0.191342 0.758296 0.622317 -0.194186 79 255 0
0.326641 0.326641 -0.191342 0.758296 0.622317 -0.194186 79 255 0
-0.176777 -0.426777 0.191342 -0.256282 -0.844848 0.469629 79 255 0
-0.090120 -0.453064 0.191342 -0.256282 -0.844848 0.469629 79 255 0
-0.081106 -0.407747 0.277785 -0.256282 -0.844848 0.469629 79 255 0
0.326641 0.326641 -0.191342 0.607322 0.740025 -0.289004 79 255 0
0.256640 0.384089 -0.191342 0.607322 0.740025 -0.289004 79 255 0
0.272448 0.407746 -0.097545 0.607322 0.740025 -0.289004 79 255 0
-0.353553 -0.000000 0.353553 -0.552209 0.109841 0.826439 79 255 0
-0.191342 -0.000000 0.461940 -0.552209 0.109841 0.826439 79 255 0
-0.176777 0.073223 0.461940 -0.552209 0.109841 0.826439 79 255 0
-0.135299 0.135299 0.461940 -0.245682 0.164160 0.955349 79 255 0
-0.176777 0.073223 0.461940 -0.245682 0.164160 0.955349 79 255 0
-0.090120 0.037329 0.490393 -0.245682 0.164160 0.955349 79 255 0
0.326641 0.326641 0.191342 0.560083 0.682463 0.469628 79 255 0
0.256640 0.384089 0.191342 0.560083 0.682463 0.469628 79 255 0
0.230970 0.345671 0.277785 0.560083 0.682463 0.469628 79 255 0
0.068975 0.346760 -0.353553 0.253701 0.836341 -0.485973 79 255 0
0.000000 0.461940 -0.191342 0.253701 0.836341 -0.485973 79 255 0
0.256640 0.384089 -0.191342 0.253701 0.836341 -0.485973 79 255 0
-0.426777 0.176777 -0.191342 -0.695439 0.464677 -0.548124 79 255 0
-0.326641 0.326641 -0.191342 -0.695439 0.464677 -0.548124 79 255 0
-0.326641 0.135299 -0.353553 -0.695439 0.464677 -0.548124 79 255 0
0.187665 0.453064 -0.097545 0.451281 0.844288 -0.289004 79 255 0
0.272448 0.407746 -0.097545 0.451281 0.844288 -0.289004 79 255 0
0.256640 0.384089 -0.191342 0.451281 0.844288 -0.289004 79 255 0
0.135299 -0.326641 -0.353553 0.416947 -0.342180 -0.842062 79 255 0
0.277785 -0.000000 -0.415735 0.416947 -0.342180 -0.842062 79 255 0
0.346760 -0.068975 -0.353553 0.416947 -0.342180 -0.842062 79 255 0
0.277785 -0.000000 -0.415735 0.188260 -0.262294 -0.946446 79 255 0
0.135299 -0.326641 -0.353553 0.188260 -0.262294 -0.946446 79 255 0
-0.097545 -0.000000 -0.490393 0.188260 -0.262294 -0.946446 79 255 0
0.097545 0.490393 0.000000 0.288900 0.952376 -0.097550 79 255 0
0.191342 0.461940 0.000000 0.288900 0.952376 -0.097550 79 255 0
0.187665 0.453064 -0.097545 0.288900 0.952376 -0.097550 79 255 0
0.000000 0.415735 0.277785 0.228298 0.752596 0.617640 79 255 0
-0.135299 0.135299 0.461940 -0.468140 0.312801 0.826439 79 255 0
-0.250000 0.250000 0.353553 -0.468140 0.312801 0.826439 79 255 0
-0.176777 0.073223 0.461940 -0.468140 0.312801 0.826439 79 255 0
-0.326641 0.326641 -0.191342 -0.411988 0.770776 -0.485973 79 255 0
-0.090120 0.453063 -0.191342 -0.411988 0.770776 -0.485973 79 255 0
-0.135299 0.326641 -0.353553 -0.411988 0.770776 -0.485973 79 255 0
-0.326641 0.135299 -0.353553 -0.796849 0.241722 -0.553717 79 255 0
-0.346760 0.068975 -0.353553 -0.796849 0.241722 -0.553717 79 255 0
-0.426777 0.176777 -0.191342 -0.796849 0.241722 -0.553717 79 255 0
0.000000 0.415735 0.277785 -0.333097 0.871119 0.360829 79 255 0
0.000000 0.490393 0.097545 -0.333097 0.871119 0.360829 79 255 0
-0.326641 0.326641 0.191342 -0.333097 0.871119 0.360829 79 255 0
-0.326641 0.326641 -0.191342 -0.463082 0.866366 -0.186990 79 255 0
-0.353553 0.353553 0.000000 -0.463082 0.866366 -0.186990 79 255 0
-0.090120 0.453063 -0.191342 -0.463082 0.866366 -0.186990 79 255 0
-0.326641 0.326641 0.191342 -0.350864 0.771734 0.530398 79 255 0
-0.250000 0.250000 0.353553 -0.350864 0.771734 0.530398 79 255 0
0.000000 0.415735 0.277785 -0.350864 0.771734 0.530398 79 255 0
-0.407746 -0.081106 -0.277785 -0.886009 0.087264 -0.455383 79 255 0
-0.453064 -0.090120 -0.191342 -0.886009 0.087264 -0.455383 79 255 0
-0.426777 0.176777 -0.191342 -0.886009 0.087264 -0.455383 79 255 0
-0.346760 -0.068975 -0.353553 -0.669583 0.000000 -0.742737 79 255 0
-0.346760 0.068975 -0.353553 -0.669583 0.000000 -0.742737 79 255 0
-0.277785 -0.000000 -0.415735 -0.669583 0.000000 -0.742737 79 255 0
0.384089 -0.159095 -0.277785 0.634014 -0.634014 -0.442778 79 255 0
0.426777 -0.176777 -0.191342 0.634014 -0.634014 -0.442778 79 255 0
0.176777 -0.426777 -0.191342 0.634014 -0.634014 -0.442778 79 255 0
-0.326641 0.135299 -0.353553 -0.543013 0.543013 -0.640527 79 255 0
-0.326641 0.326641 -0.191342 -0.543013 0.543013 -0.640527 79 255 0
-0.135299 0.326641 -0.353553 -0.543013 0.543013 -0.640527 79 255 0
0.081106 -0.407747 0.277785 0.418071 -0.792615 0.443822 79 255 0
0.272447 -0.407747 0.097545 0.418071 -0.792615 0.443822 79 255 0
0.326641 -0.326641 0.191342 0.418071 -0.792615 0.443822 79 255 0
0.196424 -0.293969 0.353553 0.205757 -0.678291 0.705398 79 255 0
-0.000000 -0.353554 0.353553 0.205757 -0.678291 0.705398 79 255 0
0.081106 -0.407747 0.277785 0.205757 -0.678291 0.705398 79 255 0
-0.384089 -0.256640 -0.191342 -0.558153 -0.694348 -0.454254 79 255 0
-0.345671 -0.230970 -0.277785 -0.558153 -0.694348 -0.454254 79 255 0
-0.272448 -0.407747 -0.097545 -0.558153 -0.694348 -0.454254 79 255 0
0.230970 0.345671 0.277785 0.491344 0.598704 0.632563 79 255 0
0.196424 0.293969 0.353553 0.491344 0.598704 0.632563 79 255 0
0.250000 0.250000 0.353553 0.491344 0.598704 0.632563 79 255 0
0.346760 -0.068975 -0.353553 0.741159 -0.224828 -0.632562 79 255 0
0.407747 -0.081106 -0.277785 0.741159 -0.224828 -0.632562 79 255 0
0.384089 -0.159095 -0.277785 0.741159 -0.224828 -0.632562 79 255 0
0.081106 -0.407747 0.277785 0.424515 -0.759005 0.493658 79 255 0
0.326641 -0.326641 0.191342 0.424515 -0.759005 0.493658 79 255 0
0.196424 -0.293969 0.353553 0.424515 -0.759005 0.493658 79 255 0
0.000000 0.353553 0.353553 0.041714 0.423530 0.904921 79 255 0
-0.135299 0.135299 0.461940 0.041714 0.423530 0.904921 79 255 0
0.159095 0.106304 0.461940 0.041714 0.423530 0.904921 79 255 0
-0.384089 -0.256640 0.191342 -0.806220 -0.244564 0.538699 79 255 0
-0.135299 0.135299 -0.461940 -0.288209 0.119380 -0.950097 79 255 0
-0.068975 0.068975 -0.490393 -0.288209 0.119380 -0.950097 79 255 0
-0.097545 -0.000000 -0.490393 -0.288209 0.119380 -0.950097 79 255 0
0.176777 -0.426777 -0.191342 0.660402 -0.660402 -0.357407 79 255 0
0.426777 -0.176777 -0.191342 0.660402 -0.660402 -0.357407 79 255 0
0.353553 -0.353554 0.000000 0.660402 -0.660402 -0.357407 79 255 0
0.384089 -0.159095 -0.277785 0.510917 -0.419299 -0.750435 79 255 0
0.135299 -0.326641 -0.353553 0.510917 -0.419299 -0.750435 79 255 0
0.346760 -0.068975 -0.353553 0.510917 -0.419299 -0.750435 79 255 0
-0.068975 0.346760 -0.353553 -0.000001 0.641733 -0.766928 79 255 0
0.068975 0.346760 -0.353553 -0.000001 0.641733 -0.766928 79 255 0
0.054193 0.272448 -0.415735 -0.000001 0.641733 -0.766928 79 255 0
0.176777 -0.426777 -0.191342 0.578719 -0.619485 -0.530398 79 255 0
0.135299 -0.326641 -0.353553 0.578719 -0.619485 -0.530398 79 255 0
0.384089 -0.159095 -0.277785 0.578719 -0.619485 -0.530398 79 255 0
0.250000 0.250000 0.353553 0.613381 0.561709 0.555199 79 255 0
0.326641 0.326641 0.191342 0.613381 0.561709 0.555199 79 255 0
0.230970 0.345671 0.277785 0.613381 0.561709 0.555199 79 255 0
0.293969 -0.196424 0.353553 0.576547 -0.576547 0.578954 79 255 0
0.196424 -0.293969 0.353553 0.576547 -0.576547 0.578954 79 255 0
0.326641 -0.326641 0.191342 0.576547 -0.576547 0.578954 79 255 0
0.384089 -0.256640 0.191342 0.643690 -0.528262 0.553717 79 255 0
0.293969 -0.196424 0.353553 0.643690 -0.528262 0.553717 79 255 0
0.326641 -0.326641 0.191342 0.643690 -0.528262 0.553717 79 255 0
-0.176777 0.073223 0.461940 -0.577621 0.239259 0.780455 79 255 0
-0.250000 0.250000 0.353553 -0.577621 0.239259 0.780455 79 255 0
-0.353553 -0.000000 0.353553 -0.577621 0.239259 0.780455 79 255 0
0.326641 -0.326641 0.191342 0.740025 -0.607322 0.289003 79 255 0
0.346760 -0.346760 0.097545 0.740025 -0.607322 0.289003 79 255 0
0.384089 -0.256640 0.191342 0.740025 -0.607322 0.289003 79 255 0
0.196424 0.196424 0.415735 0.063147 0.434489 0.898461 79 255 0
0.000000 0.353553 0.353553 0.063147 0.434489 0.898461 79 255 0
0.159095 0.106304 0.461940 0.063147 0.434489 0.898461 79 255 0
0.426777 -0.176777 -0.191342 0.816084 -0.545290 -0.191481 79 255 0
0.461940 -0.191342 0.000000 0.816084 -0.545290 -0.191481 79 255 0
0.353553 -0.353554 0.000000 0.816084 -0.545290 -0.191481 79 255 0
-0.068975 0.068975 -0.490393 0.209840 0.112162 -0.971281 79 255 0
0.230970 0.154329 -0.415735 0.209840 0.112162 -0.971281 79 255 0
0.256640 0.106304 -0.415735 0.209840 0.112162 -0.971281 79 255 0
-0.068975 0.068975 -0.490393 0.132918 0.257827 -0.957005 79 255 0
-0.073223 0.176776 -0.461940 0.132918 0.257827 -0.957005 79 255 0
0.154329 0.230970 -0.415735 0.132918 0.257827 -0.957005 79 255 0
-0.453064 -0.090120 -0.191342 -0.952719 -0.093834 -0.289002 79 255 0
-0.480970 -0.095671 -0.097545 -0.952719 -0.093834 -0.289002 79 255 0
-0.490392 -0.000000 -0.097545 -0.952719 -0.093834 -0.289002 79 255 0
-0.135299 -0.326641 -0.353553 -0.000000 -0.788743 -0.614723 79 255 0
0.135299 -0.326641 -0.353553 -0.000000 -0.788743 -0.614723 79 255 0
0.090120 -0.453064 -0.191342 -0.000000 -0.788743 -0.614723 79 255 0
0.490393 -0.097545 0.000000 0.976750 0.194288 0.090620 79 255 0
0.415735 0.277785 0.000000 0.976750 0.194288 0.090620 79 255 0
0.407747 0.272447 0.097545 0.976750 0.194288 0.090620 79 255 0
-0.081106 -0.407747 0.277785 -0.075915 -0.770780 0.632562 79 255 0
-0.000000 -0.415735 0.277785 -0.075915 -0.770780 0.632562 79 255 0
-0.000000 -0.353554 0.353553 -0.075915 -0.770780 0.632562 79 255 0
0.196424 0.293969 -0.353553 0.528263 0.643690 -0.553716 79 255 0
3 0 1 2
3 3 4 5
3 6 7 8
3 9 10 11
3 12 13 14
3 15 16 17
3 18 19 20
3 21 22 23
3 24 25 26
3 27 28 29
3 30 31 32
3 33 34 35
3 36 37 38
3 39 40 41
3 42 43 44
3 45 46 47
3 48 49 50
3 51 52 53
3 54 55 56
3 57 58 59
3 60 61 62
3 63 64 65
3 66 67 68
3 69 70 71
3 72 73 74
3 75 76 77
3 78 79 80
3 81 82 83
3 84 85 86
3 87 88 89
3 90 91 92
3 93 94 95
3 96 97 98
3 99 100 101
3 102 103 104
3 105 106 107
3 108 109 110
3 111 112 113
3 114 115 116
3 117 118 119
3 120 121 122
3 123 124 125
3 126 127 128
3 129 130 131
3 132 133 134
3 135 136 137
3 138 139 140
3 141 142 143
3 144 145 146
3 147 148 149
3 150 151 152
3 153 154 155
3 156 157 158
3 159 160 161
3 162 163 164
3 165 166 167
3 168 169 170
3 171 172 173
3 174 175 176
3 177 178 179
3 180 181 182
3 183 184 185
3 186 187 188
3 189 190 191
3 192 193 194
3 195 196 197
3 198 199 200
3 201 202 203
3 204 205 206
3 207 208 209
3 210 211 212
3 213 214 215
3 216 217 218
3 219 220 221
3 222 223 224
3 225 226 227
3 228 229 230
3 231 232 233
3 234 235 236
3 237 238 239
3 240 241 242
3 243 244 245
3 246 247 248
3 249 250 251
3 252 253 254
3 255 256 257
3 258 259 260
3 261 262 263
3 264 265 266
3 267 268 269
3 270 271 272
3 273 274 275
3 276 277 278
3 279 280 281
3 282 283 284
3 285 286 287
3 288 289 290
3 291 292 293
3 294 295 296
3 297 298 299
3 300 301 302
3 303 304 305
3 306 307 308
3 309 310 311
3 312 313 314
3 9 315 10
3 316 317 318
3 319 320 321
3 322 323 324
3 325 326 327
3 328 329 330
3 331 332 333
3 334 335 336
3 337 338 339
3 340 341 342
3 343 344 345
3 346 347 348
3 349 350 351
3 352 353 354
3 355 356 357
3 358 359 360
3 66 361 67
3 362 363 364
3 365 366 367
3 368 369 370
3 371 372 373
3 374 375 376
3 377 378 379
3 380 381 382
3 383 384 385
3 317 386 318
3 387 388 389
3 390 391 392
3 393 394 395
3 396 397 398
3 399 400 401
3 402 403 404
3 405 406 407
3 408 409 410
3 363 411 364
3 412 413 414
3 415 416 417
3 418 419 420
3 421 422 423
3 424 425 426
3 427 428 429
3 430 431 432
3 433 434 435
3 436 437 438
3 439 440 441
3 442 443 444
3 445 446 447
3 448 449 450
3 451 452 453
3 454 455 456
3 457 458 459
3 460 461 462
3 463 464 465
3 466 467 468
3 469 470 471
3 472 473 474
3 475 476 477
3 478 479 480
3 481 482 483
3 484 485 486
3 487 488 489
3 490 491 492
3 493 494 495
3 496 497 498
3 499 500 501
3 502 503 504
3 505 506 507
3 508 509 510
3 511 512 513
3 514 515 516
3 517 518 519
3 520 521 522
3 523 524 525
3 526 527 528
3 529 530 531
3 64 532 65
3 533 534 535
3 536 537 538
3 539 540 541
3 542 543 544
3 545 546 547
3 548 549 550
3 551 552 553
3 554 555 556
3 557 558 559
3 560 561 562
3 563 564 565
3 566 567 568
3 569 570 571
3 572 573 574
3 575 576 577
3 578 579 580
3 581 582 583
3 584 380 382
3 585 586 587
3 588 589 590
3 591 592 593
3 594 595 596
3 597 598 599
3 600 601 602
3 603 604 605
3 606 607 608
3 609 610 611
3 612 613 614
3 615 616 617
3 618 619 620
3 621 622 623
3 624 625 626
3 627 628 629
3 630 631 632
3 633 634 635
3 636 637 638
3 460 462 639
